<?xml version="1.0" encoding="UTF-8"?>
<svg id="_レイヤー_2" data-name="レイヤー 2" xmlns="http://www.w3.org/2000/svg" xmlns:xlink="http://www.w3.org/1999/xlink" viewBox="0 0 303.2159516 398.7948628">
  <defs>
    <clipPath id="clippath">
      <path d="m301.7071516,142.9002628c-.9209,6.3399-2.2285,12.7129-3.9317,19.0801C194.9805516,243.7577628,79.0069516,243.5018628.3790516,195.4979628H.3790516c84.9814,37.332,186.7871,35.3105,301.3281-52.5977ZM.3790516,195.4979628H.3790516c89.1337,33.4062,209.1484,14.6523,302.8369-80.8086-.208-5.1895-.6856-10.3184-1.461-15.3633C197.0977516,201.7694628,92.9463516,218.9393628.3790516,195.4979628Zm0,0c2.1738,29.7871,13.6552,57.25,34.916,77.791,53.7402,51.9121,149.4218,40.0645,213.6884-26.4668,15.7383-16.291,28.0987-34.3457,37.0616-53.0957-118.6787,66.7305-212.8233,52.1758-285.666,1.7715Zm0-.0137v.0137c95.0722,18.8105,213.7441-16.1602,295.4589-119.668-1.8271-5.1504-3.9931-10.1406-6.5127-14.9629C199.3057516,171.3514628,97.1749516,203.1873628.3790516,195.4842628Zm0,0c97.3349,2.9219,209.6054-46.3691,277.6582-152.0586-3.0586-3.8691-6.3741-7.5859-9.9932-11.0801C214.3028516-19.5743372,118.6290516-7.7256372,54.3555516,58.8104628,15.5225516,99.0135628-2.9354484,149.9803628.3790516,195.4842628Z" fill="none"/>
    </clipPath>
    <radialGradient id="radial-gradient" cx="1946.1060782" cy="-543.2720882" fx="1946.1060782" fy="-543.2720882" r="152.2559683" gradientTransform="translate(1928.7739894 1114.2499966) rotate(-135.9885985)" gradientUnits="userSpaceOnUse">
      <stop offset="0" stop-color="#ef8786"/>
      <stop offset=".586581" stop-color="#e60012"/>
      <stop offset=".6774286" stop-color="#e20113"/>
      <stop offset=".7628123" stop-color="#d60616"/>
      <stop offset=".8460389" stop-color="#c30e1b"/>
      <stop offset=".9274053" stop-color="#a91922"/>
      <stop offset="1" stop-color="#8b272b"/>
    </radialGradient>
  </defs>
  <g id="_レイヤー_1-2" data-name="レイヤー 1">
    <g>
      <g clip-path="url(#clippath)" fill="none">
        <path d="m54.3555516,58.8104628C118.6290516-7.7256372,214.3028516-19.5743372,268.0440516,32.3455628c53.7402,51.9141,45.2139,147.9414-19.0606,214.4766-64.2666,66.5313-159.9482,78.3789-213.6884,26.4668C-18.4520484,221.3612628-9.9188484,125.3494628,54.3555516,58.8104628Z" fill="url(#radial-gradient)"/>
      </g>
      <g>
        <g>
          <path d="m58.4522516,350.5213628h-6.2559c-.0976,0-.1806.084-.1806.1797v6.2734c-.2832.0625-.5323.0977-.8028.0977-1.7158,0-3.6953-.7891-4.8164-1.9238-1.1904-1.2071-1.9658-3.2012-1.9658-5.0762,0-2.125.7959-4.2852,2.0352-5.5098,1.2177-1.2011,3.1836-1.9062,5.3838-1.914h.0625c1.4951,0,2.7265.4023,3.6406.6855.1377.0489.2832.0977.415.1328.083.0196.1797-.0136.2149-.0976l1.7021-3.9785c.0137-.0489.0137-.0918,0-.1387-.0205-.043-.0557-.084-.0967-.0977-1.9521-.789-4.997-1.4531-6.9345-1.5078-.1739,0-.3467-.0078-.5127-.0078-3.6817,0-6.9209,1.1152-9.3565,3.2188-2.4228,2.0761-3.751,5.1445-3.751,8.6269,0,3.5918,1.3702,6.7715,3.875,8.959,2.5264,2.2207,5.9659,3.4043,9.9737,3.4043,3.0722,0,5.4531-.5957,7.4668-1.8613.0556-.0352.083-.0899.083-.1524v-9.1328c0-.0957-.083-.1797-.1797-.1797Z" fill="#c8161d"/>
          <path d="m87.2159516,340.9393628c-2.0352-2.1582-4.8379-3.293-8.1114-3.293-3.3291,0-5.9111,1.0371-8.125,3.2871-2.1045,2.125-3.2597,5.2422-3.2597,8.7793,0,3.3633,1.1552,6.4532,3.2519,8.709,2.1319,2.2988,4.7901,3.4258,8.1328,3.4258,3.3565,0,6.0069-1.127,8.1114-3.4258,2.0273-2.1933,3.1347-5.3125,3.1347-8.7793,0-3.4609-1.1074-6.5566-3.1347-8.7031Zm-8.1045,16.1465c-2.7061,0-4.1875-2.6016-4.1875-7.3457,0-4.7344,1.4814-7.3477,4.1875-7.3477,2.6572,0,4,2.5098,4,7.4512,0,4.7988-1.3428,7.2422-4,7.2422Z" fill="#c8161d"/>
          <path d="m119.0166516,338.3377628h-6.0214c-.0967,0-.1729.0821-.1729.1719v10.8145c0,2.3535-.1377,4.1523-.3594,4.9531-.4502,1.6328-1.5986,2.5176-3.2324,2.5176-1.5224,0-2.7197-.9414-3.1973-2.5254-.2558-.875-.3671-2.3496-.3671-4.9453v-10.8145c0-.0898-.083-.1719-.1797-.1719h-6.0215c-.0967,0-.1797.0821-.1797.1719v12.0957c0,2.0488.0762,4.1621.623,5.6504,1.377,3.7578,4.4014,5.5918,9.2393,5.5918,4.6924,0,7.9316-1.9453,9.3711-5.5918.4355-1.1152.6777-3.125.6777-5.6504v-12.0957c0-.0898-.0761-.1719-.1797-.1719Z" fill="#c8161d"/>
          <path d="m149.9668516,360.8377628l-5.5293-9.5957c2.5743-1.2187,3.8819-3.2676,3.8819-6.0918,0-2.4179-.8926-4.3066-2.5811-5.4492-.9209-.6289-2.0488-1.0449-3.3779-1.2324-.7539-.0899-1.958-.1309-3.585-.1309h-8.4082c-.0966,0-.1728.0821-.1728.1719v22.459c0,.0976.0762.1738.1728.1738h6.2627c.0977,0,.1739-.0762.1739-.1738v-8.6055h2.083l4.6572,8.6895c.0351.0605.0898.0898.1523.0898h6.1455c.1045,0,.1807-.0762.1807-.1738,0-.0547-.0283-.0977-.0557-.1309Zm-13.163-18.2031h1.0791c1.4394,0,2.4365.0293,3.1074.4512.748.4765,1.1562,1.2832,1.1562,2.2656,0,1.1289-.2773,1.793-.9687,2.2852-.7822.5605-1.8897.6152-3.3574.6152h-1.0166v-5.6172Z" fill="#c8161d"/>
          <path d="m184.1211516,338.3377628h-7.0732c-.0693,0-.1377.041-.166.1172l-4.8164,13.291-4.5469-13.291c-.0283-.0762-.0977-.1172-.1738-.1172h-7.7578c-.0967,0-.1797.0821-.1797.1719v22.459c0,.0976.083.1738.1797.1738h5.0664c.0966,0,.1797-.0762.1797-.1738v-14.7246l4.914,14.7793c.0205.0703.0899.1191.166.1191h2.8506c.0762,0,.1455-.043.167-.1191l5.2666-14.8125v14.7578c0,.0976.0762.1738.1729.1738h5.7509c.0967,0,.1797-.0762.1797-.1738v-22.459c0-.0898-.083-.1719-.1797-.1719Z" fill="#c8161d"/>
          <path d="m210.8497516,356.5252628h-8.6788v-4.4609h6.6163c.0966,0,.1796-.0762.1796-.1719v-4.2988c0-.1035-.083-.1797-.1796-.1797h-6.6163v-4.4609h7.4473c.0967,0,.1729-.0762.1729-.1719v-4.2715c0-.0898-.0762-.1719-.1729-.1719h-14.1055c-.0966,0-.1796.0821-.1796.1719v22.459c0,.0976.083.1738.1796.1738h15.337c.0966,0,.1796-.0762.1796-.1738v-4.2637c0-.0957-.083-.1797-.1796-.1797Z" fill="#c8161d"/>
          <path d="m239.1211516,338.3377628h-19.7168c-.0976,0-.1806.0821-.1806.1719v4.2715c0,.0957.083.1719.1806.1719h6.4913v18.0156c0,.0976.0761.1738.1728.1738h6.2568c.1036,0,.1797-.0762.1797-.1738v-18.0156h6.6162c.0977,0,.1729-.0762.1729-.1719v-4.2715c0-.0898-.0752-.1719-.1729-.1719Z" fill="#c8161d"/>
        </g>
        <path d="m161.1719516,394.1815628h-8.6787v-4.4571h6.6162c.0967,0,.1797-.0761.1797-.1796v-4.2911c0-.0957-.083-.1796-.1797-.1796h-6.6162v-4.4493h7.4395c.0966,0,.1806-.0839.1806-.1816v-4.2617c0-.1055-.084-.1797-.1806-.1797h-14.1045c-.0967,0-.1729.0742-.1729.1797v22.4394c0,.1055.0762.1739.1729.1739h15.3437c.0967,0,.1729-.0684.1729-.1739v-4.2656c0-.0898-.0762-.1738-.1729-.1738Z" fill="#c8161d"/>
        <path d="m88.0040516,398.4842628l-8.4083-12.0527,6.8379-10.1543c.0342-.0625.0342-.125.0137-.1856-.0351-.0566-.0967-.0898-.1592-.0898h-6.0556c-.0557,0-.1114.0273-.1455.0742l-6.0215,9.2129v-9.1074c0-.1055-.0762-.1797-.1797-.1797h-6.2568c-.1036,0-.1797.0742-.1797.1797v22.4394c0,.1055.0761.1739.1797.1739h6.2568c.1035,0,.1797-.0684.1797-.1739v-9.8574l6.873,9.9629c.0342.0469.0899.0684.1446.0684h6.8105c.0967,0,.1729-.0684.1729-.1739,0-.0547-.0206-.0957-.0625-.1367Z" fill="#c8161d"/>
        <path d="m102.7598516,376.0018628h-6.4853c-.0899,0-.1729.0742-.1729.1797v22.4394c0,.1055.083.1739.1729.1739h6.4853c.0967,0,.1797-.0684.1797-.1739v-22.4394c0-.1055-.083-.1797-.1797-.1797Z" fill="#c8161d"/>
        <path d="m134.1944516,376.0018628h-4.7686c-.0967,0-.1728.0742-.1728.1797v11.7793l-10.4092-11.9043c-.0342-.0352-.083-.0547-.1318-.0547h-4.2491c-.0966,0-.1797.0742-.1797.1797v22.4394c0,.1055.0831.1739.1797.1739h4.7686c.0898,0,.1728-.0684.1728-.1739v-12.1757l10.8311,12.2949c.0352.041.083.0547.1318.0547h3.8272c.0967,0,.1728-.0684.1728-.1739v-22.4394c0-.1055-.0761-.1797-.1728-.1797Z" fill="#c8161d"/>
        <path d="m190.0596516,376.0838628c-.0351-.0488-.0898-.082-.1523-.082h-5.5713c-.0625,0-.1182.0332-.1524.0898l-5.1211,9.5078-5.1289-9.5078c-.0273-.0566-.0898-.0898-.1523-.0898h-5.5713c-.0625,0-.1172.0332-.1523.082-.0274.0547-.0274.125,0,.1739l7.4746,13.6953v8.6679c0,.1055.083.1739.1806.1739h6.6993c.0966,0,.1728-.0684.1728-.1739v-8.6679l7.4815-13.6953c.0273-.0489.0273-.1192-.0069-.1739Z" fill="#c8161d"/>
        <path d="m215.2999516,398.5116628l-8.5752-22.4004c-.0274-.0625-.0967-.1094-.1661-.1094h-5.8545c-.0761,0-.1386.0469-.1669.1094l-8.5957,22.4472c-.0206.0567-.0137.1192.0214.168.0342.0469.083.0684.1377.0684h5.8623c.0762,0,.1387-.0411.1661-.1114l1.3427-3.8086h8.3194l1.3418,3.8086c.0283.0703.0976.1114.167.1114h5.8613c.1045,0,.1875-.0684.1875-.1739,0-.0332-.0215-.082-.0488-.1093Zm-9.0459-7.9844h-5.2461l2.623-7.4121,2.6231,7.4121Z" fill="#c8161d"/>
      </g>
    </g>
  </g>
</svg>