<svg xmlns="http://www.w3.org/2000/svg" xmlns:xlink="http://www.w3.org/1999/xlink" width="2000" height="1755.982" viewBox="0 0 2000 1755.982">
  <defs>
    <clipPath id="clip-path">
      <rect id="長方形_12470" data-name="長方形 12470" width="2000" height="1755.982" fill="none" stroke="#fff" stroke-width="2"/>
    </clipPath>
  </defs>
  <g id="グループ_2235" data-name="グループ 2235" transform="translate(-1188 -32.371)">
    <g id="グループ_2234" data-name="グループ 2234" transform="translate(1188 32.371)" clip-path="url(#clip-path)">
      <path id="パス_4142" data-name="パス 4142" d="M.522,1533.138C3.787,1532.9,1246.812,1631.472,1800.583.161" transform="translate(2.343 0.723)" fill="none" stroke="#fff" stroke-miterlimit="10" stroke-width="2"/>
      <path id="パス_4143" data-name="パス 4143" d="M.482,1372.907c3.161.06,1185.516,212.457,1857.7-1337.039" transform="translate(2.163 160.975)" fill="none" stroke="#fff" stroke-miterlimit="10" stroke-width="2"/>
      <path id="パス_4144" data-name="パス 4144" d="M.442,1237.958c3.051.307,1125.79,304.627,1887.782-1172.021" transform="translate(1.984 295.925)" fill="none" stroke="#fff" stroke-miterlimit="10" stroke-width="2"/>
      <path id="パス_4145" data-name="パス 4145" d="M.4,1096.617c2.936.565,1063.683,400.448,1920.342-999.188" transform="translate(1.804 437.261)" fill="none" stroke="#fff" stroke-miterlimit="10" stroke-width="2"/>
      <path id="パス_4146" data-name="パス 4146" d="M.362,987.067c2.837.763,1009.851,474.876,1932.969-865.231" transform="translate(1.625 546.799)" fill="none" stroke="#fff" stroke-miterlimit="10" stroke-width="2"/>
      <path id="パス_4147" data-name="パス 4147" d="M.322,859.145c2.728.993,951.393,561.811,1957.451-708.807" transform="translate(1.445 674.716)" fill="none" stroke="#fff" stroke-miterlimit="10" stroke-width="2"/>
      <path id="パス_4148" data-name="パス 4148" d="M.282,768.586c2.64,1.169,907.692,627.92,1968.62-598.07" transform="translate(1.266 765.274)" fill="none" stroke="#fff" stroke-miterlimit="10" stroke-width="2"/>
      <path id="パス_4149" data-name="パス 4149" d="M.241,641.159c2.546,1.4,851.264,716.183,1996.723-442.25" transform="translate(1.082 892.702)" fill="none" stroke="#fff" stroke-miterlimit="10" stroke-width="2"/>
    </g>
  </g>
</svg>
