<svg width="1600" height="635" viewBox="0 0 1600 635" fill="none" xmlns="http://www.w3.org/2000/svg">
<g opacity="0.9">
<path fill-rule="evenodd" clip-rule="evenodd" d="M1587.4 0C1594.36 0 1600 6.34238 1600 14.1662V620.834C1600 628.658 1594.36 635 1587.4 635H12.5984C5.64 635 0 628.658 0 620.834V14.1662C0 6.34238 5.64 0 12.5984 0H1587.4V0Z" fill="#002F7B" style="mix-blend-mode:multiply"/>
</g>
<path d="M1252.32 447.798L1257.08 453.646L1252.32 459.495" stroke="#002F7B" stroke-width="1.195" stroke-linecap="round" stroke-linejoin="round"/>
<path d="M1015.76 202.782H998.864V285H981.54V202.782H964.5V187.02H1015.76V202.782Z" fill="white"/>
<path d="M910.288 279.036C905.318 274.208 902.904 267.25 902.904 258.02V213.858C902.904 204.628 905.46 197.67 910.714 192.842C915.826 188.014 922.784 185.6 931.304 185.6C939.398 185.6 945.93 188.014 951.042 192.7C956.012 197.528 958.568 204.628 958.568 214.284V217.266H941.102V214.426C941.102 210.024 940.108 206.758 938.262 204.628C936.416 202.498 934.002 201.362 930.878 201.362C927.186 201.362 924.488 202.64 922.784 205.196C921.08 207.752 920.37 211.586 920.37 216.698V256.032C920.37 265.688 923.778 270.374 930.878 270.374C934.002 270.374 936.416 269.38 938.262 267.108C940.108 264.978 941.102 261.712 941.102 257.452V254.896H958.426V257.594C958.426 267.108 955.728 274.208 950.474 279.036C945.22 283.864 938.546 286.136 930.31 286.136C921.79 286.136 915.116 283.864 910.288 279.036Z" fill="white"/>
<path d="M875.286 265.972H852.424L848.448 285H830.272L855.406 187.02H872.446L897.438 285H879.262L875.286 265.972ZM872.162 250.352L863.926 210.592L855.69 250.352H872.162Z" fill="white"/>
<path d="M834.933 202.782H818.035V285H800.711V202.782H783.671V187.02H834.933V202.782Z" fill="white"/>
<path d="M777.192 187.02V285H759.726L739.278 232.744V285H721.812V187.02H739.278L759.726 241.548V187.02H777.192Z" fill="white"/>
<path d="M662.204 279.036C657.234 274.208 654.82 267.25 654.82 258.02V213.858C654.82 204.628 657.376 197.67 662.63 192.842C667.742 188.014 674.7 185.6 683.22 185.6C691.456 185.6 697.988 188.014 702.958 192.842C707.928 197.67 710.484 204.628 710.484 213.858V258.02C710.484 267.108 707.786 274.066 702.532 278.894C697.278 283.722 690.462 286.136 682.226 286.136C673.706 286.136 667.032 283.864 662.204 279.036ZM690.32 266.682C692.024 264.126 693.018 260.576 693.018 256.032V216.698C693.018 211.728 692.166 207.894 690.462 205.338C688.758 202.782 686.202 201.504 682.794 201.504C679.102 201.504 676.404 202.782 674.7 205.338C672.996 207.894 672.286 211.728 672.286 216.84V256.174C672.286 265.688 675.694 270.516 682.794 270.516C686.06 270.516 688.616 269.238 690.32 266.682Z" fill="white"/>
<path d="M595.78 279.036C590.81 274.208 588.396 267.25 588.396 258.02V213.858C588.396 204.628 590.952 197.67 596.206 192.842C601.318 188.014 608.276 185.6 616.796 185.6C624.89 185.6 631.422 188.014 636.534 192.7C641.504 197.528 644.06 204.628 644.06 214.284V217.266H626.594V214.426C626.594 210.024 625.6 206.758 623.754 204.628C621.908 202.498 619.494 201.362 616.37 201.362C612.678 201.362 609.98 202.64 608.276 205.196C606.572 207.752 605.862 211.586 605.862 216.698V256.032C605.862 265.688 609.27 270.374 616.37 270.374C619.494 270.374 621.908 269.38 623.754 267.108C625.6 264.978 626.594 261.712 626.594 257.452V254.896H643.918V257.594C643.918 267.108 641.22 274.208 635.966 279.036C630.712 283.864 624.038 286.136 615.802 286.136C607.282 286.136 600.608 283.864 595.78 279.036Z" fill="white"/>
<path d="M962.992 343.202C961.328 341.382 960.444 338.782 960.444 335.35H966.476C966.528 337.118 966.892 338.418 967.516 339.25C968.14 340.082 969.076 340.498 970.324 340.498C971.572 340.498 972.508 340.082 973.08 339.354C973.652 338.574 973.912 337.378 973.912 335.714C973.912 334.31 973.6 333.218 972.976 332.386C972.352 331.554 971.26 330.826 969.752 330.15L967.308 329.058C964.968 328.018 963.304 326.718 962.264 325.21C961.224 323.65 960.704 321.622 960.704 319.074C960.704 316.058 961.588 313.614 963.356 311.846C965.124 310.026 967.464 309.142 970.428 309.142C973.392 309.142 975.68 310.026 977.292 311.794C978.904 313.562 979.736 316.162 979.84 319.542H973.964C973.964 317.878 973.652 316.682 973.132 315.85C972.612 315.018 971.676 314.654 970.428 314.654C968.14 314.654 966.944 316.006 966.944 318.762C966.944 320.01 967.256 320.998 967.828 321.726C968.4 322.454 969.336 323.13 970.688 323.702L973.028 324.742C975.524 325.886 977.344 327.238 978.488 328.902C979.632 330.566 980.152 332.802 980.152 335.558C980.152 338.886 979.32 341.486 977.552 343.254C975.836 345.074 973.392 345.958 970.22 345.958C967.048 345.958 964.656 345.074 962.992 343.202Z" fill="white"/>
<path d="M939.812 343.358C937.992 341.59 937.108 339.042 937.108 335.662V319.49C937.108 316.11 938.044 313.562 939.968 311.794C941.84 310.026 944.388 309.142 947.508 309.142C950.472 309.142 952.864 310.026 954.684 311.69C956.556 313.406 957.44 315.902 957.44 319.23V320.322H951.044V319.23C951.044 317.878 950.732 316.786 950.004 316.058C949.328 315.33 948.444 314.914 947.352 314.914C946 314.914 945.012 315.382 944.388 316.318C943.764 317.254 943.504 318.658 943.504 320.53V334.934C943.504 338.47 944.752 340.186 947.352 340.186C948.6 340.186 949.536 339.77 950.16 338.938C950.784 338.106 951.096 336.858 951.096 335.246V331.45H947.3V326.406H957.492V335.662C957.492 338.99 956.504 341.538 954.58 343.306C952.656 345.074 950.16 345.958 947.144 345.958C944.024 345.958 941.58 345.126 939.812 343.358Z" fill="white"/>
<path d="M932.967 309.661V345.541H926.571L919.083 326.405V345.541H912.687V309.661H919.083L926.571 329.629V309.661H932.967Z" fill="white"/>
<path d="M901.774 309.661H908.118V345.541H901.774V309.661Z" fill="white"/>
<path d="M877.496 309.661H887.428C890.444 309.661 892.836 310.545 894.656 312.261C896.476 314.029 897.412 316.577 897.412 319.957V335.245C897.412 338.625 896.424 341.173 894.552 342.941C892.628 344.709 890.132 345.541 887.116 345.541H877.496V309.661ZM887.272 339.821C888.468 339.821 889.404 339.353 890.028 338.417C890.652 337.481 891.016 336.181 891.016 334.517V321.049C891.016 319.229 890.704 317.825 890.08 316.889C889.456 315.953 888.52 315.433 887.272 315.433H883.84V339.821H887.272Z" fill="white"/>
<path d="M858.402 309.661H864.798V339.821H874.418V345.541H858.402V309.661Z" fill="white"/>
<path d="M836.574 343.358C834.754 341.59 833.87 339.042 833.87 335.662V319.49C833.87 316.11 834.806 313.562 836.73 311.794C838.602 310.026 841.15 309.142 844.27 309.142C847.286 309.142 849.678 310.026 851.498 311.794C853.318 313.562 854.254 316.11 854.254 319.49V335.662C854.254 338.99 853.266 341.538 851.342 343.306C849.418 345.074 846.922 345.958 843.906 345.958C840.786 345.958 838.342 345.126 836.574 343.358ZM846.87 338.834C847.494 337.898 847.858 336.598 847.858 334.934V320.53C847.858 318.71 847.546 317.306 846.922 316.37C846.298 315.434 845.362 314.966 844.114 314.966C842.762 314.966 841.774 315.434 841.15 316.37C840.526 317.306 840.266 318.71 840.266 320.582V334.986C840.266 338.47 841.514 340.238 844.114 340.238C845.31 340.238 846.246 339.77 846.87 338.834Z" fill="white"/>
<path d="M829.712 309.661V345.541H823.316V330.149H816.556V345.541H810.16V309.661H816.556V324.429H823.316V309.661H829.712Z" fill="white"/>
<path d="M780.281 343.202C778.617 341.382 777.733 338.782 777.733 335.35H783.765C783.817 337.118 784.181 338.418 784.805 339.25C785.429 340.082 786.365 340.498 787.613 340.498C788.861 340.498 789.797 340.082 790.369 339.354C790.941 338.574 791.201 337.378 791.201 335.714C791.201 334.31 790.889 333.218 790.265 332.386C789.641 331.554 788.549 330.826 787.041 330.15L784.597 329.058C782.257 328.018 780.593 326.718 779.553 325.21C778.513 323.65 777.993 321.622 777.993 319.074C777.993 316.058 778.877 313.614 780.645 311.846C782.413 310.026 784.753 309.142 787.717 309.142C790.681 309.142 792.969 310.026 794.581 311.794C796.193 313.562 797.025 316.162 797.129 319.542H791.253C791.253 317.878 790.941 316.682 790.421 315.85C789.901 315.018 788.965 314.654 787.717 314.654C785.429 314.654 784.233 316.006 784.233 318.762C784.233 320.01 784.545 320.998 785.117 321.726C785.689 322.454 786.625 323.13 787.977 323.702L790.317 324.742C792.813 325.886 794.633 327.238 795.777 328.902C796.921 330.566 797.441 332.802 797.441 335.558C797.441 338.886 796.609 341.486 794.841 343.254C793.125 345.074 790.681 345.958 787.509 345.958C784.337 345.958 781.945 345.074 780.281 343.202Z" fill="white"/>
<path d="M758.141 343.202C756.477 341.382 755.593 338.782 755.593 335.35H761.625C761.677 337.118 762.041 338.418 762.665 339.25C763.289 340.082 764.225 340.498 765.473 340.498C766.721 340.498 767.657 340.082 768.229 339.354C768.801 338.574 769.061 337.378 769.061 335.714C769.061 334.31 768.749 333.218 768.125 332.386C767.501 331.554 766.409 330.826 764.901 330.15L762.457 329.058C760.117 328.018 758.453 326.718 757.413 325.21C756.373 323.65 755.853 321.622 755.853 319.074C755.853 316.058 756.737 313.614 758.505 311.846C760.273 310.026 762.613 309.142 765.577 309.142C768.541 309.142 770.829 310.026 772.441 311.794C774.053 313.562 774.885 316.162 774.989 319.542H769.113C769.113 317.878 768.801 316.682 768.281 315.85C767.761 315.018 766.825 314.654 765.577 314.654C763.289 314.654 762.093 316.006 762.093 318.762C762.093 320.01 762.405 320.998 762.977 321.726C763.549 322.454 764.485 323.13 765.837 323.702L768.177 324.742C770.673 325.886 772.493 327.238 773.637 328.902C774.781 330.566 775.301 332.802 775.301 335.558C775.301 338.886 774.469 341.486 772.701 343.254C770.985 345.074 768.541 345.958 765.369 345.958C762.197 345.958 759.805 345.074 758.141 343.202Z" fill="white"/>
<path d="M743.633 315.433V324.429H751.953V330.149H743.633V339.821H753.305V345.541H737.289V309.661H753.305V315.433H743.633Z" fill="white"/>
<path d="M722.835 331.137H719.767V345.541H713.371V309.661H723.147C726.683 309.661 729.179 310.545 730.635 312.209C732.091 313.925 732.871 316.629 732.871 320.373C732.871 322.765 732.507 324.793 731.883 326.353C731.207 327.965 730.115 329.161 728.659 329.941L734.015 345.541H727.359L722.835 331.137ZM719.767 325.417H723.095C724.343 325.417 725.227 325.001 725.747 324.169C726.215 323.337 726.475 322.037 726.475 320.373C726.475 318.709 726.215 317.461 725.747 316.629C725.279 315.797 724.395 315.381 723.095 315.381H719.767V325.417Z" fill="white"/>
<path d="M708.036 312.469C709.544 314.341 710.324 317.201 710.324 320.945C710.324 324.793 709.544 327.601 707.984 329.473C706.424 331.345 703.928 332.281 700.496 332.281H697.168V345.541H690.824V309.661H700.496C704.032 309.661 706.528 310.597 708.036 312.469ZM703.096 325.157C703.616 324.273 703.928 322.869 703.928 320.945C703.928 319.073 703.616 317.669 703.096 316.733C702.576 315.849 701.64 315.381 700.288 315.381H697.168V326.509H700.288C701.64 326.509 702.576 326.093 703.096 325.157Z" fill="white"/>
<path d="M681.046 331.553V345.541H674.65V331.449L667.37 309.661H674.39L677.822 323.389L681.254 309.661H688.326L681.046 331.553Z" fill="white"/>
<path d="M647.413 343.358C645.593 341.59 644.709 339.042 644.709 335.662V319.49C644.709 316.11 645.645 313.562 647.569 311.794C649.441 310.026 651.989 309.142 655.109 309.142C658.073 309.142 660.465 310.026 662.337 311.742C664.157 313.51 665.093 316.11 665.093 319.646V320.738H658.697V319.698C658.697 318.086 658.333 316.89 657.657 316.11C656.981 315.33 656.097 314.914 654.953 314.914C653.601 314.914 652.613 315.382 651.989 316.318C651.365 317.254 651.105 318.658 651.105 320.53V334.934C651.105 338.47 652.353 340.186 654.953 340.186C656.097 340.186 656.981 339.822 657.657 338.99C658.333 338.21 658.697 337.014 658.697 335.454V334.518H665.041V335.506C665.041 338.99 664.053 341.59 662.129 343.358C660.205 345.126 657.761 345.958 654.745 345.958C651.625 345.958 649.181 345.126 647.413 343.358Z" fill="white"/>
<path d="M616.477 343.618C614.969 342.058 614.241 339.562 614.241 336.026V327.602C614.241 324.118 614.969 321.57 616.477 320.01C617.933 318.45 620.117 317.67 622.977 317.67C625.785 317.67 627.969 318.45 629.425 320.01C630.881 321.57 631.661 324.118 631.661 327.602V336.026C631.661 339.562 630.881 342.058 629.425 343.618C627.969 345.178 625.785 345.958 622.977 345.958C620.117 345.958 617.933 345.178 616.477 343.618ZM624.953 339.51C625.369 338.782 625.629 337.638 625.629 336.078V327.55C625.629 325.99 625.369 324.898 624.953 324.17C624.485 323.442 623.809 323.078 622.925 323.078C622.041 323.078 621.365 323.442 620.949 324.17C620.481 324.898 620.273 325.99 620.273 327.55V336.078C620.273 337.638 620.481 338.782 620.949 339.51C621.365 340.238 622.041 340.55 622.925 340.55C623.809 340.55 624.485 340.238 624.953 339.51Z" fill="white"/>
<path d="M607.575 322.298V336.65C607.575 338.99 608.719 340.134 611.059 340.134H611.267V345.542H611.059C607.939 345.542 605.547 344.866 603.935 343.514C602.323 342.162 601.543 339.978 601.543 337.014V322.298H598.475V318.086H601.543V313.25L607.575 310.806V318.086H611.943V322.298H607.575Z" fill="white"/>
<path d="M640.459 363.42L640.54 364.518C640.072 364.554 639.415 364.635 638.731 364.734C638.731 365.472 638.713 366.111 638.614 366.561C638.479 367.146 638.047 367.497 637.39 367.497C637.165 367.497 636.661 367.443 636.076 367.137C636.139 366.921 636.175 366.516 636.193 366.219C636.58 366.435 636.976 366.525 637.147 366.525C637.336 366.525 637.516 366.39 637.552 366.192C637.597 365.913 637.615 365.418 637.615 364.896C636.769 365.031 635.932 365.175 635.275 365.292C635.284 366.102 635.302 366.894 635.329 367.29C635.401 368.118 635.743 368.388 636.625 368.424C636.76 368.433 636.931 368.433 637.12 368.433C637.813 368.433 638.803 368.388 639.478 368.262L639.505 369.315C638.803 369.396 637.93 369.423 637.237 369.423C635.743 369.423 634.402 369.342 634.231 367.362C634.186 366.948 634.168 366.237 634.15 365.49C633.628 365.598 632.908 365.733 632.566 365.814L632.395 364.752C632.809 364.689 633.52 364.572 634.141 364.464C634.132 363.69 634.123 362.826 634.123 362.232L635.563 362.34C635.554 362.448 635.482 362.511 635.311 362.547C635.284 362.988 635.293 363.663 635.284 364.266C635.959 364.149 636.787 364.014 637.588 363.879C637.561 363.141 637.525 362.268 637.471 361.638L638.848 361.683C638.848 361.773 638.794 361.836 638.65 361.89C638.686 362.412 638.695 363.096 638.713 363.69C639.343 363.591 639.991 363.483 640.459 363.42Z" fill="white"/>
<path d="M623.611 364.32L623.566 363.24C624.07 363.24 624.826 363.195 625.294 363.114C625.303 362.925 625.33 361.737 625.33 361.566L626.752 361.674C626.725 361.773 626.662 361.845 626.491 361.863C626.455 362.286 626.437 362.592 626.41 362.961L626.86 363.168C626.707 363.447 626.41 364.032 626.302 364.518C627.184 363.897 628.129 363.591 628.903 363.591C630.406 363.591 631.414 364.608 631.414 366.255C631.414 368.226 629.911 369.09 627.607 369.297C627.508 368.991 627.346 368.577 627.184 368.289C629.2 368.073 630.271 367.56 630.271 366.282C630.271 365.391 629.803 364.635 628.804 364.635C628.03 364.635 627.049 365.031 626.284 365.697V367.29C626.284 368.145 626.284 369 626.302 369.549H625.204V366.516C624.934 366.957 624.331 367.668 623.836 368.055L623.314 367.065C623.872 366.588 624.349 366.075 624.709 365.616C624.853 365.418 625.123 364.995 625.222 364.779L625.249 364.149C624.952 364.212 624.25 364.284 623.611 364.32Z" fill="white"/>
<path d="M616.213 365.211V364.563C615.763 364.887 615.286 365.193 614.8 365.454C614.656 365.202 614.359 364.806 614.134 364.59C615.691 363.825 617.185 362.448 617.851 361.332L619.3 361.413C619.273 361.512 619.192 361.575 619.057 361.593C619.93 362.763 621.478 363.897 622.837 364.455C622.576 364.725 622.324 365.094 622.135 365.427C621.676 365.184 621.208 364.896 620.749 364.572V365.211H616.213ZM616.618 364.257H620.317C619.561 363.672 618.877 363.015 618.436 362.412C618.022 363.015 617.374 363.663 616.618 364.257ZM616.681 369.837H615.619V366.111H621.379V369.837H620.272V369.504H616.681V369.837ZM620.272 368.55V367.074H616.681V368.55H620.272Z" fill="white"/>
<path d="M605.845 362.331L607.321 362.601C607.294 362.682 607.195 362.745 607.087 362.754C606.952 363.456 606.853 364.401 606.853 365.229C606.853 367.209 607.429 367.92 607.933 367.92C608.239 367.92 608.617 367.02 608.815 366.273C609.031 366.489 609.472 366.84 609.733 366.993C609.301 368.469 608.716 369.153 607.888 369.153C606.493 369.153 605.809 367.416 605.719 365.949C605.701 365.625 605.683 365.274 605.683 364.905C605.683 364.086 605.737 363.186 605.845 362.331ZM613.54 366.552L612.352 366.948C612.082 365.328 611.335 364.365 610.228 363.708L610.939 362.862C612.208 363.546 613.261 364.788 613.54 366.552Z" fill="white"/>
<path d="M600.139 361.683V365.067H597.736V369.828H596.665V361.683H600.139ZM603.226 362.997V362.502H601.786V362.997H603.226ZM600.76 361.683H604.315V368.532C604.315 369.639 603.892 369.828 602.038 369.828C602.002 369.522 601.831 369.009 601.669 368.721C601.966 368.739 602.281 368.748 602.542 368.748C603.19 368.748 603.226 368.748 603.226 368.514V365.076H600.76V361.683ZM601.786 363.726V364.257H603.226V363.726H601.786ZM599.131 362.997V362.511H597.736V362.997H599.131ZM597.736 363.726V364.248H599.131V363.726H597.736ZM602.191 365.688V368.541H599.68V369.054H598.672V365.688H602.191ZM601.183 367.659V366.579H599.68V367.659H601.183Z" fill="white"/>
<path d="M592.309 362.646L592.453 363.762C592.003 363.897 591.49 363.996 590.896 364.068C590.896 364.491 590.887 364.923 590.887 365.301C591.499 365.121 592.138 365.004 592.606 365.004C594.082 365.004 595.216 365.751 595.216 367.2C595.216 368.505 594.478 369.459 592.939 369.459C592.318 369.459 591.742 369.225 591.256 368.658C591.445 368.424 591.661 368.073 591.814 367.794C592.147 368.199 592.534 368.406 592.948 368.406C593.677 368.406 594.064 367.893 594.064 367.2C594.064 366.48 593.542 365.967 592.579 365.967C592.093 365.976 591.472 366.084 590.887 366.273V368.055C590.887 368.883 590.356 369.612 589.249 369.612C588.466 369.612 587.575 369.171 587.575 368.073C587.575 367.461 587.989 366.831 588.664 366.336C588.988 366.102 589.384 365.877 589.807 365.697V364.158C589.213 364.194 588.547 364.203 587.818 364.203L587.8 363.123C588.547 363.123 589.213 363.114 589.807 363.087V361.557L591.229 361.593C591.229 361.701 591.139 361.782 590.995 361.8C590.968 362.151 590.95 362.565 590.932 362.979C591.436 362.907 591.904 362.799 592.309 362.646ZM595.513 363.672L594.874 364.635C594.388 364.185 593.569 363.717 592.849 363.438L593.398 362.502C594.181 362.772 595.009 363.231 595.513 363.672ZM589.816 368.01C589.816 367.785 589.816 367.254 589.807 366.723C589.285 367.038 588.601 367.443 588.601 368.046C588.601 368.415 588.817 368.649 589.213 368.649C589.582 368.649 589.816 368.442 589.816 368.01Z" fill="white"/>
<path d="M730.76 463.647C731.787 463.647 732.58 464.492 732.58 465.467C732.58 466.468 731.761 467.287 730.76 467.287C729.759 467.287 728.94 466.468 728.94 465.467C728.94 464.466 729.759 463.647 730.76 463.647ZM730.76 466.689C731.475 466.689 731.995 466.117 731.995 465.467C731.995 464.778 731.449 464.232 730.76 464.232C730.084 464.232 729.538 464.778 729.538 465.467C729.538 466.143 730.084 466.689 730.76 466.689Z" fill="white"/>
<path d="M716.977 456.459L719.109 456.849C719.07 456.966 718.927 457.057 718.771 457.07C718.576 458.084 718.433 459.449 718.433 460.645C718.433 463.505 719.265 464.532 719.993 464.532C720.435 464.532 720.981 463.232 721.267 462.153C721.579 462.465 722.216 462.972 722.593 463.193C721.969 465.325 721.124 466.313 719.928 466.313C717.913 466.313 716.925 463.804 716.795 461.685C716.769 461.217 716.743 460.71 716.743 460.177C716.743 458.994 716.821 457.694 716.977 456.459ZM728.092 462.556L726.376 463.128C725.986 460.788 724.907 459.397 723.308 458.448L724.335 457.226C726.168 458.214 727.689 460.008 728.092 462.556Z" fill="white"/>
<path d="M714.195 456.888L714.494 458.539C713.48 458.812 711.946 458.994 710.568 459.111C711.049 460.567 711.66 461.399 712.817 461.932L711.647 463.31C711.153 462.868 710.425 462.387 708.839 462.413L708.41 461.1C708.839 461.1 709.398 461.152 709.736 461.217C709.398 460.762 709.125 460.086 708.865 459.228C708.358 459.267 707.812 459.28 707.149 459.28C706.382 459.28 704.809 459.267 703.938 459.241L703.925 457.694C704.666 457.72 705.628 457.746 707.162 457.746C707.591 457.746 708.085 457.733 708.488 457.694C708.345 456.979 708.228 456.147 708.111 455.302L710.308 455.354C710.295 455.51 710.178 455.64 709.957 455.692C710.009 456.355 710.087 456.953 710.204 457.59C711.504 457.486 713.194 457.2 714.195 456.888ZM712.167 465.156L712.024 466.781C711.374 466.781 710.607 466.794 709.645 466.794C706.486 466.794 704.887 465.585 704.887 463.986C704.887 463.18 705.264 462.53 706.005 461.75L707.253 462.673C706.746 463.115 706.564 463.505 706.564 463.908C706.564 464.883 707.851 465.234 709.684 465.234C710.724 465.234 711.491 465.195 712.167 465.156Z" fill="white"/>
<path d="M700.155 455.483L700.831 454.859C701.442 455.314 702.131 455.977 702.495 456.536L701.767 457.173C701.455 456.718 700.688 455.899 700.155 455.483ZM697.906 456.835L698.218 458.46C697.23 458.785 695.93 458.993 694.656 459.097C694.149 461.827 693.343 464.778 692.42 466.936L690.73 466.338C691.757 464.284 692.511 461.814 692.953 459.188C692.745 459.201 691.822 459.201 691.575 459.201C691.302 459.201 691.042 459.201 690.821 459.188L690.795 457.641C691.211 457.667 691.887 457.667 692.511 457.667C692.719 457.667 692.953 457.654 693.174 457.654C693.278 456.9 693.369 456.003 693.434 455.249L695.553 455.431C695.54 455.587 695.384 455.704 695.189 455.743C695.124 456.211 695.02 456.913 694.929 457.498C695.956 457.368 697.022 457.173 697.906 456.835ZM698.348 456.263L699.024 455.639C699.609 456.081 700.337 456.809 700.701 457.329L699.96 457.966C699.661 457.485 698.842 456.64 698.348 456.263ZM697.1 461.554L696.749 460.15C698.049 459.734 699.869 459.5 701.39 459.513V461.073C699.986 461.034 698.4 461.19 697.1 461.554ZM701.663 465.064L701.689 466.689C701.247 466.715 700.779 466.728 700.311 466.728C699.258 466.728 698.231 466.663 697.581 466.507C696.424 466.234 695.852 465.441 695.865 464.531C695.878 463.907 696.151 463.218 696.697 462.607L698.088 463.114C697.685 463.543 697.49 463.933 697.49 464.258C697.49 464.973 698.153 465.142 699.947 465.142C700.532 465.142 701.156 465.116 701.663 465.064Z" fill="white"/>
<path d="M686.791 465.897L685.127 467.184C684.009 465.884 682.059 464.077 680.122 462.582C679.342 461.971 679.16 461.607 679.16 460.97C679.16 460.541 679.303 460.151 679.771 459.709C681.071 458.5 683.398 456.199 684.399 455.146L686.258 456.342C686.141 456.459 685.985 456.524 685.751 456.485C684.555 457.59 682.722 459.189 681.656 460.177C681.37 460.463 681.071 460.723 681.071 460.905C681.071 461.113 681.396 461.373 681.864 461.698C683.45 462.829 685.257 464.363 686.791 465.897Z" fill="white"/>
<path d="M674.402 456.277L674.649 456.212L675.663 456.758C675.624 456.836 675.559 456.914 675.468 456.953C675.026 458.162 674.376 459.228 673.583 460.138C674.428 460.723 675.403 461.191 676.482 461.49C676.157 461.776 675.728 462.361 675.52 462.738L675.338 462.673V467.249H673.856V466.781H671.204V467.288H669.787V462.92C669.657 462.985 669.527 463.037 669.397 463.089C669.293 462.868 669.085 462.569 668.877 462.296L668.279 462.556C668.24 462.361 668.188 462.14 668.11 461.906L667.421 461.958V467.288H666.056V463.089C665.991 463.18 665.887 463.206 665.783 463.193C665.653 464.259 665.393 465.507 665.029 466.3C664.743 466.118 664.249 465.897 663.937 465.754C664.262 465.039 664.457 463.804 664.574 462.699L666.056 463.05V462.036C665.471 462.075 664.951 462.101 664.522 462.114C664.483 462.244 664.379 462.296 664.288 462.309L663.976 460.749H664.912C665.12 460.489 665.341 460.203 665.549 459.904C665.172 459.332 664.561 458.63 664.015 458.123L664.769 457.057L665.055 457.317C665.432 456.589 665.809 455.718 666.043 455.029L667.564 455.653C667.512 455.731 667.382 455.783 667.213 455.783C666.888 456.498 666.355 457.473 665.9 458.188C666.056 458.37 666.212 458.552 666.342 458.721C666.797 457.98 667.226 457.226 667.538 456.576L669.007 457.239C668.942 457.33 668.812 457.382 668.643 457.382C668.045 458.383 667.135 459.683 666.29 460.723L667.642 460.71C667.499 460.359 667.317 460.021 667.148 459.709L668.266 459.241C668.669 459.93 669.098 460.775 669.332 461.49C670.125 461.139 670.853 460.684 671.516 460.151C671.165 459.774 670.84 459.358 670.554 458.916C670.268 459.267 669.956 459.618 669.605 459.943C669.358 459.618 668.864 459.15 668.526 458.942C669.839 457.811 670.71 456.29 671.165 455.016L672.894 455.289C672.868 455.406 672.751 455.484 672.582 455.497C672.478 455.744 672.348 456.017 672.218 456.277H674.402ZM671.204 463.687V465.429H673.856V463.687H671.204ZM673.596 457.603H671.49L671.373 457.785C671.672 458.292 672.049 458.786 672.491 459.215C672.92 458.734 673.297 458.188 673.596 457.603ZM670.905 462.348H674.532C673.817 462.023 673.167 461.62 672.569 461.152C672.062 461.607 671.503 461.997 670.905 462.348ZM667.473 463.024L668.63 462.647C668.968 463.453 669.319 464.48 669.475 465.169C669.098 465.299 668.721 465.429 668.253 465.598C668.136 464.909 667.785 463.83 667.473 463.024Z" fill="white"/>
<path d="M659.465 465.311H657.944V464.232H654.512V462.958H657.944V462.386H655.24V457.914H657.944V457.381H654.668V456.12H657.944V455.028L659.803 455.119C659.79 455.249 659.699 455.327 659.465 455.366V456.12H662.897V457.381H659.465V457.914H662.299V462.386H659.465V462.958H663.066V464.232H659.465V465.311ZM657.944 459.019H656.683V459.63H657.944V459.019ZM660.791 459.63V459.019H659.465V459.63H660.791ZM656.683 460.657V461.294H657.944V460.657H656.683ZM659.465 461.294H660.791V460.657H659.465V461.294ZM651.223 456.237L652.419 455.353C653.16 455.938 654.07 456.809 654.486 457.433L653.199 458.408C652.835 457.784 651.964 456.874 651.223 456.237ZM651.171 460.111H654.135V464.31C654.915 465.636 656.345 465.636 658.737 465.636C660.284 465.636 662.143 465.597 663.391 465.493C663.209 465.857 662.975 466.572 662.897 467.014C661.909 467.066 660.479 467.092 659.166 467.092C656.163 467.092 654.668 467.092 653.485 465.597C652.965 466.104 652.419 466.598 651.951 466.988C651.964 467.144 651.912 467.196 651.782 467.261L651.015 465.623C651.522 465.285 652.107 464.869 652.64 464.427V461.554H651.171V460.111Z" fill="white"/>
<path d="M643.644 460.021L642.214 459.306C642.656 458.955 643.358 458.448 643.878 458.162V458.149C643.215 458.253 641.369 458.292 640.277 458.279C640.277 457.876 640.264 457.044 640.238 456.68C640.485 456.693 640.797 456.693 641.148 456.693C643.553 456.693 645.854 456.654 647.765 456.303L647.895 457.98C646.036 458.305 644.424 459.384 643.644 460.021ZM650.456 459.514L649.754 460.151C649.429 459.683 648.675 458.877 648.155 458.474L648.831 457.863C649.429 458.318 650.092 459.007 650.456 459.514ZM649.026 460.892L648.298 461.516C647.999 461.035 647.193 460.216 646.712 459.826L647.388 459.215C647.947 459.644 648.662 460.359 649.026 460.892ZM648.441 464.389L648.571 466.066C647.531 466.235 646.023 466.326 644.671 466.326C643.54 466.326 642.513 466.261 641.967 466.144C640.29 465.767 639.575 464.662 639.575 463.479C639.575 462.465 640.095 461.477 640.797 460.749L642.201 461.373C641.603 461.958 641.252 462.608 641.252 463.193C641.252 464.74 643.111 464.74 644.437 464.74C645.724 464.74 647.258 464.623 648.441 464.389Z" fill="white"/>
<path d="M632.919 455.562L635.142 455.653C635.129 455.809 635.025 455.9 634.817 455.965C634.921 456.992 635.038 458.721 635.038 460.372C635.025 462.881 634.219 465.247 630.085 466.95C629.864 466.612 629.253 465.962 628.915 465.65C632.477 464.272 633.231 462.166 633.231 460.398C633.231 458.591 633.062 456.771 632.919 455.562ZM629.292 462.504L627.667 462.764C627.42 461.854 627.329 460.71 627.316 459.943C627.316 458.981 627.42 457.564 627.693 455.991L629.721 456.264C629.682 456.42 629.526 456.472 629.396 456.498C629.11 457.564 628.889 459.436 628.941 460.177C629.188 459.605 629.617 458.877 629.916 458.409C630.085 458.708 630.462 459.241 630.657 459.449C629.825 460.684 629.253 461.646 629.253 462.192C629.253 462.283 629.266 462.387 629.292 462.504Z" fill="white"/>
<path d="M623.312 464.753L622.246 466.287C621.375 465.559 620.127 464.727 619.087 464.246C619.1 464.948 618.892 465.585 618.632 465.936C618.372 466.521 617.605 466.872 616.409 466.898C614.563 466.911 613.068 465.988 613.029 464.532C613.016 462.959 614.563 462.192 616.188 462.166C616.487 462.166 617.033 462.192 617.345 462.244C617.345 462.036 617.306 461.854 617.293 461.672C617.176 459.917 617.02 456.888 617.007 455.367L619.113 455.471C619.113 455.601 619.009 455.718 618.788 455.77C618.775 456.082 618.801 457.629 618.801 457.98C619.594 457.954 621.414 457.785 622.74 457.538L622.896 459.163C621.713 459.358 619.997 459.501 618.814 459.527C618.827 460.437 618.918 461.256 618.944 461.867C618.97 462.062 618.996 462.296 619.009 462.517C620.504 462.998 622.064 463.83 623.312 464.753ZM617.397 463.674C617.007 463.557 616.604 463.505 616.253 463.505C614.888 463.505 614.511 464.051 614.511 464.48C614.524 465.182 615.304 465.468 616.188 465.468C616.955 465.468 617.436 465.065 617.436 464.493C617.436 464.246 617.423 463.947 617.397 463.674Z" fill="white"/>
<path d="M599.665 462.621H603.877V466.599H601.017V467.106H599.665V462.621ZM602.512 465.364V463.856H601.017V465.364H602.512ZM599.782 455.432H603.929V456.615H599.782V455.432ZM606.568 461.594V464.974C606.568 465.52 606.672 465.611 607.296 465.611H609.168C609.766 465.611 609.857 465.312 609.948 463.661C610.286 463.921 610.962 464.181 611.391 464.285C611.196 466.469 610.767 467.093 609.285 467.093H607.114C605.489 467.093 604.995 466.638 604.995 465V460.112H609.116V457.161H604.956V455.679H610.689V462.101H609.116V461.594H606.568ZM604.436 458.422H599.067V457.187H604.436V458.422ZM603.916 460.203H599.704V459.02H603.916V460.203ZM603.916 461.984H599.704V460.814H603.916V461.984Z" fill="white"/>
<path d="M598.014 457.252V458.786H591.358C591.085 459.501 590.76 460.216 590.396 460.892H597.117V467.236H595.466V466.586H590.591V467.301H589.031V462.959C588.459 463.674 587.796 464.311 587.042 464.857C586.808 464.467 586.275 463.869 585.963 463.557C587.627 462.426 588.784 460.684 589.564 458.786H586.418V457.252H590.123C590.357 456.498 590.539 455.744 590.682 455.016L592.671 455.458C592.632 455.575 592.502 455.666 592.294 455.666C592.177 456.186 592.034 456.719 591.865 457.252H598.014ZM595.466 465.065V462.413H590.591V465.065H595.466Z" fill="white"/>
<path d="M989.859 438.647C990.886 438.647 991.679 439.492 991.679 440.467C991.679 441.468 990.86 442.287 989.859 442.287C988.858 442.287 988.039 441.468 988.039 440.467C988.039 439.466 988.858 438.647 989.859 438.647ZM989.859 441.689C990.574 441.689 991.094 441.117 991.094 440.467C991.094 439.778 990.548 439.232 989.859 439.232C989.183 439.232 988.637 439.778 988.637 440.467C988.637 441.143 989.183 441.689 989.859 441.689Z" fill="white"/>
<path d="M976.433 430.757L978.578 431.056C978.552 431.199 978.435 431.29 978.175 431.303C977.681 433.604 977.486 435.931 977.486 437.023C977.486 437.764 977.499 438.414 977.577 438.856C977.733 438.479 978.24 437.374 978.409 436.958L979.176 438.154C978.747 439.064 978.292 439.779 978.097 440.403C978.032 440.624 977.993 440.832 977.993 441.027C977.993 441.183 978.019 441.339 978.058 441.482L976.42 441.729C976.004 440.481 975.822 438.817 975.822 437.088C975.822 435.32 976.095 432.902 976.433 430.757ZM980.489 433.929L980.437 432.356C981.919 432.317 984.363 432.148 985.936 431.875L986.079 433.487C984.519 433.734 982.01 433.903 980.489 433.929ZM986.43 439.129L986.378 440.767C985.897 440.793 985.377 440.806 984.883 440.806C984.051 440.806 983.258 440.767 982.673 440.689C980.866 440.442 980.138 439.48 980.138 438.375C980.138 437.439 980.567 436.633 981.256 435.788L982.816 436.321C982.231 436.893 981.854 437.491 981.854 438.141C981.854 439.116 983.024 439.22 984.571 439.22C985.195 439.22 985.871 439.194 986.43 439.129Z" fill="white"/>
<path d="M972.689 430.626L972.949 430.574L973.924 430.977C973.898 431.068 973.846 431.12 973.794 431.172C973.391 432.524 972.728 433.629 971.857 434.526C972.572 435.007 973.417 435.371 974.366 435.592C974.054 435.878 973.625 436.476 973.43 436.866C972.39 436.567 971.493 436.099 970.739 435.514C969.933 436.086 969.023 436.541 968.022 436.879C967.866 436.554 967.58 436.099 967.32 435.787V438.062H965.487V438.842H967.645V440.207H965.487V442.287H964.096V440.207H961.912V438.842H964.096V438.062H962.328V433.317H964.096V432.628H962.042V431.276H964.096V430.028L965.812 430.132C965.799 430.249 965.708 430.314 965.487 430.353V431.276H967.489V432.628H965.487V433.317H967.32V435.605C968.178 435.358 968.984 434.981 969.686 434.487C969.14 433.837 968.711 433.096 968.36 432.251L969.413 431.965H967.866V430.626H972.689ZM964.252 434.409H963.459V435.176H964.252V434.409ZM965.305 435.176H966.15V434.409H965.305V435.176ZM964.252 436.203H963.459V436.983H964.252V436.203ZM965.305 436.983H966.15V436.203H965.305V436.983ZM971.883 431.965H969.686C969.946 432.563 970.31 433.096 970.752 433.577C971.207 433.109 971.584 432.563 971.883 431.965ZM973.625 438.972H971.597V440.636H974.197V442.001H967.372V440.636H970.05V438.972H968.035V437.659H970.05V436.203L971.935 436.307C971.922 436.424 971.831 436.515 971.597 436.554V437.659H973.625V438.972Z" fill="white"/>
<path d="M951.902 434.462V433.318C951.486 433.994 951.018 434.605 950.524 435.112H958.987C958.961 438.271 959.13 440.754 959.897 440.754C960.092 440.741 960.144 440.052 960.17 438.986C960.469 439.35 960.859 439.74 961.184 439.961C961.067 441.599 960.781 442.301 959.78 442.301C957.869 442.301 957.479 439.792 957.401 436.425H950.355V435.268L950.186 435.424C949.887 435.151 949.263 434.709 948.873 434.488C950.108 433.526 951.109 431.771 951.616 429.964L953.488 430.458C953.436 430.562 953.319 430.627 953.124 430.627C953.059 430.848 952.981 431.056 952.89 431.277H960.677V432.577H952.318L951.967 433.201H959.481V434.462H951.902ZM950.381 437.946L951.499 436.919C952.175 437.283 952.942 437.712 953.696 438.193C954.151 437.66 954.541 437.088 954.853 436.49L956.569 437.14C956.517 437.244 956.387 437.309 956.192 437.283C955.841 437.894 955.425 438.479 954.957 439.012C955.789 439.597 956.543 440.182 957.05 440.702L955.802 441.885C955.334 441.378 954.632 440.78 953.839 440.182C952.812 441.118 951.642 441.898 950.394 442.47C950.16 442.158 949.653 441.586 949.328 441.313C950.498 440.832 951.629 440.143 952.591 439.298C951.85 438.804 951.083 438.336 950.381 437.946Z" fill="white"/>
<path d="M943.27 431.914L943.478 433.526C942.828 433.721 942.087 433.864 941.229 433.968C941.229 434.579 941.216 435.203 941.216 435.749C942.1 435.489 943.023 435.32 943.699 435.32C945.831 435.32 947.469 436.399 947.469 438.492C947.469 440.377 946.403 441.755 944.18 441.755C943.283 441.755 942.451 441.417 941.749 440.598C942.022 440.26 942.334 439.753 942.555 439.35C943.036 439.935 943.595 440.234 944.193 440.234C945.246 440.234 945.805 439.493 945.805 438.492C945.805 437.452 945.051 436.711 943.66 436.711C942.958 436.724 942.061 436.88 941.216 437.153V439.727C941.216 440.923 940.449 441.976 938.85 441.976C937.719 441.976 936.432 441.339 936.432 439.753C936.432 438.869 937.03 437.959 938.005 437.244C938.473 436.906 939.045 436.581 939.656 436.321V434.098C938.798 434.15 937.836 434.163 936.783 434.163L936.757 432.603C937.836 432.603 938.798 432.59 939.656 432.551V430.341L941.71 430.393C941.71 430.549 941.58 430.666 941.372 430.692C941.333 431.199 941.307 431.797 941.281 432.395C942.009 432.291 942.685 432.135 943.27 431.914ZM947.898 433.396L946.975 434.787C946.273 434.137 945.09 433.461 944.05 433.058L944.843 431.706C945.974 432.096 947.17 432.759 947.898 433.396ZM939.669 439.662C939.669 439.337 939.669 438.57 939.656 437.803C938.902 438.258 937.914 438.843 937.914 439.714C937.914 440.247 938.226 440.585 938.798 440.585C939.331 440.585 939.669 440.286 939.669 439.662Z" fill="white"/>
<path d="M927.631 435.021L927.605 433.526C928.554 433.565 929.516 433.526 930.465 433.487C930.413 432.473 930.374 431.589 930.361 430.627L932.428 430.692C932.402 430.822 932.311 430.939 932.103 430.978L932.116 433.357C933 433.253 933.754 433.097 934.378 432.915L934.508 434.501C933.936 434.67 933.117 434.8 932.168 434.865C932.207 436.035 932.272 437.231 932.324 438.076C933.221 438.466 934.092 438.999 934.742 439.571L933.897 441.105C933.481 440.65 932.948 440.208 932.376 439.87C932.207 441.521 931.011 441.794 929.906 441.794C928.307 441.794 927.345 440.923 927.345 439.714C927.345 438.349 928.606 437.595 929.932 437.595C930.179 437.595 930.439 437.621 930.712 437.66C930.66 436.971 930.608 435.931 930.556 434.982C930.179 435.008 929.724 435.021 929.438 435.021H927.631ZM925.707 441.456L924.147 441.547C923.783 440.546 923.614 438.362 923.614 436.581C923.614 434.683 923.9 432.72 924.277 430.692L926.318 431.082C926.292 431.212 926.123 431.316 925.954 431.342C925.161 434.163 925.161 436.165 925.161 437.66C925.161 438.102 925.161 438.505 925.2 438.726C925.382 438.219 925.798 437.153 926.006 436.659L926.851 437.738C926.513 438.388 926.032 439.48 925.772 440.208C925.681 440.442 925.642 440.65 925.642 440.897C925.642 441.066 925.655 441.248 925.707 441.456ZM930.855 439.441C930.855 439.35 930.855 439.194 930.842 439.077C930.582 438.986 930.231 438.921 929.945 438.921C929.308 438.921 928.697 439.129 928.697 439.688C928.697 440.182 929.243 440.429 929.906 440.429C930.543 440.429 930.868 440.039 930.855 439.441Z" fill="white"/>
<path d="M921.82 433.032L921.937 434.618C921.261 434.67 920.312 434.787 919.324 434.93C919.324 435.996 919.298 436.919 919.155 437.569C918.96 438.414 918.336 438.921 917.387 438.921C917.062 438.921 916.334 438.843 915.489 438.401C915.58 438.089 915.632 437.504 915.658 437.075C916.217 437.387 916.789 437.517 917.036 437.517C917.309 437.517 917.569 437.322 917.621 437.036C917.686 436.633 917.712 435.918 917.712 435.164C916.49 435.359 915.281 435.567 914.332 435.736C914.345 436.906 914.371 438.05 914.41 438.622C914.514 439.818 915.008 440.208 916.282 440.26C916.477 440.273 916.724 440.273 916.997 440.273C917.998 440.273 919.428 440.208 920.403 440.026L920.442 441.547C919.428 441.664 918.167 441.703 917.166 441.703C915.008 441.703 913.071 441.586 912.824 438.726C912.759 438.128 912.733 437.101 912.707 436.022C911.953 436.178 910.913 436.373 910.419 436.49L910.172 434.956C910.77 434.865 911.797 434.696 912.694 434.54C912.681 433.422 912.668 432.174 912.668 431.316L914.748 431.472C914.735 431.628 914.631 431.719 914.384 431.771C914.345 432.408 914.358 433.383 914.345 434.254C915.32 434.085 916.516 433.89 917.673 433.695C917.634 432.629 917.582 431.368 917.504 430.458L919.493 430.523C919.493 430.653 919.415 430.744 919.207 430.822C919.259 431.576 919.272 432.564 919.298 433.422C920.208 433.279 921.144 433.123 921.82 433.032Z" fill="white"/>
<path d="M897.484 434.332L897.419 432.772C898.147 432.772 899.239 432.707 899.915 432.59C899.928 432.317 899.967 430.601 899.967 430.354L902.021 430.51C901.982 430.653 901.891 430.757 901.644 430.783C901.592 431.394 901.566 431.836 901.527 432.369L902.177 432.668C901.956 433.071 901.527 433.916 901.371 434.618C902.645 433.721 904.01 433.279 905.128 433.279C907.299 433.279 908.755 434.748 908.755 437.127C908.755 439.974 906.584 441.222 903.256 441.521C903.113 441.079 902.879 440.481 902.645 440.065C905.557 439.753 907.104 439.012 907.104 437.166C907.104 435.879 906.428 434.787 904.985 434.787C903.867 434.787 902.45 435.359 901.345 436.321V438.622C901.345 439.857 901.345 441.092 901.371 441.885H899.785V437.504C899.395 438.141 898.524 439.168 897.809 439.727L897.055 438.297C897.861 437.608 898.55 436.867 899.07 436.204C899.278 435.918 899.668 435.307 899.811 434.995L899.85 434.085C899.421 434.176 898.407 434.28 897.484 434.332Z" fill="white"/>
<path d="M886.798 435.619V434.683C886.148 435.151 885.459 435.593 884.757 435.97C884.549 435.606 884.12 435.034 883.795 434.722C886.044 433.617 888.202 431.628 889.164 430.016L891.257 430.133C891.218 430.276 891.101 430.367 890.906 430.393C892.167 432.083 894.403 433.721 896.366 434.527C895.989 434.917 895.625 435.45 895.352 435.931C894.689 435.58 894.013 435.164 893.35 434.696V435.619H886.798ZM887.383 434.241H892.726C891.634 433.396 890.646 432.447 890.009 431.576C889.411 432.447 888.475 433.383 887.383 434.241ZM887.474 442.301H885.94V436.919H894.26V442.301H892.661V441.82H887.474V442.301ZM892.661 440.442V438.31H887.474V440.442H892.661Z" fill="white"/>
<path d="M871.822 431.459L873.954 431.849C873.915 431.966 873.772 432.057 873.616 432.07C873.421 433.084 873.278 434.449 873.278 435.645C873.278 438.505 874.11 439.532 874.838 439.532C875.28 439.532 875.826 438.232 876.112 437.153C876.424 437.465 877.061 437.972 877.438 438.193C876.814 440.325 875.969 441.313 874.773 441.313C872.758 441.313 871.77 438.804 871.64 436.685C871.614 436.217 871.588 435.71 871.588 435.177C871.588 433.994 871.666 432.694 871.822 431.459ZM882.937 437.556L881.221 438.128C880.831 435.788 879.752 434.397 878.153 433.448L879.18 432.226C881.013 433.214 882.534 435.008 882.937 437.556Z" fill="white"/>
<path d="M863.58 430.522V435.41H860.109V442.287H858.562V430.522H863.58ZM868.039 432.42V431.705H865.959V432.42H868.039ZM864.477 430.522H869.612V440.415C869.612 442.014 869.001 442.287 866.323 442.287C866.271 441.845 866.024 441.104 865.79 440.688C866.219 440.714 866.674 440.727 867.051 440.727C867.987 440.727 868.039 440.727 868.039 440.389V435.423H864.477V430.522ZM865.959 433.473V434.24H868.039V433.473H865.959ZM862.124 432.42V431.718H860.109V432.42H862.124ZM860.109 433.473V434.227H862.124V433.473H860.109ZM866.544 436.307V440.428H862.917V441.169H861.461V436.307H866.544ZM865.088 439.154V437.594H862.917V439.154H865.088Z" fill="white"/>
<path d="M852.27 431.914L852.478 433.526C851.828 433.721 851.087 433.864 850.229 433.968C850.229 434.579 850.216 435.203 850.216 435.749C851.1 435.489 852.023 435.32 852.699 435.32C854.831 435.32 856.469 436.399 856.469 438.492C856.469 440.377 855.403 441.755 853.18 441.755C852.283 441.755 851.451 441.417 850.749 440.598C851.022 440.26 851.334 439.753 851.555 439.35C852.036 439.935 852.595 440.234 853.193 440.234C854.246 440.234 854.805 439.493 854.805 438.492C854.805 437.452 854.051 436.711 852.66 436.711C851.958 436.724 851.061 436.88 850.216 437.153V439.727C850.216 440.923 849.449 441.976 847.85 441.976C846.719 441.976 845.432 441.339 845.432 439.753C845.432 438.869 846.03 437.959 847.005 437.244C847.473 436.906 848.045 436.581 848.656 436.321V434.098C847.798 434.15 846.836 434.163 845.783 434.163L845.757 432.603C846.836 432.603 847.798 432.59 848.656 432.551V430.341L850.71 430.393C850.71 430.549 850.58 430.666 850.372 430.692C850.333 431.199 850.307 431.797 850.281 432.395C851.009 432.291 851.685 432.135 852.27 431.914ZM856.898 433.396L855.975 434.787C855.273 434.137 854.09 433.461 853.05 433.058L853.843 431.706C854.974 432.096 856.17 432.759 856.898 433.396ZM848.669 439.662C848.669 439.337 848.669 438.57 848.656 437.803C847.902 438.258 846.914 438.843 846.914 439.714C846.914 440.247 847.226 440.585 847.798 440.585C848.331 440.585 848.669 440.286 848.669 439.662Z" fill="white"/>
<path d="M837.567 432.746L839.192 433.11C839.14 433.227 838.984 433.331 838.802 433.331C838.269 437.777 836.969 440.351 834.733 440.351C833.316 440.351 832.289 439.155 832.289 436.945C832.289 433.617 834.941 431.173 838.256 431.173C841.935 431.173 843.82 433.357 843.82 436.178C843.82 439.233 842.247 440.819 838.971 441.651C838.724 441.261 838.36 440.715 837.931 440.273C840.895 439.688 842.078 438.271 842.078 436.204C842.078 434.111 840.622 432.694 838.23 432.694C837.996 432.694 837.788 432.72 837.567 432.746ZM834.785 438.739C836.059 438.739 836.904 435.892 837.125 432.85C835.149 433.318 833.888 435.021 833.888 436.88C833.888 437.972 834.213 438.739 834.785 438.739Z" fill="white"/>
<path d="M820.264 437.777L818.925 436.126C819.666 435.411 821.109 433.89 821.746 433.227C822.539 432.395 823.124 432.122 823.8 432.122C824.736 432.122 825.334 432.577 826.244 433.695C827.18 434.865 829.351 437.257 831.249 439.025L829.988 440.507C828.298 438.947 826.218 436.516 825.425 435.489C824.58 434.397 824.242 433.89 823.787 433.89C823.397 433.89 823.007 434.332 822.266 435.229C821.837 435.736 820.979 436.737 820.459 437.322C820.472 437.582 820.381 437.686 820.264 437.777Z" fill="white"/>
<path d="M810.566 432.381L811.593 432.953C811.554 433.044 811.476 433.109 811.372 433.148C810.982 434.162 810.423 435.163 809.76 436.073C810.397 436.515 811.476 437.308 811.775 437.542L810.865 438.829C810.566 438.465 810.059 437.958 809.565 437.503V442.3H808.018V438.075C807.511 438.556 806.991 438.959 806.458 439.297C806.328 438.894 805.951 438.127 805.704 437.828C807.199 436.996 808.629 435.501 809.5 433.85H806.107V432.446H808.018V430.028L809.916 430.132C809.903 430.262 809.799 430.34 809.565 430.379V432.446H810.332L810.566 432.381ZM815.506 435.579V440.376H818.301V441.91H810.865V440.376H813.894V435.579H811.398V434.071H813.894V430.145L815.857 430.262C815.844 430.392 815.74 430.47 815.506 430.509V434.071H817.989V435.579H815.506Z" fill="white"/>
<path d="M802.103 435.398H795.993V434.436C795.291 434.917 794.537 435.372 793.757 435.736C793.575 435.385 793.172 434.774 792.847 434.462C795.109 433.461 797.241 431.576 798.203 430.016L800.309 430.12C800.27 430.25 800.153 430.354 799.971 430.38C801.18 432.005 803.364 433.474 805.34 434.189C804.95 434.579 804.599 435.138 804.326 435.619C803.598 435.281 802.831 434.839 802.103 434.345V435.398ZM796.617 433.968H801.57C800.556 433.214 799.633 432.356 799.035 431.537C798.476 432.33 797.631 433.188 796.617 433.968ZM796.695 437.933H793.666V436.477H804.521V437.933H798.411L798.801 438.063C798.749 438.167 798.619 438.219 798.411 438.219C798.138 438.856 797.761 439.597 797.371 440.286C798.658 440.26 800.062 440.221 801.466 440.182C801.024 439.675 800.556 439.181 800.101 438.765L801.479 438.05C802.649 439.064 803.871 440.429 804.482 441.417L803.026 442.301C802.883 442.041 802.688 441.755 802.467 441.443C799.529 441.625 796.513 441.781 794.524 441.872C794.498 441.989 794.394 442.067 794.277 442.08L793.731 440.364C794.277 440.351 794.927 440.351 795.655 440.325C796.032 439.597 796.409 438.713 796.695 437.933Z" fill="white"/>
<path d="M791.937 432.252V433.773H788.401C788.648 437.426 789.428 440.611 790.377 440.624C790.663 440.624 790.845 439.896 790.897 438.245C791.261 438.622 791.82 439.038 792.262 439.207C792.015 441.716 791.482 442.301 790.234 442.301C787.985 442.288 787.036 438.323 786.724 433.773H780.185V432.252H786.646C786.62 431.524 786.607 430.796 786.607 430.081L788.713 430.198C788.713 430.341 788.596 430.432 788.336 430.471C788.323 431.069 788.323 431.654 788.336 432.252H790.403C790.039 431.81 789.389 431.251 788.856 430.861L789.883 430.003C790.481 430.419 791.248 431.017 791.612 431.459L790.702 432.252H791.937ZM786.269 436.724H784.215V439.701C785.021 439.558 785.866 439.402 786.672 439.246L786.776 440.624C784.67 441.105 782.421 441.573 780.991 441.859C780.965 441.989 780.861 442.067 780.757 442.093L780.185 440.364C780.861 440.26 781.719 440.13 782.668 439.961V436.724H780.666V435.268H786.269V436.724Z" fill="white"/>
<path d="M770.201 434.163V434.826C770.565 435.307 771.605 436.88 771.839 437.244L770.981 438.414C770.812 437.985 770.513 437.361 770.201 436.776V442.275H768.758V437.335C768.394 438.375 767.965 439.324 767.497 439.987C767.367 439.558 767.016 438.947 766.782 438.57C767.562 437.53 768.277 435.736 768.641 434.163H767.107V432.72H768.758V430.016L770.539 430.12C770.526 430.237 770.435 430.315 770.201 430.354V432.72H771.631V434.163H770.201ZM779.067 435.424V436.867H776.857C777.559 438.076 778.521 439.298 779.392 440.052C779.028 440.325 778.495 440.871 778.222 441.287C777.533 440.533 776.792 439.428 776.181 438.271V442.275H774.634V438.414C773.932 439.649 773.061 440.754 772.164 441.495C771.917 441.131 771.423 440.572 771.072 440.286C772.19 439.519 773.282 438.232 774.01 436.867H771.618V435.424H774.634V433.643H773.412C773.23 434.202 773.035 434.735 772.788 435.177C772.463 434.969 771.891 434.67 771.54 434.54C772.125 433.461 772.489 431.732 772.645 430.471L774.361 430.835C774.322 430.926 774.218 431.004 774.049 431.004C773.984 431.355 773.893 431.771 773.802 432.213H774.634V430.016L776.532 430.12C776.519 430.25 776.415 430.328 776.181 430.38V432.213H778.703V433.643H776.181V435.424H779.067Z" fill="white"/>
<path d="M762.674 431.186L763.961 431.888C763.922 431.992 763.831 432.07 763.727 432.109C762.999 433.786 762.323 434.995 761.296 436.412C762.57 437.452 764.481 439.181 765.638 440.416L764.195 441.69C763.181 440.481 761.322 438.622 760.23 437.699C759.008 439.077 757.318 440.663 755.628 441.677C755.368 441.326 754.796 440.728 754.419 440.429C757.656 438.674 760.295 435.554 761.465 432.837H755.602V431.277H762.401L762.674 431.186Z" fill="white"/>
<path d="M751.436 430.314L752.125 429.69C752.697 430.145 753.386 430.86 753.763 431.367L753.009 431.991C752.71 431.549 751.969 430.756 751.436 430.314ZM749.369 430.665L750.058 430.041C750.63 430.483 751.332 431.224 751.709 431.718L750.968 432.368C750.63 431.874 749.863 431.068 749.369 430.665ZM750.682 432.524L752.034 433.304C751.982 433.408 751.852 433.499 751.748 433.551C750.227 438.023 748.199 440.363 744.858 442.053C744.598 441.676 744.117 441.13 743.649 440.792C746.717 439.336 748.589 437.295 749.629 434.162H745.95C745.287 435.15 744.351 436.203 743.272 437.048C742.96 436.723 742.375 436.268 741.946 435.995C743.649 434.825 745.196 432.628 745.963 430.366L748.03 430.847C747.978 430.99 747.809 431.068 747.614 431.081C747.393 431.549 747.094 432.199 746.86 432.628H750.435L750.682 432.524Z" fill="white"/>
<path d="M729.372 432.693L730.139 431.276C731.439 431.679 732.999 432.368 733.948 432.992L733.09 434.474C732.154 433.85 730.62 433.135 729.372 432.693ZM730.88 441.741L729.697 440.077C734.078 438.725 737.094 436.177 738.602 432.602C739.083 432.992 739.642 433.304 740.123 433.564C738.511 437.113 735.404 439.882 731.101 441.403C731.075 441.546 730.997 441.689 730.88 441.741Z" fill="white"/>
<path d="M724.133 432.732L725.537 433.707C725.459 433.798 725.329 433.824 725.147 433.798C724.341 434.591 723.288 435.397 722.378 436.086C722.521 436.138 722.638 436.177 722.729 436.216C722.69 436.307 722.586 436.385 722.43 436.411V441.962H721.052V436.931C720.116 437.568 718.4 438.595 717.282 439.102C717.113 438.816 716.749 438.322 716.489 438.088C720.701 436.151 723.314 433.642 724.133 432.732Z" fill="white"/>
<path d="M715.423 431.498L714.656 432.044C714.383 431.55 713.759 430.692 713.278 430.211L713.98 429.678C714.487 430.185 715.111 430.978 715.423 431.498ZM713.616 431.823L712.836 432.395C712.693 432.096 712.446 431.719 712.186 431.368V432.551H705.049V431.03H711.913C711.757 430.835 711.588 430.653 711.445 430.523L712.186 429.977C712.693 430.471 713.304 431.29 713.616 431.823ZM708.403 436.035H703.853V434.514H714.123V436.035H710.184L710.444 436.113C710.418 436.204 710.314 436.282 710.145 436.282C709.807 438.336 708.806 440.65 706.245 441.95C705.998 441.677 705.322 441.118 704.971 440.871C707.454 439.597 708.169 437.946 708.403 436.035Z" fill="white"/>
<path d="M697.21 431.107V439.193C698.952 438.231 700.018 436.476 700.603 434.461C700.941 434.747 701.682 435.163 702.072 435.358C701.136 438.049 699.615 439.947 696.859 441.312C696.794 441.442 696.664 441.572 696.56 441.637L695.338 440.207L695.546 439.934V430.691L697.574 430.795C697.548 430.938 697.457 431.068 697.21 431.107ZM691.841 432.303L693.869 432.433C693.856 432.576 693.739 432.693 693.531 432.719C693.466 436.45 693.115 439.466 691.334 441.871C690.957 441.624 690.333 441.26 689.878 441.026C691.607 439.011 691.841 435.631 691.841 432.303Z" fill="white"/>
<path d="M677.541 437.023L677.437 435.138H688.292V436.776H677.983C677.905 436.906 677.723 436.997 677.541 437.023Z" fill="white"/>
<path d="M674.863 434.514H670.781V439.883C670.781 440.728 670.469 441.261 669.923 441.534C669.377 441.833 668.662 441.833 667.349 441.82C667.271 441.404 667.089 440.78 666.907 440.325C667.479 440.351 668.389 440.351 668.649 440.351C669 440.351 669.117 440.195 669.117 439.909V434.514H665.022V432.967H669.117V430.51L671.158 430.601C671.145 430.757 671.028 430.887 670.781 430.913V432.967H674.863V434.514ZM671.756 436.425L673.095 435.736C674.018 436.789 675.019 438.258 675.604 439.324L674.122 440.182C673.628 439.09 672.523 437.335 671.756 436.425ZM666.452 435.853L667.934 436.412C667.336 437.907 666.595 439.233 665.659 440.169L664.294 439.337C665.165 438.505 665.932 437.335 666.452 435.853Z" fill="white"/>
<path d="M656.949 434.487C657.885 434.487 658.613 435.267 658.613 436.151C658.613 437.061 657.859 437.815 656.949 437.815C656.039 437.815 655.285 437.061 655.285 436.151C655.285 435.241 656.039 434.487 656.949 434.487Z" fill="white"/>
<path d="M646.575 431.186L647.862 431.888C647.823 431.992 647.732 432.07 647.628 432.109C646.9 433.786 646.224 434.995 645.197 436.412C646.471 437.452 648.382 439.181 649.539 440.416L648.096 441.69C647.082 440.481 645.223 438.622 644.131 437.699C642.909 439.077 641.219 440.663 639.529 441.677C639.269 441.326 638.697 440.728 638.32 440.429C641.557 438.674 644.196 435.554 645.366 432.837H639.503V431.277H646.302L646.575 431.186Z" fill="white"/>
<path d="M628.947 431.238V439.584C631.768 438.765 634.186 437.114 635.564 434.722C635.85 435.112 636.435 435.632 636.747 435.918C635.083 438.635 632.015 440.546 628.219 441.521C628.18 441.638 628.076 441.781 627.946 441.833L627.036 440.325L627.231 440V430.809L629.35 430.913C629.337 431.069 629.22 431.199 628.947 431.238Z" fill="white"/>
<path d="M621.615 431.16C621.615 430.354 622.278 429.756 623.019 429.756C623.799 429.756 624.423 430.38 624.423 431.16C624.423 431.927 623.799 432.564 623.019 432.564C622.252 432.564 621.615 431.927 621.615 431.16ZM623.019 432.07C623.552 432.07 623.929 431.641 623.929 431.16C623.929 430.653 623.526 430.25 623.019 430.25C622.525 430.25 622.109 430.653 622.109 431.16C622.109 431.667 622.525 432.07 623.019 432.07ZM613.061 433.513V431.927H621.186L621.303 431.862L622.746 432.889C622.681 432.954 622.616 433.019 622.512 433.071C621.355 437.933 619.145 440.286 615.167 441.846C614.933 441.43 614.452 440.819 614.127 440.481C617.65 439.168 619.847 436.906 620.523 433.513H613.061Z" fill="white"/>
<path d="M608.55 430.432L610.188 431.628C610.11 431.732 609.98 431.784 609.772 431.771C608.758 432.759 607.497 433.812 606.262 434.722C606.405 434.761 606.548 434.826 606.678 434.865C606.639 434.982 606.522 435.086 606.301 435.112V441.898H604.572V435.788C603.415 436.568 601.686 437.53 600.256 438.219C600.048 437.855 599.606 437.257 599.268 436.958C602.661 435.45 606.561 432.746 608.55 430.432Z" fill="white"/>
<path d="M597.858 433.188V434.748H595.453V435.32C595.453 438.037 594.543 440.403 591.371 441.911C591.072 441.573 590.578 441.079 590.175 440.78C593.152 439.441 593.802 437.465 593.802 435.333V434.748H590.448V437.686H588.81V434.748H586.561V433.188H588.81V430.588L590.838 430.718C590.825 430.848 590.695 431.004 590.448 431.043V433.188H593.802V430.419L595.843 430.536C595.83 430.679 595.7 430.796 595.453 430.835V433.188H597.858Z" fill="white"/>
</svg>
