<svg width="315" height="67" viewBox="0 0 315 67" fill="none" xmlns="http://www.w3.org/2000/svg">
<path fill-rule="evenodd" clip-rule="evenodd" d="M310.43 0C312.629 0 314.413 1.78327 314.413 3.98297V62.9566C314.413 65.1563 312.629 66.9396 310.43 66.9396H3.98298C1.78335 66.9396 0 65.1564 0 62.9566V3.98297C0 1.78327 1.78335 0 3.98298 0H310.43V0Z" fill="white"/>
<path d="M42.8623 33.5979C42.8623 31.3389 44.6893 29.5479 46.9123 29.5479C49.1533 29.5479 50.9623 31.3569 50.9623 33.5979C50.9623 35.8389 49.1533 37.6479 46.9123 37.6479C44.6713 37.6479 42.8623 35.8389 42.8623 33.5979Z" fill="#1A1311"/>
<path d="M164.225 32.942V32.956C164.995 32.62 166.087 32.438 166.899 32.438C169.027 32.438 170.497 33.74 170.497 35.938C170.497 38.444 168.313 39.9 165.261 39.9C163.455 39.9 162.181 39.074 162.181 37.66C162.181 36.526 163.329 35.602 164.645 35.602C166.129 35.602 167.249 36.596 167.487 37.814C168.173 37.478 168.649 36.82 168.649 35.952C168.649 34.748 167.655 33.978 166.241 33.978C164.337 33.978 162.573 34.776 161.579 35.714C161.243 36.022 160.683 36.582 160.319 36.988L159.073 35.742C160.067 34.748 163.595 31.402 165.471 29.666C164.785 29.764 162.363 29.89 161.243 29.96C161.201 30.058 161.033 30.142 160.907 30.17L160.753 28.196C162.545 28.196 166.493 28.042 167.417 27.888L167.627 27.79L168.761 29.218C168.677 29.302 168.509 29.358 168.355 29.372C167.627 29.904 165.373 31.92 164.225 32.942ZM163.623 37.66C163.623 38.318 164.505 38.374 164.967 38.374C165.205 38.374 165.639 38.332 165.821 38.29C165.723 37.548 165.135 37.016 164.505 37.016C164.043 37.016 163.623 37.254 163.623 37.66Z" fill="#1A1311"/>
<path d="M145.207 30.9675L145.165 29.3575C146.047 29.3295 147.279 29.3155 148.371 29.2875C149.029 29.2595 150.023 29.2315 151.031 29.2035C151.031 28.9935 151.003 27.8595 150.947 27.2295L153.257 27.3415C153.243 27.4535 153.103 27.6075 152.879 27.6495C152.865 27.9855 152.879 28.5875 152.893 29.1615C154.727 29.1055 156.561 29.0635 157.317 29.0495V30.7015C156.911 30.6875 156.379 30.6875 155.777 30.6875C154.937 30.6875 153.943 30.7015 152.907 30.7295L152.991 33.2215C153.187 33.7815 153.201 34.4395 153.201 34.8175C153.201 35.4755 153.117 36.2035 152.907 36.6655C152.333 38.1215 151.059 39.4655 148.945 40.2495C148.651 39.8295 148.049 39.1995 147.643 38.8635C149.155 38.3455 150.303 37.6175 150.793 36.7495H150.779C150.611 36.9035 150.289 37.0155 150.009 37.0155C148.763 37.0155 147.517 36.0215 147.517 34.4675C147.503 32.8715 148.819 31.7515 150.219 31.7515C150.541 31.7515 150.863 31.8355 151.129 31.9615C151.129 31.8215 151.101 31.0515 151.087 30.7715C150.051 30.7855 145.431 30.9535 145.207 30.9675ZM150.247 35.6575C150.947 35.6575 151.367 35.1255 151.367 34.4255C151.367 34.1175 151.367 33.1375 150.303 33.1375C149.645 33.1515 149.113 33.6275 149.099 34.4535C149.099 35.1675 149.659 35.6575 150.247 35.6575Z" fill="#1A1311"/>
<path d="M143.471 30.3374L143.597 32.0454C142.869 32.1014 141.847 32.2274 140.783 32.3814C140.783 33.5294 140.755 34.5234 140.601 35.2234C140.391 36.1334 139.719 36.6794 138.697 36.6794C138.347 36.6794 137.563 36.5954 136.653 36.1194C136.751 35.7834 136.807 35.1534 136.835 34.6914C137.437 35.0274 138.053 35.1674 138.319 35.1674C138.613 35.1674 138.893 34.9574 138.949 34.6494C139.019 34.2154 139.047 33.4454 139.047 32.6334C137.731 32.8434 136.429 33.0674 135.407 33.2494C135.421 34.5094 135.449 35.7414 135.491 36.3574C135.603 37.6454 136.135 38.0654 137.507 38.1214C137.717 38.1354 137.983 38.1354 138.277 38.1354C139.355 38.1354 140.895 38.0654 141.945 37.8694L141.987 39.5074C140.895 39.6334 139.537 39.6754 138.459 39.6754C136.135 39.6754 134.049 39.5494 133.783 36.4694C133.713 35.8254 133.685 34.7194 133.657 33.5574C132.845 33.7254 131.725 33.9354 131.193 34.0614L130.927 32.4094C131.571 32.3114 132.677 32.1294 133.643 31.9614C133.629 30.7574 133.615 29.4134 133.615 28.4894L135.855 28.6574C135.841 28.8254 135.729 28.9234 135.463 28.9794C135.421 29.6654 135.435 30.7154 135.421 31.6534C136.471 31.4714 137.759 31.2614 139.005 31.0514C138.963 29.9034 138.907 28.5454 138.823 27.5654L140.965 27.6354C140.965 27.7754 140.881 27.8734 140.657 27.9574C140.713 28.7694 140.727 29.8334 140.755 30.7574C141.735 30.6034 142.743 30.4354 143.471 30.3374Z" fill="#1A1311"/>
<path d="M117.263 31.7381L117.193 30.0581C117.977 30.0581 119.153 29.9881 119.881 29.8621C119.895 29.5681 119.937 27.7201 119.937 27.4541L122.149 27.6221C122.107 27.7761 122.009 27.8881 121.743 27.9161C121.687 28.5741 121.659 29.0501 121.617 29.6241L122.317 29.9461C122.079 30.3801 121.617 31.2901 121.449 32.0461C122.821 31.0801 124.291 30.6041 125.495 30.6041C127.833 30.6041 129.401 32.1861 129.401 34.7481C129.401 37.8141 127.063 39.1581 123.479 39.4801C123.325 39.0041 123.073 38.3601 122.821 37.9121C125.957 37.5761 127.623 36.7781 127.623 34.7901C127.623 33.4041 126.895 32.2281 125.341 32.2281C124.137 32.2281 122.611 32.8441 121.421 33.8801V36.3581C121.421 37.6881 121.421 39.0181 121.449 39.8721H119.741V35.1541C119.321 35.8401 118.383 36.9461 117.613 37.5481L116.801 36.0081C117.669 35.2661 118.411 34.4681 118.971 33.7541C119.195 33.4461 119.615 32.7881 119.769 32.4521L119.811 31.4721C119.349 31.5701 118.257 31.6821 117.263 31.7381Z" fill="#1A1311"/>
<path d="M105.755 33.1238V32.1158C105.055 32.6198 104.313 33.0958 103.557 33.5018C103.333 33.1098 102.871 32.4938 102.521 32.1578C104.943 30.9678 107.267 28.8258 108.303 27.0898L110.557 27.2158C110.515 27.3698 110.389 27.4678 110.179 27.4958C111.537 29.3158 113.945 31.0798 116.059 31.9478C115.653 32.3678 115.261 32.9418 114.967 33.4598C114.253 33.0818 113.525 32.6338 112.811 32.1298V33.1238H105.755ZM106.385 31.6398H112.139C110.963 30.7298 109.899 29.7078 109.213 28.7698C108.569 29.7078 107.561 30.7158 106.385 31.6398ZM106.483 40.3198H104.831V34.5238H113.791V40.3198H112.069V39.8018H106.483V40.3198ZM112.069 38.3178V36.0218H106.483V38.3178H112.069Z" fill="#1A1311"/>
<path d="M89.627 28.6436L91.923 29.0636C91.881 29.1896 91.727 29.2876 91.559 29.3016C91.349 30.3936 91.195 31.8636 91.195 33.1516C91.195 36.2316 92.091 37.3376 92.875 37.3376C93.351 37.3376 93.939 35.9376 94.247 34.7756C94.583 35.1116 95.269 35.6576 95.675 35.8956C95.003 38.1916 94.093 39.2556 92.805 39.2556C90.635 39.2556 89.571 36.5536 89.431 34.2716C89.403 33.7676 89.375 33.2216 89.375 32.6476C89.375 31.3736 89.459 29.9736 89.627 28.6436ZM101.597 35.2096L99.749 35.8256C99.329 33.3056 98.167 31.8076 96.445 30.7856L97.551 29.4696C99.525 30.5336 101.163 32.4656 101.597 35.2096Z" fill="#1A1311"/>
<path d="M80.7507 27.6357V32.8997H77.0127V40.3057H75.3467V27.6357H80.7507ZM85.5527 29.6797V28.9097H83.3127V29.6797H85.5527ZM81.7167 27.6357H87.2467V38.2897C87.2467 40.0117 86.5887 40.3057 83.7047 40.3057C83.6487 39.8297 83.3827 39.0317 83.1307 38.5837C83.5927 38.6117 84.0827 38.6257 84.4887 38.6257C85.4967 38.6257 85.5527 38.6257 85.5527 38.2617V32.9137H81.7167V27.6357ZM83.3127 30.8137V31.6397H85.5527V30.8137H83.3127ZM79.1827 29.6797V28.9237H77.0127V29.6797H79.1827ZM77.0127 30.8137V31.6257H79.1827V30.8137H77.0127ZM83.9427 33.8657V38.3037H80.0367V39.1017H78.4687V33.8657H83.9427ZM82.3747 36.9317V35.2517H80.0367V36.9317H82.3747Z" fill="#1A1311"/>
<path d="M68.571 29.1335L68.795 30.8695C68.095 31.0795 67.297 31.2335 66.373 31.3455C66.373 32.0035 66.359 32.6755 66.359 33.2635C67.311 32.9835 68.305 32.8015 69.033 32.8015C71.329 32.8015 73.093 33.9635 73.093 36.2175C73.093 38.2475 71.945 39.7315 69.551 39.7315C68.585 39.7315 67.689 39.3675 66.933 38.4855C67.227 38.1215 67.563 37.5755 67.801 37.1415C68.319 37.7715 68.921 38.0935 69.565 38.0935C70.699 38.0935 71.301 37.2955 71.301 36.2175C71.301 35.0975 70.489 34.2995 68.991 34.2995C68.235 34.3135 67.269 34.4815 66.359 34.7755V37.5475C66.359 38.8355 65.533 39.9695 63.811 39.9695C62.593 39.9695 61.207 39.2835 61.207 37.5755C61.207 36.6235 61.851 35.6435 62.901 34.8735C63.405 34.5095 64.021 34.1595 64.679 33.8795V31.4855C63.755 31.5415 62.719 31.5555 61.585 31.5555L61.557 29.8755C62.719 29.8755 63.755 29.8615 64.679 29.8195V27.4395L66.891 27.4955C66.891 27.6635 66.751 27.7895 66.527 27.8175C66.485 28.3635 66.457 29.0075 66.429 29.6515C67.213 29.5395 67.941 29.3715 68.571 29.1335ZM73.555 30.7295L72.561 32.2275C71.805 31.5275 70.531 30.7995 69.411 30.3655L70.265 28.9095C71.483 29.3295 72.771 30.0435 73.555 30.7295ZM64.693 37.4775C64.693 37.1275 64.693 36.3015 64.679 35.4755C63.867 35.9655 62.803 36.5955 62.803 37.5335C62.803 38.1075 63.139 38.4715 63.755 38.4715C64.329 38.4715 64.693 38.1495 64.693 37.4775Z" fill="#1A1311"/>
<path d="M247.949 15.4297V51.7477" stroke="#1A1311" stroke-width="0.797" stroke-linecap="round"/>
<path d="M270.562 33.6641H294.405" stroke="#002F7B" stroke-width="1.195" stroke-linecap="round"/>
<path d="M289.646 27.8154L294.405 33.6638L289.646 39.5121" stroke="#002F7B" stroke-width="1.195" stroke-linecap="round" stroke-linejoin="round"/>
</svg>
