<?xml version="1.0" encoding="UTF-8"?>
<svg id="_レイヤー_2" xmlns="http://www.w3.org/2000/svg" xmlns:xlink="http://www.w3.org/1999/xlink" version="1.1" viewBox="0 0 70 70">
  <!-- Generator: Adobe Illustrator 29.6.1, SVG Export Plug-In . SVG Version: 2.1.1 Build 9)  -->
  <defs>
    <style>
      .st0 {
        fill: none;
      }

      .st1 {
        fill: #15346e;
        fill-rule: evenodd;
      }

      .st2 {
        clip-path: url(#clippath);
      }
    </style>
    <clipPath id="clippath">
      <rect class="st0" width="70" height="70"/>
    </clipPath>
  </defs>
  <g id="_レイヤー_1-2">
    <g class="st2">
      <path class="st1" d="M9.9,19.2h21.2l-9.8,7.3H0l9.9-7.3ZM49.1,19.2h21.3l-9.7,7.3h-21.6s10-7.3,10-7.3ZM34.3,19.3h11.4l-9.5,7.2v24.3h-12.1v-24.3s10.1-7.2,10.1-7.2ZM59,20.8h-.5l-.3.2h-.8c0,0-.1.2-.1.2v.2c0,0,0,.2,0,.2l.2.4.3.4v.3c.1,0,.1.6.1.6h-.1v.5c.1,0,.3.2.3.2l.2.2.2.2h0c0,.1.3.1.3.1h.1c0-.1,0-.5,0-.5v-1.3h.1c0-.1.8-.1.8-.1l.3-.2h0c0,0,.1-.4.1-.4h.2c0-.1.1-.4.1-.4v-.2c-.1,0-.3-.1-.3-.1l-.2-.3h-.4c0,0-.6-.3-.6-.3h-.2ZM21.7,21.1h0c0,.1-.1.3-.1.3h-.3c0,.1-.6.1-.6.1h-.4c0-.1-.4-.1-.4-.1v1.8c.1,0,.1.2.1.2v.3c0,0,.3.1.3.1l.2.3.2.2.2.2h.1l.2-.3h.1c0,0,.1-.5.1-.5v-.3l.2-.2v-.3c.1,0,.1-.3.1-.3v-.2c0,0,0-.7,0-.7h.2v-.5h-.2ZM52.2,21.2h-.2v.2c-.1,0-.5.6-.5.6l-.4.9v.9c-.1,0,0,.4,0,.4h.2c0,0,.3,0,.3,0h.3c0,0,.1-.3.1-.3l.2-.2v-.3c.1,0,.1-.2.1-.2v-.4c-.1,0-.1-.4-.1-.4l-.2-.3v-.4c-.1,0-.1-.2-.1-.2v-.2h.3,0ZM54.1,21.4h-.3l-.2.2-.2.3h-.1v1h.1c0,.1.8.1.8.1v.4c0,0-.2.3-.2.3h-.2c0,.1-.1.2-.1.2l-.3.2v.2c-.1,0-.2.2-.2.2v.2h0l.3.2h.5l.7-.2h.5c0,0,.4-.2.4-.2l.2-.2.2-.2-.2-.3v-.3c0,0-.4-.3-.4-.3v-.4c-.1,0-.3-.4-.3-.4l-.3-.4-.3-.3-.2-.2h-.3ZM70.4,21.6v2.5l-9.7,7.2h-22v-2.3h22l9.7-7.4h0ZM17.9,21.6h-.6c0,0-.1.4-.1.4h0c0,.1-.1.4-.1.4h-.2v.3l.2.2.2.3.3.4.4.4h.2c0,0,.4,0,.4,0h0c0,0,.2-.4.2-.4h.1v-.3l.2-.3.2-.4v-.4h-.2v-.2c-.1,0-.3-.1-.3-.1h-.4c0-.1-.2-.1-.2-.1v-.2c-.1,0-.2,0-.2,0h0ZM48.6,21.6h0c0,0-.2.3-.2.3h0c0,.1-.1.2-.1.2l-.3.3-.2.3-.3.2-.3.3-.2.2v.3h.6c0,0,.2,0,.2,0l.2.2h.1c0,0,.3,0,.3,0h.4c0,0,.3-.3.3-.3l.4-.2.2-.2v-.2c.1,0,.3-.3.3-.3h.1c0-.1-.1-.2-.1-.2l-.2-.2h-.3l-.2-.2-.2-.2-.2-.2v-.2c-.1,0-.2,0-.2,0h0ZM9.9,21.7l-.3.2h-.1c0,.1-.1.4-.1.4v.4c0,0-.3.2-.3.2l-.2.3-.2.2v.6h.3c0,0,3.5,0,3.5,0h.8c0,.1.8,0,.8,0l.4-.3v-.2c.1,0,.3-.4.3-.4v-.3c.1,0,0-.4,0-.4h-.2c0,0-.2-.4-.2-.4h-.4c0-.1-.3-.2-.3-.2l-.4-.2h-.5l-.3.2v.2c-.1,0-.2.3-.2.3h-.2c0,0,0,0,0,0v.2c-.1,0-.4-.2-.4-.2l-.2-.2-.3-.2h-.1c0-.1-.3-.2-.3-.2l-.3-.2h-.1ZM70.4,26.5v2.5l-9.7,7.2h-22v-2.5h22s9.7-7.3,9.7-7.3ZM-.4,29.1h22.1v2.3H-.4v-2.3ZM70.4,31.4v2.4l-9.7,7.2h-22v-2.3h22l9.7-7.3ZM-.4,33.8h22.1v2.5H-.4v-2.5ZM70.4,36.3v2.4l-9.7,7.2h-22v-2.3h22l9.7-7.3ZM-.4,38.7h22.1v2.3H-.4v-2.3ZM70.4,41v2.5l-9.7,7.2h-22v-2.3h22l9.7-7.4h0ZM-.4,43.6h22.1v2.3H-.4v-2.3ZM-.4,48.5h22.1v2.3H-.4v-2.3Z"/>
    </g>
  </g>
</svg>