<?xml version="1.0" encoding="UTF-8"?>
<svg id="_レイヤー_2" xmlns="http://www.w3.org/2000/svg" xmlns:xlink="http://www.w3.org/1999/xlink" version="1.1" viewBox="0 0 70 70">
  <!-- Generator: Adobe Illustrator 29.6.1, SVG Export Plug-In . SVG Version: 2.1.1 Build 9)  -->
  <defs>
    <style>
      .st0 {
        fill: none;
      }

      .st1 {
        fill: #15346e;
        fill-rule: evenodd;
      }

      .st2 {
        clip-path: url(#clippath);
      }
    </style>
    <clipPath id="clippath">
      <rect class="st0" width="70" height="70"/>
    </clipPath>
  </defs>
  <g id="_レイヤー_1-2">
    <g class="st2">
      <g>
        <path class="st1" d="M68.6,14.9h-7.7c-1.3,7.1-3.8,12.6-7.2,17.3-3.4,4.6-7.6,8.7-12.8,11.6-7.5,4.2-17.9,7.6-30.1,5.8-1.4-.2-2.9-.6-4.9-1.1-1-.2-4.2-1-4.1-1.8.2-1.3,2.5-.5,3.8-.4,10.6.9,19-3.3,24.5-7.8,7.2-5.7,11.7-12.8,13.8-23.5-2.8-.2-6.2,0-9.2-.1,1.3-1.3,2.8-2.5,4.2-3.8,4-3.6,8.3-7.2,12.4-10.9.1-.1.2-.2.4-.2s.1.1.2.1c2.7,2.5,5.7,4.8,8.5,7.4,2.8,2.4,5.7,4.8,8.4,7.4h0Z"/>
        <path class="st1" d="M62.4,17h.3v53h-8.8v-30.3c0-1.4-.2-3.1,0-4.2.1-.7.8-1.2,1.3-1.9,3.2-4.6,5.8-10.1,7.1-16.1v-.4h0Z"/>
        <path class="st1" d="M49.8,70h-8.9v-23.5c.5-.7,1.3-1,2.2-1.4,2.1-1.3,4.2-3,6.2-4.5.1-.1.1-.3.4-.3.2,9.7,0,19.9.1,29.9h0Z"/>
        <path class="st1" d="M36.3,48.2h.1v21.8h-8.7v-19c3-.7,5.9-1.6,8.6-2.8Z"/>
        <path class="st1" d="M10.4,51.8v18.2H1.4v-19.9c0-.2,0-.3.1-.3,2.9.7,5.7,1.5,8.9,2h0Z"/>
        <path class="st1" d="M23.4,51.7c.5.1.3.7.3,1,.1,5.5-.1,11.7,0,17.3h-9.1v-18c2.6,0,6.2,0,8.8-.3Z"/>
      </g>
    </g>
  </g>
</svg>