<svg xmlns="http://www.w3.org/2000/svg" width="99.595" height="110" viewBox="0 0 99.595 110">
  <g id="logo_ジー_ケー社会福祉法人" data-name="logo_ジー・ケー社会福祉法人" transform="translate(49.798 55)">
    <g id="グループ_116089" data-name="グループ 116089" transform="translate(-49.798 -55)">
      <g id="グループ_116088" data-name="グループ 116088">
        <path id="パス_5630" data-name="パス 5630" d="M61.279,21.927c-5.8,6.6-14.432,8.5-19.272,4.238S37.95,13.108,43.752,6.511s14.431-8.5,19.271-4.238,4.058,13.055-1.744,19.654" transform="translate(-2.157 0)" fill="#dc000c"/>
        <path id="パス_5631" data-name="パス 5631" d="M81.392,54.351c-5.8,6.6-14.431,8.5-19.271,4.238s-4.056-13.055,1.744-19.654S78.3,30.44,83.137,34.7,87.2,47.754,81.392,54.351" transform="translate(-3.274 -1.801)" fill="#dc000c"/>
        <path id="パス_5632" data-name="パス 5632" d="M42.156,53.748c-5.8,6.6-14.431,8.5-19.271,4.238S18.826,44.929,24.63,38.332s14.431-8.5,19.271-4.238,4.058,13.056-1.745,19.654" transform="translate(-1.095 -1.768)" fill="#dc000c"/>
        <path id="パス_5633" data-name="パス 5633" d="M98.924,86.736c-5.8,6.6-14.432,8.5-19.272,4.238S75.595,77.919,81.4,71.32s14.433-8.5,19.271-4.238,4.058,13.057-1.744,19.654" transform="translate(-4.248 -3.6)" fill="#dc000c"/>
        <path id="パス_5634" data-name="パス 5634" d="M59.574,86.132c-5.8,6.6-14.432,8.493-19.272,4.238s-4.058-13.058,1.745-19.654,14.432-8.5,19.271-4.238,4.058,13.055-1.744,19.654" transform="translate(-2.062 -3.567)" fill="#dc000c"/>
        <path id="パス_5635" data-name="パス 5635" d="M22.446,85.56c-5.8,6.6-14.432,8.494-19.272,4.238S-.883,76.742,4.919,70.144s14.434-8.493,19.272-4.238,4.058,13.057-1.745,19.654" transform="translate(0 -3.535)" fill="#dc000c"/>
        <g id="グループ_116087" data-name="グループ 116087" transform="translate(2.824 96.825)">
          <path id="パス_5636" data-name="パス 5636" d="M15.172,106.4h-.723q0-.289-.036-.859a4.727,4.727,0,0,0-.091-.677,2.214,2.214,0,0,0-.487-.442,4.8,4.8,0,0,0-1.354-.624,6.117,6.117,0,0,0-1.733-.226,4.8,4.8,0,0,0-3.615,1.4,5.3,5.3,0,0,0-1.358,3.85A6.09,6.09,0,0,0,7.2,113.07a4.553,4.553,0,0,0,3.507,1.576,5.4,5.4,0,0,0,1.178-.127,5.931,5.931,0,0,0,1.124-.37c.018-.163.033-.476.044-.94s.019-.744.019-.841A3.885,3.885,0,0,0,13,111.34a.338.338,0,0,0-.244-.154,11.519,11.519,0,0,0-1.714-.172v-.732l2.7.036,2.719-.036v.6a1.271,1.271,0,0,0-.688.3.972.972,0,0,0-.1.5c-.029.693-.045,1.19-.045,1.491a12.67,12.67,0,0,0,.081,1.409,20.545,20.545,0,0,1-2.933.868,12.61,12.61,0,0,1-2.5.253,8.849,8.849,0,0,1-3.6-.688,6.2,6.2,0,0,1-1.87-1.256A5.617,5.617,0,0,1,3.631,112.1a7.117,7.117,0,0,1-.641-3.053,6.679,6.679,0,0,1,.42-2.476,5.726,5.726,0,0,1,1.17-1.847,6.339,6.339,0,0,1,1.7-1.284,7.7,7.7,0,0,1,2-.705,11.566,11.566,0,0,1,2.291-.212,13.732,13.732,0,0,1,2.86.281,10.509,10.509,0,0,1,2.064.614l.074.172A18.448,18.448,0,0,0,15.172,106.4Z" transform="translate(-2.99 -102.52)" fill="#1a1311"/>
          <path id="パス_5637" data-name="パス 5637" d="M22,113.361a1.4,1.4,0,1,1-1.007.411A1.358,1.358,0,0,1,22,113.361Z" transform="translate(-3.967 -103.122)" fill="#1a1311"/>
          <path id="パス_5638" data-name="パス 5638" d="M46.511,114.6v.8q-1.309-.035-2.256-.036c-.487,0-.956.012-1.408.036a5.252,5.252,0,0,0-.706-1.029l-1.766-2.022q-2-2.356-2.128-2.483a2.034,2.034,0,0,0-.521-.465.5.5,0,0,0-.215-.064.226.226,0,0,0-.127.036.135.135,0,0,0-.059.063,1.007,1.007,0,0,0-.012.207v2.031l.026,1.786a2.188,2.188,0,0,0,.117.884.455.455,0,0,0,.245.162,6.437,6.437,0,0,0,1.183.1v.8q-1.482-.064-3.126-.063-1.465,0-2.611.063v-.8a6.492,6.492,0,0,0,1.211-.127.377.377,0,0,0,.166-.117.631.631,0,0,0,.11-.248,4.984,4.984,0,0,0,.067-.718q.082-1.336.081-1.932v-3.278l-.062-2.8a10.282,10.282,0,0,0-.081-1.365.628.628,0,0,0-.1-.261.4.4,0,0,0-.185-.1,9.141,9.141,0,0,0-1.2-.109v-.8q1.146.064,2.62.064,1.645,0,3.118-.064v.8a4.109,4.109,0,0,0-1.274.145.5.5,0,0,0-.19.345,14.888,14.888,0,0,0-.108,2.231v2.5l.144.062a27.474,27.474,0,0,0,2.332-2.2l1.283-1.311q.625-.642.877-.921l.8-.932c.006-.126,0-.36-.027-.7q.912.018,1.229.019l2.124-.019v.8a5.237,5.237,0,0,0-1.224.129,3.076,3.076,0,0,0-.944.546q-.561.435-2.3,1.969L39.891,107.9q.435.541,1.294,1.543l1.982,2.319q1.373,1.6,1.862,2.126a2.749,2.749,0,0,0,.713.618A2.192,2.192,0,0,0,46.511,114.6Z" transform="translate(-4.665 -102.533)" fill="#1a1311"/>
          <path id="パス_5639" data-name="パス 5639" d="M51.448,113.361a1.4,1.4,0,1,1-1.008.411A1.356,1.356,0,0,1,51.448,113.361Z" transform="translate(-5.603 -103.122)" fill="#1a1311"/>
          <path id="パス_5640" data-name="パス 5640" d="M71.167,106.034h-.758a11.57,11.57,0,0,0-.091-1.481,2.289,2.289,0,0,0-.969-.705,3.767,3.767,0,0,0-1.547-.307,2.7,2.7,0,0,0-1.9.62,1.92,1.92,0,0,0-.672,1.453,2.217,2.217,0,0,0,.2.969,1.457,1.457,0,0,0,.541.588,3.958,3.958,0,0,0,1.038.4q.523.109,1.457.272t1.214.226a4.629,4.629,0,0,1,1.182.456,2.5,2.5,0,0,1,.718.615,2.935,2.935,0,0,1,.437.876,3.839,3.839,0,0,1,.171,1.188,4.179,4.179,0,0,1-.478,2.033,4.338,4.338,0,0,1-1,1.208,4.753,4.753,0,0,1-1.319.817,6.991,6.991,0,0,1-2.6.434,8.513,8.513,0,0,1-1.979-.208,9.5,9.5,0,0,1-1.907-.714,13.144,13.144,0,0,0,.289-3.136h.759a11.253,11.253,0,0,0,.1,1.623,2.853,2.853,0,0,0,1.174.988,3.925,3.925,0,0,0,1.817.426,3.685,3.685,0,0,0,1.531-.3,2.035,2.035,0,0,0,.978-.838,2.432,2.432,0,0,0,.3-1.213,2.089,2.089,0,0,0-.213-.978,1.56,1.56,0,0,0-.665-.652,7.016,7.016,0,0,0-1.59-.507q-1.636-.343-2.151-.5a3.134,3.134,0,0,1-1.251-.678,2.776,2.776,0,0,1-.709-1.071,3.824,3.824,0,0,1-.235-1.352,4.132,4.132,0,0,1,.425-1.866A3.354,3.354,0,0,1,64.58,103.4a4.627,4.627,0,0,1,1.573-.673,7.9,7.9,0,0,1,1.8-.2,9.9,9.9,0,0,1,1.858.171,6.169,6.169,0,0,1,1.558.5l.072.216a11.162,11.162,0,0,0-.185,1.149Q71.195,105.116,71.167,106.034Z" transform="translate(-6.318 -102.52)" fill="#1a1311"/>
          <path id="パス_5641" data-name="パス 5641" d="M77.584,113.361a1.4,1.4,0,1,1-1.007.411A1.357,1.357,0,0,1,77.584,113.361Z" transform="translate(-7.055 -103.122)" fill="#1a1311"/>
          <path id="パス_5642" data-name="パス 5642" d="M100.916,113.744l-.416.911a9.145,9.145,0,0,1-2.029.819,9.6,9.6,0,0,1-2.246.221,8.847,8.847,0,0,1-3.389-.606,6.084,6.084,0,0,1-3.2-3.035,7.218,7.218,0,0,1-.66-3.082,6.046,6.046,0,0,1,1.947-4.65,7.8,7.8,0,0,1,5.5-1.8,12.03,12.03,0,0,1,2.192.18,14.93,14.93,0,0,1,2.253.642l.045.117a5.65,5.65,0,0,0-.226,1.066q-.136,1.021-.172,1.889h-.7q-.018-.995-.091-1.591a3.972,3.972,0,0,0-1.36-.944,5.1,5.1,0,0,0-1.93-.312,4.466,4.466,0,0,0-3.4,1.342,5.223,5.223,0,0,0-1.274,3.746,6.855,6.855,0,0,0,.43,2.539,5.17,5.17,0,0,0,1.143,1.794,4.965,4.965,0,0,0,1.437,1.033,5.89,5.89,0,0,0,2.386.434,7.073,7.073,0,0,0,1.743-.208,8.328,8.328,0,0,0,1.79-.714Z" transform="translate(-7.767 -102.52)" fill="#1a1311"/>
        </g>
      </g>
    </g>
  </g>
</svg>
