<svg width="300" height="138" viewBox="0 0 300 138" fill="none" xmlns="http://www.w3.org/2000/svg">
<path d="M150 137.064C232.843 137.064 300 106.381 300 68.5321C300 30.6829 232.843 0 150 0C67.1573 0 0 30.6829 0 68.5321C0 106.381 67.1573 137.064 150 137.064Z" fill="#00327A"/>
<path d="M298.844 68.597C296.16 97.9357 238.534 116.645 170.14 110.379C101.745 104.113 48.4678 75.267 51.155 45.9205C53.8421 16.574 111.465 -2.12479 179.867 4.13579C248.27 10.3964 301.532 39.2583 298.844 68.597Z" fill="white"/>
<path d="M160.868 58.0504C160.609 51.5721 158.134 46.8767 153.931 44.8347C151.776 43.8148 149.347 43.5263 147.013 44.0132H129.392L129.356 44.1143H113.53L102.214 65.8631V44.0107H87.962V88.4308L64.6403 113.455H84.0595L127.228 50.3542C124.86 57.2807 120.475 70.1854 118.677 75.9407C116.218 83.8156 105.329 109.571 105.22 109.84L103.696 113.439L107.602 113.421H121.74L121.957 111.089C122.702 104.825 123.934 98.6285 125.642 92.5561C126.625 93.8433 127.895 94.884 129.35 95.5957C133.551 97.635 138.762 96.6581 144.017 92.8515C149.224 88.6556 153.437 83.3582 156.353 77.34C159.269 71.3218 160.816 64.7322 160.881 58.0451L160.868 58.0504ZM133.634 82.0484C132.468 81.4835 131.742 79.7784 131.641 77.3711C131.639 73.8686 132.469 70.4157 134.061 67.2961C136.997 61.2428 141.475 57.5865 144.276 57.5865C144.659 57.582 145.037 57.6644 145.383 57.8275C146.546 58.3898 147.272 60.0975 147.375 62.5048C147.376 66.0092 146.546 69.4637 144.953 72.5849C141.584 79.5115 136.199 83.2948 133.631 82.0536L133.634 82.0484Z" fill="white"/>
<path d="M179.515 46.2961H169.619C169.619 50.3412 165.366 62.2767 162.537 70.3538C159.707 78.4308 151.013 97.4743 151.013 97.4743H164.747C164.747 97.4743 168.183 82.7039 171.013 74.6113C173.843 66.5187 175.257 61.4734 178.087 59.2475C179.76 57.5358 182.021 56.5234 184.412 56.4152C188.04 56.4152 188.53 58.4312 188.53 58.4312L195.552 46.6149C188.683 46.6149 184.793 47.1332 181.992 48.9911C180.427 50.0532 178.96 51.2544 177.61 52.5801L179.515 46.2961Z" fill="#00327A"/>
<path d="M221.67 55.1895C221.501 53.7932 221.057 52.4443 220.363 51.2211C219.669 49.9978 218.739 48.9245 217.627 48.0634C216.294 47.0176 214.657 46.432 212.963 46.3946C212.076 46.3734 211.192 46.495 210.343 46.7548C207.064 47.6365 204.044 49.289 201.533 51.5746C201.354 51.7223 201.18 51.8648 201.015 52.0048H200.999C196.84 55.8159 193.422 60.3632 190.916 65.4173C190.526 66.1039 190.172 66.8105 189.856 67.5344C189.753 67.7754 189.654 68.0189 189.577 68.2599C184.122 80.8018 184.855 93.4889 191.59 96.614C197.55 99.3841 206.36 93.6262 213.098 84.155C208.739 89.0784 204.013 92.0636 200.141 90.2679C195.783 88.2389 194.036 80.9392 196.327 73.6188H196.985C199.149 73.7121 203.088 73.7509 205.218 73.6369C207.492 73.7098 209.764 73.4354 211.955 72.8233C213.832 72.1309 215.558 71.084 217.039 69.7396C218.673 68.2625 219.961 66.4434 220.812 64.4119C221.858 61.453 222.161 58.2826 221.696 55.179L221.67 55.1895ZM215.096 62.3051C214.697 63.3796 214.142 64.3892 213.448 65.3007C213.058 65.669 212.639 66.0061 212.196 66.3087C211.26 66.7588 210.217 66.9384 209.185 66.827H199.499C199.756 65.8074 200.114 64.8161 200.569 63.8677C201.047 62.8639 201.584 61.8888 202.175 60.9473C203.312 59.1303 204.674 57.4639 206.228 55.9876C207.546 54.5319 209.336 53.5885 211.281 53.3237C211.679 53.2809 212.08 53.3185 212.463 53.4342C212.845 53.55 213.2 53.7415 213.507 53.9974C214.071 54.4339 214.542 54.9779 214.894 55.598C215.246 56.2181 215.471 56.9019 215.557 57.6097C215.792 59.1854 215.634 60.7945 215.098 62.2948L215.096 62.3051Z" fill="#00327A"/>
<path d="M240.664 54.6996C242.478 54.265 244.385 54.4483 246.083 55.2205C247.781 55.9927 249.172 57.3096 250.037 58.9624L254.113 51.914C253.408 50.1098 252.152 48.5739 250.524 47.5252C248.895 46.4764 246.978 45.9683 245.044 46.0732C242.38 45.952 239.726 46.4597 237.295 47.5554C235.348 48.3695 233.587 49.57 232.117 51.0843C230.647 52.5987 229.5 54.3954 228.744 56.3658C227.694 58.7997 227.238 61.4482 227.412 64.0931C227.777 67.3086 228.887 70.3946 230.654 73.1056C231.881 75.1511 232.634 77.4452 232.859 79.8197C233.234 81.8602 232.793 83.9665 231.629 85.6844C230.466 87.4023 228.674 88.5942 226.64 89.0033C224.851 89.2202 223.045 88.7598 221.578 87.7124C220.111 86.6651 219.089 85.1067 218.713 83.3439L213.468 92.4134C214.726 94.1111 216.39 95.466 218.307 96.3542C220.225 97.2424 222.334 97.6356 224.443 97.4976C227.907 97.7249 231.363 96.9446 234.393 95.2509C238.866 93.0535 240.47 88.853 241.102 82.9889C241.268 79.8019 240.841 76.6117 239.845 73.5799C239.521 72.6074 239.137 71.6555 238.697 70.7294C237.952 69.212 237.292 67.6549 236.717 66.0651C234.823 60.7141 236.593 56.1352 240.664 54.6996Z" fill="#00327A"/>
<path d="M269.811 54.6997C271.625 54.2651 273.532 54.4484 275.23 55.2206C276.928 55.9928 278.319 57.3097 279.184 58.9624L283.262 51.9141C282.558 50.1099 281.302 48.574 279.673 47.5252C278.045 46.4765 276.127 45.9684 274.193 46.0733C271.53 45.9517 268.875 46.4595 266.445 47.5555C264.498 48.3699 262.737 49.5706 261.267 51.0849C259.797 52.5992 258.65 54.3957 257.894 56.3659C256.845 58.8001 256.388 61.4483 256.562 64.0932C256.927 67.3086 258.037 70.3945 259.803 73.1057C261.031 75.1506 261.785 77.445 262.009 79.8198C262.384 81.8603 261.942 83.9666 260.779 85.6845C259.616 87.4024 257.824 88.5943 255.79 89.0033C254 89.2204 252.194 88.76 250.727 87.7127C249.259 86.6654 248.237 85.107 247.86 83.344L242.618 92.4135C243.876 94.1111 245.54 95.466 247.457 96.3542C249.374 97.2425 251.484 97.6356 253.592 97.4977C257.057 97.7254 260.514 96.9451 263.546 95.251C268.018 93.0536 269.622 88.8531 270.252 82.989C270.417 79.8019 269.991 76.6117 268.995 73.5799C268.671 72.6073 268.287 71.6554 267.847 70.7295C267.101 69.212 266.44 67.655 265.864 66.0652C263.978 60.7142 265.74 56.1353 269.811 54.6997Z" fill="#00327A"/>
<path d="M115.103 46.7003L99.6431 76.4174V46.5992H90.5399V89.4594L70.561 110.889H82.6908L126.603 46.7029L115.103 46.7003Z" fill="#00327A"/>
<path d="M152.796 47.1591C149.207 45.4203 144.602 46.7159 140.143 50.1598C141.545 47.9805 142.488 46.5967 142.488 46.5967H131.218C131.218 46.5967 123.636 68.6228 121.112 76.718C118.588 84.8133 107.567 110.843 107.567 110.843H119.368C120.552 101.918 122.496 93.1112 125.18 84.5178C125.267 86.2994 125.794 88.0318 126.714 89.5601C127.634 91.0885 128.918 92.3653 130.451 93.2764C137.292 96.5907 147.839 88.9541 154.009 76.2205C160.179 63.4868 159.645 50.4733 152.796 47.1591ZM147.266 73.6992C143.379 81.67 136.792 86.451 132.496 84.3702C128.199 82.2893 127.86 74.1449 131.718 66.1714C135.577 58.198 142.192 53.4222 146.489 55.5004C150.785 57.5787 151.132 65.7283 147.266 73.6992Z" fill="#00327A"/>
</svg>
