<?xml version="1.0" encoding="UTF-8"?>
<svg id="_レイヤー_2" data-name="レイヤー 2" xmlns="http://www.w3.org/2000/svg" viewBox="0 0 429.8 281.7">
  <defs>
    <style>
      .cls-1 {
        fill: #fff;
      }
    </style>
  </defs>
  <g id="_レイヤー_1-2" data-name="レイヤー 1">
    <path class="cls-1" d="M429.8,17.18h-16.9v82.22h-17.32V17.18h-17.04V1.42h51.26v15.76Z"/>
    <path class="cls-1" d="M324.33,93.44c-4.97-4.83-7.38-11.79-7.38-21.02V28.26c0-9.23,2.56-16.19,7.81-21.02,5.11-4.83,12.07-7.24,20.59-7.24s14.63,2.41,19.74,7.1c4.97,4.83,7.53,11.93,7.53,21.58v2.98h-17.47v-2.84c0-4.4-.99-7.67-2.84-9.8-1.85-2.13-4.26-3.27-7.38-3.27-3.69,0-6.39,1.28-8.09,3.83s-2.41,6.39-2.41,11.5v39.33c0,9.66,3.41,14.34,10.51,14.34,3.12,0,5.54-.99,7.38-3.27,1.85-2.13,2.84-5.4,2.84-9.66v-2.56h17.32v2.7c0,9.51-2.7,16.61-7.95,21.44s-11.93,7.1-20.16,7.1-15.19-2.27-20.02-7.1Z"/>
    <path class="cls-1" d="M289.32,80.37h-22.86l-3.98,19.03h-18.18L269.44,1.42h17.04l24.99,97.98h-18.18l-3.98-19.03ZM286.2,64.75l-8.24-39.76-8.24,39.76h16.47Z"/>
    <path class="cls-1" d="M248.97,17.18h-16.9v82.22h-17.32V17.18h-17.04V1.42h51.26v15.76Z"/>
    <path class="cls-1" d="M191.23,1.42v97.98h-17.47l-20.45-52.26v52.26h-17.47V1.42h17.47l20.45,54.53V1.42h17.47Z"/>
    <path class="cls-1" d="M76.24,93.44c-4.97-4.83-7.38-11.79-7.38-21.02V28.26c0-9.23,2.56-16.19,7.81-21.02,5.11-4.83,12.07-7.24,20.59-7.24s14.77,2.41,19.74,7.24c4.97,4.83,7.53,11.79,7.53,21.02v44.16c0,9.09-2.7,16.05-7.95,20.87-5.25,4.83-12.07,7.24-20.31,7.24s-15.19-2.27-20.02-7.1ZM104.36,81.08c1.7-2.56,2.7-6.11,2.7-10.65V31.1c0-4.97-.85-8.8-2.56-11.36-1.7-2.56-4.26-3.83-7.67-3.83-3.69,0-6.39,1.28-8.09,3.83-1.7,2.56-2.41,6.39-2.41,11.5v39.33c0,9.51,3.41,14.34,10.51,14.34,3.27,0,5.82-1.28,7.53-3.83Z"/>
    <path class="cls-1" d="M9.82,93.44c-4.97-4.83-7.38-11.79-7.38-21.02V28.26c0-9.23,2.56-16.19,7.81-21.02C15.35,2.41,22.31,0,30.83,0s14.63,2.41,19.74,7.1c4.97,4.83,7.53,11.93,7.53,21.58v2.98h-17.47v-2.84c0-4.4-.99-7.67-2.84-9.8-1.85-2.13-4.26-3.27-7.38-3.27-3.69,0-6.39,1.28-8.09,3.83s-2.41,6.39-2.41,11.5v39.33c0,9.66,3.41,14.34,10.51,14.34,3.12,0,5.54-.99,7.38-3.27,1.85-2.13,2.84-5.4,2.84-9.66v-2.56h17.32v2.7c0,9.51-2.7,16.61-7.95,21.44-5.25,4.83-11.93,7.1-20.16,7.1s-15.19-2.27-20.02-7.1Z"/>
    <path class="cls-1" d="M377.03,157.6c-1.66-1.82-2.55-4.42-2.55-7.85h6.03c.05,1.77.42,3.07,1.04,3.9.62.83,1.56,1.25,2.81,1.25s2.18-.42,2.76-1.14c.57-.78.83-1.98.83-3.64,0-1.4-.31-2.5-.94-3.33-.62-.83-1.72-1.56-3.22-2.24l-2.44-1.09c-2.34-1.04-4-2.34-5.04-3.85-1.04-1.56-1.56-3.59-1.56-6.14,0-3.02.88-5.46,2.65-7.23,1.77-1.82,4.11-2.7,7.07-2.7s5.25.88,6.86,2.65,2.44,4.37,2.55,7.75h-5.88c0-1.66-.31-2.86-.83-3.69-.52-.83-1.46-1.2-2.7-1.2-2.29,0-3.48,1.35-3.48,4.11,0,1.25.31,2.24.88,2.96.57.73,1.51,1.4,2.86,1.98l2.34,1.04c2.5,1.14,4.32,2.5,5.46,4.16,1.14,1.66,1.66,3.9,1.66,6.66,0,3.33-.83,5.93-2.6,7.7-1.72,1.82-4.16,2.7-7.33,2.7s-5.56-.88-7.23-2.76Z"/>
    <path class="cls-1" d="M353.85,157.76c-1.82-1.77-2.7-4.32-2.7-7.7v-16.17c0-3.38.94-5.93,2.86-7.7,1.87-1.77,4.42-2.65,7.54-2.65s5.36.88,7.18,2.55c1.87,1.72,2.76,4.21,2.76,7.54v1.09h-6.4v-1.09c0-1.35-.31-2.44-1.04-3.17-.68-.73-1.56-1.14-2.65-1.14-1.35,0-2.34.47-2.96,1.4s-.88,2.34-.88,4.21v14.4c0,3.54,1.25,5.25,3.85,5.25,1.25,0,2.18-.42,2.81-1.25.62-.83.94-2.08.94-3.69v-3.8h-3.8v-5.04h10.19v9.26c0,3.33-.99,5.88-2.91,7.64s-4.42,2.65-7.44,2.65-5.56-.83-7.33-2.6Z"/>
    <path class="cls-1" d="M347,124.06v35.88h-6.4l-7.49-19.14v19.14h-6.4v-35.88h6.4l7.49,19.97v-19.97h6.4Z"/>
    <path class="cls-1" d="M315.81,124.06h6.34v35.88h-6.34v-35.88Z"/>
    <path class="cls-1" d="M291.53,124.06h9.93c3.02,0,5.41.88,7.23,2.6,1.82,1.77,2.76,4.32,2.76,7.7v15.29c0,3.38-.99,5.93-2.86,7.7-1.92,1.77-4.42,2.6-7.44,2.6h-9.62v-35.88ZM301.31,154.22c1.2,0,2.13-.47,2.76-1.4.62-.94.99-2.24.99-3.9v-13.47c0-1.82-.31-3.22-.94-4.16-.62-.94-1.56-1.46-2.81-1.46h-3.43v24.39h3.43Z"/>
    <path class="cls-1" d="M272.44,124.06h6.4v30.16h9.62v5.72h-16.02v-35.88Z"/>
    <path class="cls-1" d="M250.61,157.76c-1.82-1.77-2.7-4.32-2.7-7.7v-16.17c0-3.38.94-5.93,2.86-7.7,1.87-1.77,4.42-2.65,7.54-2.65s5.41.88,7.23,2.65,2.76,4.32,2.76,7.7v16.17c0,3.33-.99,5.88-2.91,7.64-1.92,1.77-4.42,2.65-7.44,2.65s-5.56-.83-7.33-2.6ZM260.91,153.23c.62-.94.99-2.24.99-3.9v-14.4c0-1.82-.31-3.22-.94-4.16s-1.56-1.4-2.81-1.4c-1.35,0-2.34.47-2.96,1.4-.62.94-.88,2.34-.88,4.21v14.4c0,3.48,1.25,5.25,3.85,5.25,1.2,0,2.13-.47,2.76-1.4Z"/>
    <path class="cls-1" d="M243.75,124.06v35.88h-6.4v-15.39h-6.76v15.39h-6.4v-35.88h6.4v14.77h6.76v-14.77h6.4Z"/>
    <path class="cls-1" d="M194.32,157.6c-1.66-1.82-2.55-4.42-2.55-7.85h6.03c.05,1.77.42,3.07,1.04,3.9.62.83,1.56,1.25,2.81,1.25s2.18-.42,2.76-1.14c.57-.78.83-1.98.83-3.64,0-1.4-.31-2.5-.94-3.33-.62-.83-1.72-1.56-3.22-2.24l-2.44-1.09c-2.34-1.04-4-2.34-5.04-3.85-1.04-1.56-1.56-3.59-1.56-6.14,0-3.02.88-5.46,2.65-7.23,1.77-1.82,4.11-2.7,7.07-2.7s5.25.88,6.86,2.65,2.44,4.37,2.55,7.75h-5.88c0-1.66-.31-2.86-.83-3.69-.52-.83-1.46-1.2-2.7-1.2-2.29,0-3.48,1.35-3.48,4.11,0,1.25.31,2.24.88,2.96.57.73,1.51,1.4,2.86,1.98l2.34,1.04c2.5,1.14,4.32,2.5,5.46,4.16,1.14,1.66,1.66,3.9,1.66,6.66,0,3.33-.83,5.93-2.6,7.7-1.72,1.82-4.16,2.7-7.33,2.7s-5.56-.88-7.23-2.76Z"/>
    <path class="cls-1" d="M172.18,157.6c-1.66-1.82-2.55-4.42-2.55-7.85h6.03c.05,1.77.42,3.07,1.04,3.9.62.83,1.56,1.25,2.81,1.25s2.18-.42,2.76-1.14c.57-.78.83-1.98.83-3.64,0-1.4-.31-2.5-.94-3.33s-1.72-1.56-3.22-2.24l-2.44-1.09c-2.34-1.04-4-2.34-5.04-3.85-1.04-1.56-1.56-3.59-1.56-6.14,0-3.02.88-5.46,2.65-7.23,1.77-1.82,4.11-2.7,7.07-2.7s5.25.88,6.86,2.65,2.44,4.37,2.55,7.75h-5.88c0-1.66-.31-2.86-.83-3.69s-1.46-1.2-2.7-1.2c-2.29,0-3.48,1.35-3.48,4.11,0,1.25.31,2.24.88,2.96.57.73,1.51,1.4,2.86,1.98l2.34,1.04c2.5,1.14,4.32,2.5,5.46,4.16,1.14,1.66,1.66,3.9,1.66,6.66,0,3.33-.83,5.93-2.6,7.7-1.72,1.82-4.16,2.7-7.33,2.7s-5.56-.88-7.23-2.76Z"/>
    <path class="cls-1" d="M157.67,129.83v9h8.32v5.72h-8.32v9.67h9.67v5.72h-16.02v-35.88h16.02v5.77h-9.67Z"/>
    <path class="cls-1" d="M136.87,145.54h-3.07v14.4h-6.4v-35.88h9.78c3.54,0,6.03.88,7.49,2.55,1.46,1.72,2.24,4.42,2.24,8.16,0,2.39-.36,4.42-.99,5.98-.68,1.61-1.77,2.81-3.22,3.59l5.36,15.6h-6.66l-4.52-14.4ZM133.8,139.82h3.33c1.25,0,2.13-.42,2.65-1.25.47-.83.73-2.13.73-3.8s-.26-2.91-.73-3.74-1.35-1.25-2.65-1.25h-3.33v10.04Z"/>
    <path class="cls-1" d="M122.07,126.87c1.51,1.87,2.29,4.73,2.29,8.48s-.78,6.66-2.34,8.53c-1.56,1.87-4.06,2.81-7.49,2.81h-3.33v13.26h-6.34v-35.88h9.67c3.54,0,6.03.94,7.54,2.81ZM117.13,139.56c.52-.88.83-2.29.83-4.21s-.31-3.28-.83-4.21c-.52-.88-1.46-1.35-2.81-1.35h-3.12v11.13h3.12c1.35,0,2.29-.42,2.81-1.35Z"/>
    <path class="cls-1" d="M95.08,145.95v13.99h-6.4v-14.09l-7.28-21.79h7.02l3.43,13.73,3.43-13.73h7.07l-7.28,21.89Z"/>
    <path class="cls-1" d="M61.45,157.76c-1.82-1.77-2.7-4.32-2.7-7.7v-16.17c0-3.38.94-5.93,2.86-7.7,1.87-1.77,4.42-2.65,7.54-2.65s5.36.88,7.23,2.6c1.82,1.77,2.76,4.37,2.76,7.9v1.09h-6.4v-1.04c0-1.61-.36-2.81-1.04-3.59-.68-.78-1.56-1.2-2.7-1.2-1.35,0-2.34.47-2.96,1.4-.62.94-.88,2.34-.88,4.21v14.4c0,3.54,1.25,5.25,3.85,5.25,1.14,0,2.03-.36,2.7-1.2.68-.78,1.04-1.98,1.04-3.54v-.94h6.34v.99c0,3.48-.99,6.08-2.91,7.85-1.92,1.77-4.37,2.6-7.38,2.6s-5.56-.83-7.33-2.6Z"/>
    <path class="cls-1" d="M30.51,158.02c-1.51-1.56-2.24-4.06-2.24-7.59v-8.42c0-3.48.73-6.03,2.24-7.59,1.46-1.56,3.64-2.34,6.5-2.34s4.99.78,6.45,2.34,2.24,4.11,2.24,7.59v8.42c0,3.54-.78,6.03-2.24,7.59s-3.64,2.34-6.45,2.34-5.04-.78-6.5-2.34ZM38.99,153.91c.42-.73.68-1.87.68-3.43v-8.53c0-1.56-.26-2.65-.68-3.38-.47-.73-1.14-1.09-2.03-1.09s-1.56.36-1.98,1.09c-.47.73-.68,1.82-.68,3.38v8.53c0,1.56.21,2.7.68,3.43.42.73,1.09,1.04,1.98,1.04s1.56-.31,2.03-1.04Z"/>
    <path class="cls-1" d="M21.61,136.7v14.35c0,2.34,1.14,3.48,3.48,3.48h.21v5.41h-.21c-3.12,0-5.51-.68-7.12-2.03-1.61-1.35-2.39-3.54-2.39-6.5v-14.72h-3.07v-4.21h3.07v-4.84l6.03-2.44v7.28h4.37v4.21h-4.37Z"/>
    <path class="cls-1" d="M54.5,177.82l.08,1.1c-.47.04-1.12.12-1.81.22,0,.74-.02,1.38-.12,1.83-.14.58-.57.94-1.22.94-.23,0-.73-.05-1.31-.36.06-.22.1-.62.12-.92.39.22.78.31.95.31.19,0,.37-.13.41-.33.04-.28.06-.77.06-1.3-.85.14-1.68.28-2.34.4,0,.81.03,1.6.05,2,.07.83.41,1.1,1.3,1.13.14,0,.31,0,.49,0,.69,0,1.68-.05,2.36-.17l.03,1.05c-.7.08-1.58.11-2.27.11-1.49,0-2.84-.08-3.01-2.06-.05-.41-.06-1.12-.08-1.87-.52.11-1.24.24-1.58.32l-.17-1.06c.41-.06,1.12-.18,1.75-.29,0-.77-.02-1.64-.02-2.23l1.44.11c0,.11-.08.17-.25.21-.03.44-.02,1.12-.03,1.72.67-.12,1.5-.25,2.3-.39-.03-.74-.06-1.61-.12-2.24l1.38.05c0,.09-.05.15-.2.21.04.52.04,1.21.06,1.8.63-.1,1.28-.21,1.75-.27Z"/>
    <path class="cls-1" d="M37.65,178.72l-.05-1.08c.5,0,1.26-.04,1.73-.13,0-.19.04-1.38.04-1.55l1.42.11c-.03.1-.09.17-.26.19-.04.42-.05.73-.08,1.1l.45.21c-.15.28-.45.86-.56,1.35.88-.62,1.83-.93,2.6-.93,1.5,0,2.51,1.02,2.51,2.66,0,1.97-1.5,2.83-3.81,3.04-.1-.31-.26-.72-.42-1.01,2.02-.22,3.09-.73,3.09-2.01,0-.89-.47-1.65-1.47-1.65-.77,0-1.76.4-2.52,1.06v1.59c0,.85,0,1.71.02,2.26h-1.1v-3.03c-.27.44-.87,1.15-1.37,1.54l-.52-.99c.56-.48,1.03-.99,1.39-1.45.14-.2.41-.62.51-.84l.03-.63c-.3.06-1,.14-1.64.17Z"/>
    <path class="cls-1" d="M30.25,179.61v-.65c-.45.32-.93.63-1.41.89-.14-.25-.44-.65-.67-.86,1.56-.76,3.05-2.14,3.72-3.26l1.45.08c-.03.1-.11.16-.24.18.87,1.17,2.42,2.3,3.78,2.86-.26.27-.51.64-.7.97-.46-.24-.93-.53-1.39-.86v.64h-4.54ZM30.65,178.66h3.7c-.76-.58-1.44-1.24-1.88-1.85-.41.6-1.06,1.25-1.82,1.85ZM30.72,184.24h-1.06v-3.73h5.76v3.73h-1.11v-.33h-3.59v.33ZM34.31,182.95v-1.48h-3.59v1.48h3.59Z"/>
    <path class="cls-1" d="M19.88,176.73l1.48.27c-.03.08-.13.14-.23.15-.13.7-.23,1.65-.23,2.48,0,1.98.58,2.69,1.08,2.69.31,0,.68-.9.88-1.65.22.22.66.57.92.72-.43,1.48-1.02,2.16-1.84,2.16-1.4,0-2.08-1.74-2.17-3.2-.02-.32-.04-.68-.04-1.04,0-.82.05-1.72.16-2.57ZM27.58,180.95l-1.19.4c-.27-1.62-1.02-2.58-2.12-3.24l.71-.85c1.27.68,2.32,1.93,2.6,3.69Z"/>
    <path class="cls-1" d="M14.18,176.08v3.38h-2.4v4.76h-1.07v-8.14h3.47ZM17.26,177.4v-.49h-1.44v.49h1.44ZM14.8,176.08h3.55v6.85c0,1.11-.42,1.3-2.28,1.3-.04-.31-.21-.82-.37-1.11.3.02.61.03.87.03.65,0,.68,0,.68-.23v-3.44h-2.47v-3.39ZM15.82,178.13v.53h1.44v-.53h-1.44ZM13.17,177.4v-.49h-1.39v.49h1.39ZM11.77,178.13v.52h1.39v-.52h-1.39ZM16.23,180.09v2.85h-2.51v.51h-1.01v-3.37h3.52ZM15.22,182.06v-1.08h-1.5v1.08h1.5Z"/>
    <path class="cls-1" d="M6.35,177.05l.14,1.12c-.45.14-.96.23-1.56.31,0,.42,0,.86,0,1.23.61-.18,1.25-.3,1.72-.3,1.48,0,2.61.75,2.61,2.2,0,1.3-.74,2.26-2.28,2.26-.62,0-1.2-.23-1.68-.8.19-.23.41-.58.56-.86.33.4.72.61,1.13.61.73,0,1.12-.51,1.12-1.21s-.52-1.23-1.49-1.23c-.49,0-1.11.12-1.69.31v1.78c0,.83-.53,1.56-1.64,1.56-.78,0-1.67-.44-1.67-1.54,0-.61.41-1.24,1.09-1.74.32-.23.72-.46,1.14-.64v-1.54c-.59.04-1.26.05-1.99.05l-.02-1.08c.75,0,1.41,0,2.01-.04v-1.53l1.42.04c0,.11-.09.19-.23.21-.03.35-.04.77-.06,1.18.5-.07.97-.18,1.38-.33ZM9.55,178.07l-.64.96c-.49-.45-1.31-.92-2.03-1.2l.55-.94c.78.27,1.61.73,2.11,1.17ZM3.85,182.41c0-.23,0-.76,0-1.29-.52.32-1.21.72-1.21,1.32,0,.37.22.6.61.6.37,0,.6-.21.6-.64Z"/>
    <path class="cls-1" d="M144.8,278.05c1.03,0,1.82.85,1.82,1.82s-.82,1.82-1.82,1.82-1.82-.82-1.82-1.82.82-1.82,1.82-1.82ZM144.8,281.09c.71,0,1.23-.57,1.23-1.22,0-.69-.55-1.24-1.23-1.24s-1.22.55-1.22,1.24.55,1.22,1.22,1.22Z"/>
    <path class="cls-1" d="M131.01,270.86l2.13.39c-.04.12-.18.21-.34.22-.2,1.01-.34,2.38-.34,3.57,0,2.86.83,3.89,1.56,3.89.44,0,.99-1.3,1.27-2.38.31.31.95.82,1.33,1.04-.62,2.13-1.47,3.12-2.67,3.12-2.01,0-3-2.51-3.13-4.63-.03-.47-.05-.98-.05-1.51,0-1.18.08-2.48.23-3.72ZM142.13,276.96l-1.72.57c-.39-2.34-1.47-3.73-3.07-4.68l1.03-1.22c1.83.99,3.35,2.78,3.76,5.33Z"/>
    <path class="cls-1" d="M128.23,271.29l.3,1.65c-1.01.27-2.55.45-3.93.57.48,1.46,1.09,2.29,2.25,2.82l-1.17,1.38c-.49-.44-1.22-.92-2.81-.9l-.43-1.31c.43,0,.99.05,1.33.12-.34-.46-.61-1.13-.87-1.99-.51.04-1.05.05-1.72.05-.77,0-2.34-.01-3.21-.04v-1.55c.73.03,1.69.05,3.22.05.43,0,.92-.01,1.33-.05-.14-.71-.26-1.55-.38-2.39l2.2.05c-.01.16-.13.29-.35.34.05.66.13,1.26.25,1.9,1.3-.1,2.99-.39,3.99-.7ZM126.2,279.56l-.14,1.62c-.65,0-1.42.01-2.38.01-3.16,0-4.76-1.21-4.76-2.81,0-.81.38-1.46,1.12-2.24l1.25.92c-.51.44-.69.83-.69,1.23,0,.98,1.29,1.33,3.12,1.33,1.04,0,1.81-.04,2.48-.08Z"/>
    <path class="cls-1" d="M114.19,269.88l.68-.62c.61.45,1.3,1.12,1.66,1.68l-.73.64c-.31-.46-1.08-1.27-1.61-1.69ZM111.94,271.23l.31,1.62c-.99.33-2.29.53-3.56.64-.51,2.73-1.31,5.68-2.24,7.84l-1.69-.6c1.03-2.05,1.78-4.52,2.22-7.15-.21.01-1.13.01-1.38.01-.27,0-.53,0-.75-.01l-.03-1.55c.42.03,1.09.03,1.72.03.21,0,.44-.01.66-.01.1-.75.2-1.65.26-2.4l2.12.18c-.01.16-.17.27-.36.31-.07.47-.17,1.17-.26,1.75,1.03-.13,2.09-.32,2.98-.66ZM112.39,270.66l.68-.62c.59.44,1.31,1.17,1.68,1.69l-.74.64c-.3-.48-1.12-1.33-1.61-1.7ZM111.14,275.95l-.35-1.4c1.3-.42,3.12-.65,4.64-.64v1.56c-1.4-.04-2.99.12-4.29.48ZM115.7,279.46l.03,1.62c-.44.03-.91.04-1.38.04-1.05,0-2.08-.07-2.73-.22-1.16-.27-1.73-1.07-1.72-1.98.01-.62.29-1.31.83-1.92l1.39.51c-.4.43-.6.82-.6,1.14,0,.71.66.88,2.46.88.58,0,1.21-.03,1.72-.08Z"/>
    <path class="cls-1" d="M100.83,280.3l-1.66,1.29c-1.12-1.3-3.07-3.11-5.01-4.6-.78-.61-.96-.98-.96-1.61,0-.43.14-.82.61-1.26,1.3-1.21,3.63-3.51,4.63-4.56l1.86,1.2c-.12.12-.27.18-.51.14-1.2,1.11-3.03,2.7-4.09,3.69-.29.29-.59.55-.59.73,0,.21.33.47.79.79,1.59,1.13,3.39,2.67,4.93,4.2Z"/>
    <path class="cls-1" d="M88.44,270.68l.25-.07,1.01.55c-.04.08-.1.16-.2.2-.44,1.21-1.09,2.27-1.89,3.18.84.58,1.82,1.05,2.9,1.35-.33.29-.75.87-.96,1.25l-.18-.07v4.58h-1.48v-.47h-2.65v.51h-1.42v-4.37c-.13.06-.26.12-.39.17-.1-.22-.31-.52-.52-.79l-.6.26c-.04-.2-.09-.42-.17-.65l-.69.05v5.33h-1.36v-4.2c-.07.09-.17.12-.27.1-.13,1.07-.39,2.31-.75,3.11-.29-.18-.78-.4-1.09-.55.33-.71.52-1.95.64-3.05l1.48.35v-1.01c-.59.04-1.11.07-1.53.08-.04.13-.14.18-.23.19l-.31-1.56h.94c.21-.26.43-.55.64-.85-.38-.57-.99-1.27-1.53-1.78l.75-1.07.29.26c.38-.73.75-1.6.99-2.29l1.52.62c-.05.08-.18.13-.35.13-.33.71-.86,1.69-1.31,2.4.16.18.31.36.44.53.46-.74.88-1.49,1.2-2.15l1.47.66c-.07.09-.2.14-.36.14-.6,1-1.51,2.3-2.35,3.34h1.35c-.14-.36-.33-.7-.49-1.01l1.12-.47c.4.69.83,1.53,1.07,2.25.79-.35,1.52-.81,2.18-1.34-.35-.38-.68-.79-.96-1.24-.29.35-.6.7-.95,1.03-.25-.32-.74-.79-1.08-1,1.31-1.13,2.18-2.65,2.64-3.93l1.73.27c-.03.12-.14.2-.31.21-.1.25-.23.52-.36.78h2.18ZM85.24,278.09v1.74h2.65v-1.74h-2.65ZM87.63,272h-2.11l-.12.18c.3.51.68,1,1.12,1.43.43-.48.81-1.03,1.1-1.61ZM84.94,276.75h3.63c-.71-.32-1.36-.73-1.96-1.2-.51.45-1.07.85-1.66,1.2ZM81.51,277.42l1.16-.38c.34.81.69,1.83.84,2.52-.38.13-.75.26-1.22.43-.12-.69-.47-1.77-.78-2.57Z"/>
    <path class="cls-1" d="M73.5,279.71h-1.52v-1.08h-3.43v-1.27h3.43v-.57h-2.7v-4.47h2.7v-.53h-3.28v-1.26h3.28v-1.09l1.86.09c-.01.13-.1.21-.34.25v.75h3.43v1.26h-3.43v.53h2.83v4.47h-2.83v.57h3.6v1.27h-3.6v1.08ZM71.98,273.42h-1.26v.61h1.26v-.61ZM74.83,274.03v-.61h-1.33v.61h1.33ZM70.72,275.06v.64h1.26v-.64h-1.26ZM73.5,275.69h1.33v-.64h-1.33v.64ZM65.26,270.64l1.2-.88c.74.58,1.65,1.46,2.07,2.08l-1.29.97c-.36-.62-1.23-1.53-1.98-2.17ZM65.21,274.51h2.96v4.2c.78,1.33,2.21,1.33,4.6,1.33,1.55,0,3.41-.04,4.65-.14-.18.36-.42,1.08-.49,1.52-.99.05-2.42.08-3.73.08-3,0-4.5,0-5.68-1.5-.52.51-1.07,1-1.53,1.39.01.16-.04.21-.17.27l-.77-1.64c.51-.34,1.09-.75,1.62-1.2v-2.87h-1.47v-1.44Z"/>
    <path class="cls-1" d="M57.68,274.42l-1.43-.71c.44-.35,1.14-.86,1.66-1.14h0c-.66.09-2.51.13-3.6.12,0-.4-.01-1.23-.04-1.6.25.01.56.01.91.01,2.4,0,4.71-.04,6.62-.39l.13,1.68c-1.86.32-3.47,1.4-4.25,2.04ZM64.49,273.91l-.7.64c-.33-.47-1.08-1.27-1.6-1.68l.68-.61c.6.45,1.26,1.14,1.62,1.65ZM63.06,275.29l-.73.62c-.3-.48-1.1-1.3-1.59-1.69l.68-.61c.56.43,1.27,1.14,1.64,1.68ZM62.48,278.79l.13,1.68c-1.04.17-2.55.26-3.9.26-1.13,0-2.16-.07-2.7-.18-1.68-.38-2.39-1.48-2.39-2.67,0-1.01.52-2,1.22-2.73l1.4.62c-.6.59-.95,1.24-.95,1.82,0,1.55,1.86,1.55,3.18,1.55s2.82-.12,4-.35Z"/>
    <path class="cls-1" d="M46.96,269.96l2.22.09c-.01.16-.12.25-.33.31.1,1.03.22,2.76.22,4.41-.01,2.51-.82,4.88-4.95,6.58-.22-.34-.83-.99-1.17-1.3,3.56-1.38,4.32-3.48,4.32-5.25s-.17-3.63-.31-4.84ZM43.33,276.9l-1.62.26c-.25-.91-.34-2.05-.35-2.82,0-.96.1-2.38.38-3.95l2.03.27c-.04.16-.2.21-.33.23-.29,1.07-.51,2.94-.46,3.68.25-.57.68-1.3.98-1.77.17.3.55.83.74,1.04-.83,1.23-1.4,2.2-1.4,2.74,0,.09.01.2.04.31Z"/>
    <path class="cls-1" d="M37.35,279.15l-1.07,1.53c-.87-.73-2.12-1.56-3.16-2.04.01.7-.19,1.34-.45,1.69-.26.58-1.03.94-2.22.96-1.85.01-3.34-.91-3.38-2.37-.01-1.57,1.53-2.34,3.16-2.37.3,0,.85.03,1.16.08,0-.21-.04-.39-.05-.57-.12-1.76-.27-4.78-.29-6.3l2.11.1c0,.13-.1.25-.32.3-.01.31.01,1.86.01,2.21.79-.03,2.61-.2,3.94-.44l.16,1.62c-1.18.2-2.9.34-4.08.36.01.91.1,1.73.13,2.34.03.2.05.43.07.65,1.5.48,3.06,1.31,4.3,2.24ZM31.43,278.07c-.39-.12-.79-.17-1.14-.17-1.36,0-1.74.55-1.74.98.01.7.79.99,1.68.99.77,0,1.25-.4,1.25-.97,0-.25-.01-.55-.04-.82Z"/>
    <path class="cls-1" d="M13.7,277.02h4.21v3.98h-2.86v.51h-1.35v-4.48ZM16.55,279.76v-1.51h-1.49v1.51h1.49ZM13.82,269.83h4.15v1.18h-4.15v-1.18ZM20.6,275.99v3.38c0,.55.1.64.73.64h1.87c.6,0,.69-.3.78-1.95.34.26,1.01.52,1.44.62-.2,2.18-.62,2.81-2.11,2.81h-2.17c-1.62,0-2.12-.45-2.12-2.09v-4.89h4.12v-2.95h-4.16v-1.48h5.73v6.42h-1.57v-.51h-2.55ZM18.47,272.82h-5.37v-1.23h5.37v1.23ZM17.95,274.6h-4.21v-1.18h4.21v1.18ZM17.95,276.38h-4.21v-1.17h4.21v1.17Z"/>
    <path class="cls-1" d="M12.05,271.65v1.53h-6.66c-.27.71-.6,1.43-.96,2.11h6.72v6.34h-1.65v-.65h-4.88v.71h-1.56v-4.34c-.57.71-1.23,1.35-1.99,1.9-.23-.39-.77-.99-1.08-1.3,1.66-1.13,2.82-2.87,3.6-4.77H.46v-1.53h3.7c.23-.75.42-1.51.56-2.24l1.99.44c-.04.12-.17.21-.38.21-.12.52-.26,1.05-.43,1.59h6.15ZM9.5,279.46v-2.65h-4.88v2.65h4.88Z"/>
    <path class="cls-1" d="M403.9,253.05c1.03,0,1.82.85,1.82,1.82s-.82,1.82-1.82,1.82-1.82-.82-1.82-1.82.82-1.82,1.82-1.82ZM403.9,256.09c.71,0,1.23-.57,1.23-1.22,0-.69-.55-1.24-1.23-1.24s-1.22.55-1.22,1.24.55,1.22,1.22,1.22Z"/>
    <path class="cls-1" d="M390.47,245.16l2.15.3c-.03.14-.14.23-.4.25-.49,2.3-.69,4.63-.69,5.72,0,.74.01,1.39.09,1.83.16-.38.66-1.48.83-1.9l.77,1.2c-.43.91-.88,1.62-1.08,2.25-.07.22-.1.43-.1.62,0,.16.03.31.07.45l-1.64.25c-.42-1.25-.6-2.91-.6-4.64s.27-4.19.61-6.33ZM394.53,248.33l-.05-1.57c1.48-.04,3.93-.21,5.5-.48l.14,1.61c-1.56.25-4.07.42-5.59.44ZM400.47,253.53l-.05,1.64c-.48.03-1,.04-1.49.04-.83,0-1.62-.04-2.21-.12-1.81-.25-2.53-1.21-2.53-2.31,0-.94.43-1.74,1.12-2.59l1.56.53c-.58.57-.96,1.17-.96,1.82,0,.98,1.17,1.08,2.72,1.08.62,0,1.3-.03,1.86-.09Z"/>
    <path class="cls-1" d="M386.73,245.03l.26-.05.98.4c-.03.09-.08.14-.13.2-.4,1.35-1.07,2.46-1.94,3.35.72.48,1.56.85,2.51,1.07-.31.29-.74.88-.94,1.27-1.04-.3-1.94-.77-2.69-1.35-.81.57-1.72,1.03-2.72,1.36-.16-.33-.44-.78-.7-1.09v2.28h-1.83v.78h2.16v1.36h-2.16v2.08h-1.39v-2.08h-2.18v-1.36h2.18v-.78h-1.77v-4.75h1.77v-.69h-2.05v-1.35h2.05v-1.25l1.72.1c-.01.12-.1.18-.33.22v.92h2v1.35h-2v.69h1.83v2.29c.86-.25,1.66-.62,2.37-1.12-.55-.65-.97-1.39-1.33-2.24l1.05-.29h-1.55v-1.34h4.82ZM378.29,248.81h-.79v.77h.79v-.77ZM379.34,249.58h.85v-.77h-.85v.77ZM378.29,250.6h-.79v.78h.79v-.78ZM379.34,251.38h.85v-.78h-.85v.78ZM385.92,246.36h-2.2c.26.6.62,1.13,1.07,1.61.45-.47.83-1.01,1.13-1.61ZM387.66,253.37h-2.03v1.66h2.6v1.37h-6.83v-1.37h2.68v-1.66h-2.02v-1.31h2.02v-1.46l1.89.1c-.01.12-.1.21-.34.25v1.11h2.03v1.31Z"/>
    <path class="cls-1" d="M365.94,248.86v-1.14c-.42.68-.88,1.29-1.38,1.79h8.46c-.03,3.16.14,5.64.91,5.64.2-.01.25-.7.27-1.77.3.36.69.75,1.01.98-.12,1.64-.4,2.34-1.4,2.34-1.91,0-2.3-2.51-2.38-5.88h-7.05v-1.16l-.17.16c-.3-.27-.92-.71-1.31-.94,1.23-.96,2.24-2.72,2.74-4.52l1.87.49c-.05.1-.17.17-.36.17-.07.22-.14.43-.23.65h7.79v1.3h-8.36l-.35.62h7.51v1.26h-7.58ZM364.42,252.35l1.12-1.03c.68.36,1.44.79,2.2,1.27.46-.53.85-1.1,1.16-1.7l1.72.65c-.05.1-.18.17-.38.14-.35.61-.77,1.2-1.24,1.73.83.58,1.59,1.17,2.09,1.69l-1.25,1.18c-.47-.51-1.17-1.11-1.96-1.7-1.03.94-2.2,1.72-3.45,2.29-.23-.31-.74-.88-1.07-1.16,1.17-.48,2.3-1.17,3.26-2.01-.74-.49-1.51-.96-2.21-1.35Z"/>
    <path class="cls-1" d="M357.31,246.31l.21,1.61c-.65.2-1.39.34-2.25.44,0,.61-.01,1.24-.01,1.78.88-.26,1.81-.43,2.48-.43,2.13,0,3.77,1.08,3.77,3.17,0,1.89-1.07,3.26-3.29,3.26-.9,0-1.73-.34-2.43-1.16.27-.34.58-.85.81-1.25.48.58,1.04.88,1.64.88,1.05,0,1.61-.74,1.61-1.74s-.75-1.78-2.15-1.78c-.7.01-1.6.17-2.44.44v2.57c0,1.2-.77,2.25-2.37,2.25-1.13,0-2.42-.64-2.42-2.22,0-.88.6-1.79,1.57-2.51.47-.34,1.04-.66,1.65-.92v-2.22c-.86.05-1.82.07-2.87.07l-.03-1.56c1.08,0,2.04-.01,2.9-.05v-2.21l2.05.05c0,.16-.13.27-.34.3-.04.51-.07,1.11-.09,1.7.73-.1,1.4-.26,1.99-.48ZM361.93,247.8l-.92,1.39c-.7-.65-1.88-1.33-2.92-1.73l.79-1.35c1.13.39,2.33,1.05,3.05,1.69ZM353.71,254.06c0-.32,0-1.09-.01-1.86-.75.45-1.74,1.04-1.74,1.91,0,.53.31.87.88.87.53,0,.87-.3.87-.92Z"/>
    <path class="cls-1" d="M341.67,249.42l-.03-1.49c.95.04,1.91,0,2.86-.04-.05-1.01-.09-1.9-.1-2.86l2.07.06c-.03.13-.12.25-.32.29v2.38c.9-.1,1.65-.26,2.27-.44l.13,1.59c-.57.17-1.39.3-2.34.36.04,1.17.1,2.37.16,3.21.9.39,1.77.92,2.42,1.5l-.85,1.53c-.42-.46-.95-.9-1.52-1.24-.17,1.65-1.36,1.92-2.47,1.92-1.6,0-2.56-.87-2.56-2.08,0-1.36,1.26-2.12,2.59-2.12.25,0,.51.03.78.07-.05-.69-.1-1.73-.16-2.68-.38.03-.83.04-1.12.04h-1.81ZM339.74,255.86l-1.56.09c-.36-1-.53-3.18-.53-4.97,0-1.9.29-3.86.66-5.89l2.04.39c-.03.13-.2.23-.36.26-.79,2.82-.79,4.82-.79,6.32,0,.44,0,.85.04,1.07.18-.51.6-1.57.81-2.07l.85,1.08c-.34.65-.82,1.74-1.08,2.47-.09.23-.13.44-.13.69,0,.17.01.35.06.56ZM344.89,253.84c0-.09,0-.25-.01-.36-.26-.09-.61-.16-.9-.16-.64,0-1.25.21-1.25.77,0,.49.55.74,1.21.74s.96-.39.95-.99Z"/>
    <path class="cls-1" d="M335.86,247.43l.12,1.59c-.68.05-1.62.17-2.61.31,0,1.07-.03,1.99-.17,2.64-.2.85-.82,1.35-1.77,1.35-.33,0-1.05-.08-1.9-.52.09-.31.14-.9.17-1.33.56.31,1.13.44,1.38.44.27,0,.53-.2.58-.48.07-.4.09-1.12.09-1.87-1.22.2-2.43.4-3.38.57.01,1.17.04,2.31.08,2.89.1,1.2.6,1.59,1.87,1.64.2.01.44.01.72.01,1,0,2.43-.07,3.41-.25l.04,1.52c-1.01.12-2.28.16-3.28.16-2.16,0-4.1-.12-4.34-2.98-.07-.6-.09-1.62-.12-2.7-.75.16-1.79.35-2.29.47l-.25-1.53c.6-.09,1.62-.26,2.52-.42-.01-1.12-.03-2.37-.03-3.22l2.08.16c-.01.16-.12.25-.36.3-.04.64-.03,1.61-.04,2.48.98-.17,2.17-.36,3.33-.56-.04-1.07-.09-2.33-.17-3.24l1.99.07c0,.13-.08.22-.29.3.05.75.07,1.74.09,2.6.91-.14,1.85-.3,2.52-.39Z"/>
    <path class="cls-1" d="M311.52,248.73l-.07-1.56c.73,0,1.82-.07,2.5-.18.01-.27.05-1.99.05-2.24l2.05.16c-.04.14-.13.25-.38.27-.05.61-.08,1.05-.12,1.59l.65.3c-.22.4-.65,1.25-.81,1.95,1.27-.9,2.64-1.34,3.76-1.34,2.17,0,3.63,1.47,3.63,3.85,0,2.85-2.17,4.09-5.5,4.39-.14-.44-.38-1.04-.61-1.46,2.91-.31,4.46-1.05,4.46-2.9,0-1.29-.68-2.38-2.12-2.38-1.12,0-2.53.57-3.64,1.53v2.3c0,1.23,0,2.47.03,3.26h-1.59v-4.38c-.39.64-1.26,1.66-1.98,2.22l-.75-1.43c.81-.69,1.49-1.43,2.02-2.09.21-.29.6-.9.74-1.21l.04-.91c-.43.09-1.44.2-2.37.25Z"/>
    <path class="cls-1" d="M300.83,250.02v-.94c-.65.47-1.34.91-2.04,1.29-.21-.36-.64-.94-.96-1.25,2.25-1.1,4.41-3.09,5.37-4.71l2.09.12c-.04.14-.16.23-.35.26,1.26,1.69,3.5,3.33,5.46,4.13-.38.39-.74.92-1.01,1.4-.66-.35-1.34-.77-2-1.23v.92h-6.55ZM301.42,248.64h5.34c-1.09-.85-2.08-1.79-2.72-2.67-.6.87-1.53,1.81-2.63,2.67ZM301.51,256.7h-1.53v-5.38h8.32v5.38h-1.6v-.48h-5.19v.48ZM306.7,254.84v-2.13h-5.19v2.13h5.19Z"/>
    <path class="cls-1" d="M285.86,245.86l2.13.39c-.04.12-.18.21-.34.22-.2,1.01-.34,2.38-.34,3.57,0,2.86.83,3.89,1.56,3.89.44,0,.99-1.3,1.27-2.38.31.31.95.82,1.33,1.04-.62,2.13-1.47,3.12-2.66,3.12-2.02,0-3-2.51-3.13-4.63-.03-.47-.05-.98-.05-1.51,0-1.18.08-2.48.23-3.72ZM296.97,251.96l-1.72.57c-.39-2.34-1.47-3.73-3.07-4.68l1.03-1.22c1.83.99,3.35,2.78,3.76,5.33Z"/>
    <path class="cls-1" d="M277.62,244.92v4.89h-3.47v6.88h-1.55v-11.76h5.02ZM282.08,246.82v-.72h-2.08v.72h2.08ZM278.51,244.92h5.14v9.89c0,1.6-.61,1.87-3.29,1.87-.05-.44-.3-1.18-.53-1.6.43.03.88.04,1.26.04.94,0,.99,0,.99-.34v-4.97h-3.56v-4.9ZM280,247.87v.77h2.08v-.77h-2.08ZM276.16,246.82v-.7h-2.02v.7h2.02ZM274.15,247.87v.75h2.02v-.75h-2.02ZM280.58,250.71v4.12h-3.63v.74h-1.46v-4.86h5.08ZM279.12,253.55v-1.56h-2.17v1.56h2.17Z"/>
    <path class="cls-1" d="M266.31,246.31l.21,1.61c-.65.2-1.39.34-2.25.44,0,.61-.01,1.24-.01,1.78.88-.26,1.81-.43,2.48-.43,2.13,0,3.77,1.08,3.77,3.17,0,1.89-1.07,3.26-3.29,3.26-.9,0-1.73-.34-2.43-1.16.27-.34.58-.85.81-1.25.48.58,1.04.88,1.64.88,1.05,0,1.61-.74,1.61-1.74s-.75-1.78-2.15-1.78c-.7.01-1.6.17-2.44.44v2.57c0,1.2-.77,2.25-2.37,2.25-1.13,0-2.42-.64-2.42-2.22,0-.88.6-1.79,1.57-2.51.47-.34,1.04-.66,1.65-.92v-2.22c-.86.05-1.82.07-2.87.07l-.03-1.56c1.08,0,2.04-.01,2.9-.05v-2.21l2.05.05c0,.16-.13.27-.34.3-.04.51-.07,1.11-.09,1.7.73-.1,1.4-.26,1.99-.48ZM270.93,247.8l-.92,1.39c-.7-.65-1.88-1.33-2.92-1.73l.79-1.35c1.13.39,2.33,1.05,3.05,1.69ZM262.71,254.06c0-.32,0-1.09-.01-1.86-.75.45-1.74,1.04-1.74,1.91,0,.53.31.87.88.87.53,0,.87-.3.87-.92Z"/>
    <path class="cls-1" d="M251.6,247.15l1.62.36c-.05.12-.21.22-.39.22-.53,4.45-1.83,7.02-4.07,7.02-1.42,0-2.44-1.2-2.44-3.41,0-3.33,2.65-5.77,5.97-5.77,3.68,0,5.56,2.18,5.56,5.01,0,3.05-1.57,4.64-4.85,5.47-.25-.39-.61-.94-1.04-1.38,2.96-.59,4.15-2,4.15-4.07s-1.46-3.51-3.85-3.51c-.23,0-.44.03-.66.05ZM248.82,253.14c1.27,0,2.12-2.85,2.34-5.89-1.98.47-3.24,2.17-3.24,4.03,0,1.09.33,1.86.9,1.86Z"/>
    <path class="cls-1" d="M234.3,252.18l-1.34-1.65c.74-.71,2.18-2.24,2.82-2.9.79-.83,1.38-1.1,2.05-1.1.94,0,1.53.45,2.44,1.57.94,1.17,3.11,3.56,5.01,5.33l-1.26,1.48c-1.69-1.56-3.77-3.99-4.56-5.02-.84-1.09-1.18-1.6-1.64-1.6-.39,0-.78.44-1.52,1.34-.43.51-1.29,1.51-1.81,2.09.01.26-.08.36-.2.46Z"/>
    <path class="cls-1" d="M224.6,246.78l1.03.57c-.04.09-.12.16-.22.2-.39,1.01-.95,2.01-1.61,2.92.64.44,1.72,1.24,2.02,1.47l-.91,1.29c-.3-.36-.81-.87-1.3-1.33v4.8h-1.55v-4.22c-.51.48-1.03.88-1.56,1.22-.13-.4-.51-1.17-.75-1.47,1.49-.83,2.93-2.33,3.8-3.98h-3.39v-1.4h1.91v-2.42l1.9.1c-.01.13-.12.21-.35.25v2.07h.77l.23-.07ZM229.54,249.98v4.8h2.8v1.53h-7.44v-1.53h3.03v-4.8h-2.5v-1.51h2.5v-3.93l1.96.12c-.01.13-.12.21-.35.25v3.56h2.48v1.51h-2.48Z"/>
    <path class="cls-1" d="M216.14,249.8h-6.11v-.96c-.7.48-1.46.94-2.24,1.3-.18-.35-.59-.96-.91-1.27,2.26-1,4.39-2.89,5.36-4.45l2.11.1c-.04.13-.16.23-.34.26,1.21,1.62,3.39,3.09,5.37,3.81-.39.39-.74.95-1.01,1.43-.73-.34-1.49-.78-2.22-1.27v1.05ZM210.65,248.37h4.95c-1.01-.75-1.94-1.61-2.54-2.43-.56.79-1.4,1.65-2.42,2.43ZM210.73,252.33h-3.03v-1.46h10.85v1.46h-6.11l.39.13c-.05.1-.18.16-.39.16-.27.64-.65,1.38-1.04,2.07,1.29-.03,2.69-.07,4.1-.1-.44-.51-.91-1-1.36-1.42l1.38-.72c1.17,1.01,2.39,2.38,3,3.37l-1.46.88c-.14-.26-.34-.55-.56-.86-2.94.18-5.95.34-7.94.43-.03.12-.13.19-.25.21l-.55-1.72c.55-.01,1.2-.01,1.92-.04.38-.73.75-1.61,1.04-2.39Z"/>
    <path class="cls-1" d="M205.97,246.65v1.52h-3.54c.25,3.65,1.03,6.84,1.98,6.85.29,0,.47-.73.52-2.38.36.38.92.79,1.37.96-.25,2.51-.78,3.09-2.03,3.09-2.25-.01-3.2-3.98-3.51-8.53h-6.54v-1.52h6.46c-.03-.73-.04-1.46-.04-2.17l2.11.12c0,.14-.12.23-.38.27-.01.6-.01,1.18,0,1.78h2.07c-.36-.44-1.01-1-1.55-1.39l1.03-.86c.6.42,1.36,1.01,1.73,1.46l-.91.79h1.23ZM200.31,251.12h-2.05v2.98c.81-.14,1.65-.3,2.46-.45l.1,1.38c-2.11.48-4.35.95-5.78,1.24-.03.13-.13.21-.23.23l-.57-1.73c.68-.1,1.53-.23,2.48-.4v-3.24h-2v-1.46h5.6v1.46Z"/>
    <path class="cls-1" d="M184.24,248.56v.66c.36.48,1.4,2.05,1.64,2.42l-.86,1.17c-.17-.43-.47-1.05-.78-1.64v5.5h-1.44v-4.94c-.36,1.04-.79,1.99-1.26,2.65-.13-.43-.48-1.04-.72-1.42.78-1.04,1.49-2.83,1.86-4.41h-1.53v-1.44h1.65v-2.7l1.78.1c-.01.12-.1.2-.34.23v2.37h1.43v1.44h-1.43ZM193.1,249.82v1.44h-2.21c.7,1.21,1.66,2.43,2.54,3.18-.36.27-.9.82-1.17,1.23-.69-.75-1.43-1.86-2.04-3.02v4h-1.55v-3.86c-.7,1.23-1.57,2.34-2.47,3.08-.25-.36-.74-.92-1.09-1.21,1.12-.77,2.21-2.05,2.94-3.42h-2.39v-1.44h3.02v-1.78h-1.22c-.18.56-.38,1.09-.62,1.53-.33-.21-.9-.51-1.25-.64.59-1.08.95-2.81,1.11-4.07l1.72.36c-.04.09-.14.17-.31.17-.07.35-.16.77-.25,1.21h.83v-2.2l1.9.1c-.01.13-.12.21-.35.26v1.83h2.52v1.43h-2.52v1.78h2.89Z"/>
    <path class="cls-1" d="M176.71,245.59l1.29.7c-.04.1-.13.18-.23.22-.73,1.68-1.4,2.89-2.43,4.3,1.27,1.04,3.18,2.77,4.34,4l-1.44,1.27c-1.01-1.21-2.87-3.07-3.97-3.99-1.22,1.38-2.91,2.96-4.6,3.98-.26-.35-.83-.95-1.21-1.25,3.24-1.75,5.88-4.88,7.05-7.59h-5.86v-1.56h6.8l.27-.09Z"/>
    <path class="cls-1" d="M165.47,244.71l.69-.62c.57.45,1.26,1.17,1.64,1.68l-.75.62c-.3-.44-1.04-1.23-1.57-1.68ZM163.41,245.07l.69-.62c.57.44,1.27,1.18,1.65,1.68l-.74.65c-.34-.49-1.11-1.3-1.6-1.7ZM164.72,246.92l1.35.78c-.05.1-.18.2-.29.25-1.52,4.47-3.55,6.81-6.89,8.5-.26-.38-.74-.92-1.21-1.26,3.07-1.46,4.94-3.5,5.98-6.63h-3.68c-.66.99-1.6,2.04-2.68,2.89-.31-.33-.9-.78-1.33-1.05,1.7-1.17,3.25-3.37,4.02-5.63l2.07.48c-.05.14-.22.22-.42.23-.22.47-.52,1.12-.75,1.55h3.58l.25-.1Z"/>
    <path class="cls-1" d="M143.41,247.09l.77-1.42c1.3.4,2.86,1.09,3.81,1.72l-.86,1.48c-.94-.62-2.47-1.34-3.72-1.78ZM144.92,256.14l-1.18-1.66c4.38-1.35,7.4-3.9,8.9-7.48.48.39,1.04.7,1.52.96-1.61,3.55-4.72,6.32-9.02,7.84-.03.14-.1.29-.22.34Z"/>
    <path class="cls-1" d="M138.17,247.13l1.4.98c-.08.09-.21.12-.39.09-.81.79-1.86,1.6-2.77,2.29.14.05.26.09.35.13-.04.09-.14.17-.3.2v5.55h-1.38v-5.03c-.94.64-2.65,1.66-3.77,2.17-.17-.29-.53-.78-.79-1.01,4.21-1.94,6.83-4.45,7.64-5.36Z"/>
    <path class="cls-1" d="M129.46,245.9l-.77.55c-.27-.49-.9-1.35-1.38-1.83l.7-.53c.51.51,1.13,1.3,1.44,1.82ZM127.65,246.22l-.78.57c-.14-.3-.39-.68-.65-1.03v1.18h-7.14v-1.52h6.86c-.16-.2-.33-.38-.47-.51l.74-.55c.51.49,1.12,1.31,1.43,1.85ZM122.44,250.43h-4.55v-1.52h10.27v1.52h-3.94l.26.08c-.03.09-.13.17-.3.17-.34,2.05-1.34,4.37-3.9,5.67-.25-.27-.92-.83-1.27-1.08,2.48-1.27,3.2-2.92,3.43-4.84Z"/>
    <path class="cls-1" d="M111.25,245.51v8.09c1.74-.96,2.81-2.72,3.39-4.73.34.29,1.08.7,1.47.9-.94,2.69-2.46,4.59-5.21,5.95-.07.13-.2.26-.3.32l-1.22-1.43.21-.27v-9.24l2.03.1c-.03.14-.12.27-.36.31ZM105.88,246.7l2.03.13c-.01.14-.13.26-.34.29-.07,3.73-.42,6.75-2.2,9.15-.38-.25-1-.61-1.46-.85,1.73-2.02,1.96-5.39,1.96-8.72Z"/>
    <path class="cls-1" d="M91.58,251.42l-.1-1.89h10.85v1.64h-10.31c-.08.13-.26.22-.44.25Z"/>
    <path class="cls-1" d="M88.9,248.91h-4.08v5.37c0,.85-.31,1.38-.86,1.65-.55.3-1.26.3-2.57.29-.08-.42-.26-1.04-.44-1.49.57.03,1.48.03,1.74.03.35,0,.47-.16.47-.44v-5.39h-4.1v-1.55h4.1v-2.46l2.04.09c-.01.16-.13.29-.38.31v2.05h4.08v1.55ZM85.79,250.82l1.34-.69c.92,1.05,1.92,2.52,2.51,3.59l-1.48.86c-.49-1.09-1.6-2.85-2.37-3.76ZM80.49,250.25l1.48.56c-.6,1.5-1.34,2.82-2.28,3.76l-1.36-.83c.87-.83,1.64-2,2.16-3.48Z"/>
    <path class="cls-1" d="M70.99,248.89c.94,0,1.66.78,1.66,1.66s-.75,1.66-1.66,1.66-1.66-.75-1.66-1.66.75-1.66,1.66-1.66Z"/>
    <path class="cls-1" d="M60.61,245.59l1.29.7c-.04.1-.13.18-.23.22-.73,1.68-1.4,2.89-2.43,4.3,1.27,1.04,3.18,2.77,4.34,4l-1.44,1.27c-1.01-1.21-2.87-3.07-3.97-3.99-1.22,1.38-2.91,2.96-4.6,3.98-.26-.35-.83-.95-1.21-1.25,3.24-1.75,5.88-4.88,7.05-7.59h-5.86v-1.56h6.8l.27-.09Z"/>
    <path class="cls-1" d="M42.98,245.64v8.35c2.82-.82,5.24-2.47,6.62-4.86.29.39.87.91,1.18,1.2-1.66,2.72-4.73,4.63-8.53,5.6-.04.12-.14.26-.27.31l-.91-1.51.2-.33v-9.19l2.12.1c-.01.16-.13.29-.4.33Z"/>
    <path class="cls-1" d="M35.65,245.56c0-.81.66-1.4,1.4-1.4.78,0,1.4.62,1.4,1.4s-.62,1.4-1.4,1.4-1.4-.64-1.4-1.4ZM37.06,246.47c.53,0,.91-.43.91-.91,0-.51-.4-.91-.91-.91s-.91.4-.91.91.42.91.91.91ZM27.1,247.91v-1.59h8.12l.12-.07,1.44,1.03c-.06.07-.13.13-.23.18-1.16,4.86-3.37,7.21-7.35,8.77-.23-.42-.71-1.03-1.04-1.37,3.52-1.31,5.72-3.57,6.4-6.97h-7.46Z"/>
    <path class="cls-1" d="M22.59,244.83l1.64,1.2c-.08.1-.21.16-.42.14-1.01.99-2.27,2.04-3.51,2.95.14.04.29.1.42.14-.04.12-.16.22-.38.25v6.79h-1.73v-6.11c-1.16.78-2.89,1.74-4.32,2.43-.21-.36-.65-.96-.99-1.26,3.39-1.51,7.29-4.21,9.28-6.53Z"/>
    <path class="cls-1" d="M11.89,247.59v1.56h-2.4v.57c0,2.72-.91,5.08-4.08,6.59-.3-.34-.79-.83-1.2-1.13,2.98-1.34,3.63-3.32,3.63-5.45v-.59h-3.35v2.94h-1.64v-2.94H.6v-1.56h2.25v-2.6l2.03.13c-.01.13-.14.29-.39.33v2.14h3.35v-2.77l2.04.12c-.01.14-.14.26-.39.3v2.35h2.4Z"/>
  </g>
</svg>