<?xml version="1.0" encoding="UTF-8"?>
<svg id="_レイヤー_2" xmlns="http://www.w3.org/2000/svg" xmlns:xlink="http://www.w3.org/1999/xlink" version="1.1" viewBox="0 0 70 70">
  <!-- Generator: Adobe Illustrator 29.6.1, SVG Export Plug-In . SVG Version: 2.1.1 Build 9)  -->
  <defs>
    <style>
      .st0 {
        fill: none;
      }

      .st1 {
        fill: #fff;
      }

      .st1, .st2 {
        fill-rule: evenodd;
      }

      .st2 {
        fill: #15346e;
      }

      .st3 {
        clip-path: url(#clippath);
      }
    </style>
    <clipPath id="clippath">
      <rect class="st0" width="70" height="70"/>
    </clipPath>
  </defs>
  <g id="_レイヤー_1-2">
    <g class="st3">
      <g>
        <path class="st2" d="M31.4,0c1,0,1.9,0,2.9.3l.3,5.3c1.3,0,2.5.3,3.6.7l2.3-4.7c1.9.4,3.7,1.2,5.3,2.2l-1.7,5c1.1.5,2.2,1.2,3.1,2l4-3.5c1.5,1.1,2.9,2.5,4.1,4.1l-3.5,4c.8.9,1.5,1.9,2,3.1l5-1.7c1,1.6,1.8,3.4,2.2,5.3l-4.7,2.3c.4,1.1.7,2.3.7,3.6l5.3.4.3,2.9c0,1,0,1.9-.3,2.9l-5.3.3c0,1.3-.3,2.5-.7,3.6l4.7,2.3c-.4,1.9-1.2,3.7-2.2,5.3l-5-1.7c-.5,1.1-1.2,2.2-2,3.1l3.5,4c-1.1,1.5-2.5,2.9-4.1,4.1l-4-3.5c-.9.8-1.9,1.5-3.1,2l1.7,5c-1.6,1-3.4,1.8-5.3,2.2l-2.3-4.7c-1.1.4-2.3.7-3.6.7l-.3,5.3-2.9.3c-1,0-1.9,0-2.9-.3l-.4-5.3c-1.3,0-2.5-.3-3.6-.7l-2.3,4.7c-1.9-.4-3.7-1.2-5.3-2.2l1.7-5c-1.1-.5-2.1-1.2-3.1-2l-4,3.5c-1.6-1.1-2.9-2.5-4.1-4.1l3.5-4c-.9-.9-1.5-1.9-2-3.1l-5,1.7c-1-1.6-1.8-3.4-2.2-5.3l4.7-2.3c-.4-1.1-.7-2.3-.7-3.6l-5.3-.3-.3-2.9c0-1,0-1.9.3-2.9l5.3-.4c0-1.3.3-2.5.7-3.6l-4.7-2.3c.4-1.9,1.2-3.7,2.2-5.3l5,1.7c.5-1.1,1.2-2.1,2-3.1l-3.5-4c1.1-1.6,2.5-2.9,4.1-4.1l4,3.5c.9-.9,1.9-1.5,3.1-2l-1.7-5c1.6-1,3.4-1.8,5.3-2.2l2.3,4.7c1.1-.4,2.3-.7,3.6-.7l.4-5.3S31.4,0,31.4,0ZM31.4,12.2c-10.5,0-19,8.5-19,19s8.5,19,19,19,19-8.5,19-19-8.5-19-19-19Z"/>
        <path class="st2" d="M31.4,15.1c8.9,0,16.2,7.2,16.2,16.2s-7.2,16.2-16.2,16.2-16.2-7.2-16.2-16.2,7.2-16.2,16.2-16.2ZM31.4,19.1c-6.7,0-12.1,5.4-12.1,12.1s5.4,12.1,12.1,12.1,12.1-5.4,12.1-12.1-5.4-12.1-12.1-12.1Z"/>
        <path class="st1" d="M31.6,50.9c0-10.6,8.6-19.1,19.1-19.1s19.1,8.6,19.1,19.1-8.6,19.1-19.1,19.1-19.1-8.6-19.1-19.1Z"/>
        <path class="st2" d="M50.7,51.8c-.6,0-1.2-.5-1.2-1.2s.5-1.2,1.2-1.2,1.2.6,1.2,1.2-.5,1.2-1.2,1.2ZM59,53.6l-5.6-3.2c0-.8-.5-1.6-1.2-2.1v-9.7c0-.9-.7-1.6-1.6-1.6s-1.6.7-1.6,1.6v9.7c-.7.6-1.2,1.4-1.2,2.3,0,1.5,1.2,2.8,2.8,2.8s.8,0,1.2-.3l5.6,3.3c.2.1.5.2.8.2.5,0,1.1-.3,1.4-.8.4-.8.2-1.7-.6-2.2Z"/>
        <path class="st2" d="M50.9,65.2c-8,0-14.5-6.5-14.5-14.5s6.5-14.4,14.5-14.4,14.5,6.4,14.5,14.4-6.5,14.5-14.5,14.5ZM50.9,33c-9.7,0-17.7,7.9-17.7,17.6s7.9,17.7,17.7,17.7,17.7-8,17.7-17.7-7.9-17.6-17.7-17.6Z"/>
      </g>
    </g>
  </g>
</svg>