<?xml version="1.0" encoding="UTF-8"?>
<svg id="_レイヤー_2" data-name="レイヤー 2" xmlns="http://www.w3.org/2000/svg" xmlns:xlink="http://www.w3.org/1999/xlink" viewBox="0 0 70 70">
  <defs>
    <style>
      .cls-1 {
        fill: none;
      }

      .cls-2 {
        fill: #141414;
        fill-rule: evenodd;
      }

      .cls-3 {
        clip-path: url(#clippath);
      }
    </style>
    <clipPath id="clippath">
      <rect class="cls-1" width="70" height="70"/>
    </clipPath>
  </defs>
  <g id="_レイヤー_1-2" data-name="レイヤー 1">
    <g class="cls-3">
      <path class="cls-2" d="M9.91,19.2h21.2l-9.8,7.33H0l9.91-7.33ZM49.13,19.2h21.31l-9.71,7.33h-21.63l10.03-7.33ZM34.31,19.32h11.4l-9.48,7.21v24.27h-12.06v-24.27l10.14-7.21ZM59.04,20.78h-.53l-.32.23h-.43l-.32.09-.11.11-.09.21v.23l.21.41.32.43.11.3v.64h-.11v.32l.11.21.21.23.21.21.23.21.09.11h.32l.11-.11.09-.41v-1.28l.11-.11h.76l.32-.21.09-.09.11-.32.21-.11.11-.32-.11-.21-.21-.11-.21-.32-.43-.09-.64-.23h-.21ZM21.72,21.1h0l-.09.11-.11.21h-.21l-.11.11h-.64l-.41-.11h-.43v1.17l.11.64v.21l.09.32.23.11.21.32.21.21.21.21h.11l.21-.32.11-.09.11-.43v-.32l.21-.21.11-.32v-.32l.09-.21v-.73l.23-.11v-.43h-.23ZM52.22,21.22h-.21l-.11.21-.43.64-.41.85-.11.85.11.43.21.09h.32l.32-.09.11-.23.21-.21.11-.32v-.21l-.11-.43v-.41l-.21-.32-.11-.41v-.23l.11-.21h.21ZM54.14,21.42h-.32l-.23.23-.21.3-.11.11v.85l.11.11h.85v.21l-.09.21-.11.32-.21.11-.11.09-.32.23-.11.21-.09.21v.21h.09l.32.23h.55l.73-.23.55-.09.41-.11.21-.21.23-.21-.23-.32-.09-.32-.32-.32-.11-.43-.21-.41-.32-.43-.32-.3-.21-.23h-.32ZM70.44,21.65v2.54l-9.71,7.21h-21.95v-2.34h21.95l9.71-7.42ZM17.9,21.65h-.32l-.32.09-.11.32-.09.11-.11.32-.21.09v.21l.21.23.21.32.32.41.43.43.21.09h.43v-.09l.21-.32.11-.11v-.21l.21-.32.21-.43v-.41h-.21l-.11-.21-.21-.11h-.21l-.23-.11h-.21l-.11-.21-.09-.09ZM48.6,21.65v.09l-.23.21-.09.11-.11.11-.32.32-.21.3-.32.23-.32.32-.23.21v.32h.43l.21.09h.23l.21.23.11.09h.32l.41-.09.32-.23.43-.21.21-.21.11-.21.21-.32.11-.11-.11-.11-.21-.21h-.32l-.21-.21-.23-.21-.21-.23-.11-.21-.09-.09ZM9.91,21.74l-.32.21-.11.11-.11.32-.09.41-.23.23-.21.32-.21.21v.64l.32.09h3.5l.76.11.76-.11.41-.32.11-.21.21-.41.11-.32-.11-.43-.21-.09-.23-.32-.41-.11-.32-.11-.43-.21h-.53l-.32.21-.11.23-.09.32-.23.09h-.09l-.11.21-.32-.21-.21-.21-.32-.21-.11-.11-.32-.11-.32-.21h-.09ZM70.44,26.53v2.54l-9.71,7.21h-21.95v-2.45h21.95l9.71-7.3ZM-.44,29.07h22.07v2.34H-.44v-2.34ZM70.44,31.41v2.43l-9.71,7.21h-21.95v-2.34h21.95l9.71-7.3ZM-.44,33.83h22.07v2.45H-.44v-2.45ZM70.44,36.28v2.43l-9.71,7.21h-21.95v-2.34h21.95l9.71-7.3ZM-.44,38.71h22.07v2.34H-.44v-2.34ZM70.44,41.04v2.54l-9.71,7.21h-21.95v-2.34h21.95l9.71-7.42ZM-.44,43.59h22.07v2.34H-.44v-2.34ZM-.44,48.46h22.07v2.34H-.44v-2.34Z"/>
    </g>
  </g>
</svg>