<svg id="グループ_121373" data-name="グループ 121373" xmlns="http://www.w3.org/2000/svg" xmlns:xlink="http://www.w3.org/1999/xlink" width="70" height="70" viewBox="0 0 70 70">
  <defs>
    <clipPath id="clip-path">
      <rect id="長方形_30231" data-name="長方形 30231" width="70" height="70" fill="none"/>
    </clipPath>
  </defs>
  <g id="グループ_121372" data-name="グループ 121372" clip-path="url(#clip-path)">
    <path id="パス_13982" data-name="パス 13982" d="M67.56,33.634a1,1,0,0,1-.707-.293L46.092,12.58a1,1,0,0,1,1.414-1.414L68.267,31.927a1,1,0,0,1-.707,1.707" fill="#333"/>
    <path id="パス_13983" data-name="パス 13983" d="M37.155,18.156H27.913a6.542,6.542,0,0,1-4.628-1.9L21,14.015a1,1,0,1,1,1.4-1.429l2.292,2.24a4.556,4.556,0,0,0,3.226,1.33h9.242a1,1,0,0,1,0,2" fill="#333"/>
    <path id="パス_13984" data-name="パス 13984" d="M2.44,33.634a1,1,0,0,1-.707-1.707L22.494,11.166a1,1,0,0,1,1.414,1.414L3.147,33.341a1,1,0,0,1-.707.293" fill="#333"/>
    <path id="パス_13985" data-name="パス 13985" d="M40.062,59.1a4.268,4.268,0,0,1-2.459-.775.949.949,0,0,1-.749-.293,1,1,0,0,1,0-1.414l.184-.183a1,1,0,0,1,1.413,0,2.277,2.277,0,0,0,3.219-3.22l-1.848-1.848a1,1,0,0,1,1.414-1.414L43.086,51.8a4.274,4.274,0,0,1-3.024,7.3" fill="#333"/>
    <path id="パス_13986" data-name="パス 13986" d="M45.652,55.42a4.249,4.249,0,0,1-3.024-1.253l-6.446-6.445A1,1,0,0,1,37.6,46.308l6.446,6.445a2.332,2.332,0,0,0,3.22,0,2.277,2.277,0,0,0,0-3.22L43.5,45.774a1,1,0,0,1,1.414-1.415l3.759,3.76a4.277,4.277,0,0,1-3.024,7.3" fill="#333"/>
    <path id="パス_13987" data-name="パス 13987" d="M51.242,51.741a4.245,4.245,0,0,1-3.024-1.253l-7.4-7.4a1,1,0,0,1,1.414-1.414l7.4,7.4a2.329,2.329,0,0,0,3.22,0,2.277,2.277,0,0,0,0-3.22l-7.4-7.4a1,1,0,0,1,1.414-1.414l7.4,7.4a4.277,4.277,0,0,1-3.024,7.3" fill="#333"/>
    <path id="パス_13988" data-name="パス 13988" d="M29.9,59.125a4.274,4.274,0,0,1-3.025-7.3l1.849-1.848a4.277,4.277,0,1,1,6.048,6.048l-1.848,1.848a4.262,4.262,0,0,1-3.024,1.25m2.317-1.957h0Zm-.469-6.442a2.254,2.254,0,0,0-1.609.667l-1.849,1.848a2.277,2.277,0,0,0,3.22,3.22l1.848-1.848a2.277,2.277,0,0,0-1.61-3.887" fill="#333"/>
    <path id="パス_13989" data-name="パス 13989" d="M16.127,45.1A4.276,4.276,0,0,1,13.1,37.8l3.759-3.76a4.277,4.277,0,0,1,6.048,6.049l-3.759,3.759A4.252,4.252,0,0,1,16.127,45.1m3.759-10.311a2.273,2.273,0,0,0-1.61.665l-3.759,3.76a2.277,2.277,0,1,0,3.22,3.22L21.5,38.674a2.276,2.276,0,0,0-1.61-3.886" fill="#333"/>
    <path id="パス_13990" data-name="パス 13990" d="M24.314,55.447a4.275,4.275,0,0,1-3.024-7.3l3.759-3.759A4.277,4.277,0,1,1,31.1,50.437L27.338,54.2a4.262,4.262,0,0,1-3.024,1.25m2.317-1.957h0Zm1.442-8.353a2.274,2.274,0,0,0-1.61.666L22.7,49.562a2.277,2.277,0,0,0,3.22,3.221l3.759-3.76a2.276,2.276,0,0,0-1.61-3.886" fill="#333"/>
    <path id="パス_13991" data-name="パス 13991" d="M18.725,51.768a4.275,4.275,0,0,1-3.025-7.3l5.671-5.67a4.277,4.277,0,1,1,6.048,6.049l-5.67,5.67a4.264,4.264,0,0,1-3.024,1.25m2.316-1.957h0ZM24.4,39.548a2.271,2.271,0,0,0-1.61.665l-5.671,5.67a2.277,2.277,0,0,0,3.22,3.221L26,43.434a2.276,2.276,0,0,0-1.61-3.886" fill="#333"/>
    <path id="パス_13992" data-name="パス 13992" d="M57.116,35.042a1,1,0,0,1-.707-1.707l5.926-5.926a1,1,0,0,1,1.414,1.414l-5.926,5.926a1,1,0,0,1-.707.293" fill="#333"/>
    <path id="パス_13993" data-name="パス 13993" d="M53.869,45.041a4.4,4.4,0,0,1-3.115-1.284L48.137,41.14a1,1,0,1,1,1.414-1.414l2.617,2.617a2.339,2.339,0,0,0,3.224.115,2.275,2.275,0,0,0,.057-3.274L43.134,26.869A3.936,3.936,0,0,0,40.2,25.662l-5.615.03-2.434,2.434a7.573,7.573,0,0,1-8.571,1.489,2.654,2.654,0,0,1-.738-4.276l7.378-7.377a6.121,6.121,0,0,1,4.359-1.806h7.485a4.545,4.545,0,0,0,3.221-1.326L47.518,12.6a1,1,0,1,1,1.416,1.412L46.7,16.247a6.546,6.546,0,0,1-4.633,1.909H34.581a4.138,4.138,0,0,0-2.945,1.22l-7.378,7.377a.653.653,0,0,0-.182.578.642.642,0,0,0,.361.476,5.565,5.565,0,0,0,6.3-1.095l2.725-2.725a1,1,0,0,1,.7-.293l6.027-.032h.026a6.159,6.159,0,0,1,4.33,1.793L56.863,37.77a4.246,4.246,0,0,1-2.994,7.271" fill="#333"/>
    <path id="パス_13994" data-name="パス 13994" d="M49.157,32.476a1,1,0,0,1-.707-1.707,5.594,5.594,0,0,0,0-7.91,1,1,0,1,1,1.414-1.414,7.593,7.593,0,0,1,0,10.738,1,1,0,0,1-.707.293" fill="#333"/>
    <path id="パス_13995" data-name="パス 13995" d="M15.581,37.738a1,1,0,0,1-.707-.293L6.251,28.823a1,1,0,0,1,1.414-1.414l8.623,8.622a1,1,0,0,1-.707,1.707" fill="#333"/>
    <path id="パス_13996" data-name="パス 13996" d="M15.577,37.742a1,1,0,0,1-.707-.293,7.593,7.593,0,0,1,0-10.738,1,1,0,0,1,1.414,1.414,5.594,5.594,0,0,0,0,7.91,1,1,0,0,1-.707,1.707" fill="#333"/>
  </g>
</svg>
