<?xml version="1.0" encoding="UTF-8"?>
<svg id="_レイヤー_2" data-name="レイヤー 2" xmlns="http://www.w3.org/2000/svg" xmlns:xlink="http://www.w3.org/1999/xlink" viewBox="0 0 70 70">
  <defs>
    <style>
      .cls-1 {
        fill: none;
      }

      .cls-2 {
        fill: #141414;
        fill-rule: evenodd;
      }

      .cls-3 {
        clip-path: url(#clippath);
      }
    </style>
    <clipPath id="clippath">
      <rect class="cls-1" width="70" height="70"/>
    </clipPath>
  </defs>
  <g id="_レイヤー_1-2" data-name="レイヤー 1">
    <g class="cls-3">
      <g>
        <path class="cls-2" d="M68.56,14.88h-7.73c-1.34,7.12-3.75,12.58-7.25,17.29-3.4,4.58-7.63,8.7-12.82,11.59-7.52,4.25-17.9,7.63-30.13,5.81-1.44-.24-2.89-.59-4.95-1.07-.96-.24-4.23-.99-4.09-1.82.24-1.34,2.52-.48,3.75-.37,10.62.86,18.97-3.26,24.54-7.84,7.25-5.7,11.72-12.82,13.78-23.47-2.78-.24-6.15,0-9.18-.11,1.31-1.34,2.78-2.54,4.23-3.75,3.99-3.64,8.35-7.25,12.44-10.89.13-.11.24-.24.37-.24.11,0,.11.13.24.13,2.65,2.52,5.67,4.82,8.46,7.36,2.78,2.41,5.7,4.84,8.35,7.39Z"/>
        <path class="cls-2" d="M62.43,17.02h.35v52.98h-8.75v-30.34c0-1.44-.24-3.13,0-4.23.11-.72.83-1.2,1.31-1.93,3.24-4.58,5.75-10.11,7.09-16.14v-.35Z"/>
        <path class="cls-2" d="M49.8,70h-8.86v-23.52c.48-.72,1.34-.96,2.19-1.44,2.06-1.31,4.25-3,6.18-4.55.13-.11.13-.35.37-.35.24,9.69,0,19.94.11,29.86Z"/>
        <path class="cls-2" d="M36.34,48.17h.11v21.83h-8.67v-19.05c2.97-.72,5.94-1.58,8.56-2.78Z"/>
        <path class="cls-2" d="M10.44,51.8v18.2H1.44v-19.88c0-.24,0-.35.13-.35,2.92.72,5.7,1.55,8.86,2.03Z"/>
        <path class="cls-2" d="M23.41,51.7c.51.11.27.72.27.96.11,5.54-.13,11.67,0,17.34h-9.07v-17.95c2.6,0,6.21,0,8.8-.35Z"/>
      </g>
    </g>
  </g>
</svg>