<?xml version="1.0" encoding="UTF-8"?>
<svg id="_レイヤー_2" data-name="レイヤー 2" xmlns="http://www.w3.org/2000/svg" xmlns:xlink="http://www.w3.org/1999/xlink" viewBox="0 0 70 70">
  <defs>
    <style>
      .cls-1 {
        fill: none;
      }

      .cls-2 {
        fill: #fff;
      }

      .cls-2, .cls-3 {
        fill-rule: evenodd;
      }

      .cls-3 {
        fill: #141414;
      }

      .cls-4 {
        clip-path: url(#clippath);
      }
    </style>
    <clipPath id="clippath">
      <rect class="cls-1" width="70" height="70"/>
    </clipPath>
  </defs>
  <g id="_レイヤー_1-2" data-name="レイヤー 1">
    <g class="cls-4">
      <g>
        <path class="cls-3" d="M31.4,0c.98,0,1.94.05,2.86.3l.35,5.26c1.28.03,2.48.27,3.63.71l2.34-4.74c1.91.44,3.68,1.17,5.32,2.21l-1.69,5.02c1.14.52,2.15,1.2,3.08,2.04l3.98-3.49c1.55,1.12,2.94,2.51,4.06,4.06l-3.49,3.98c.85.93,1.53,1.94,2.04,3.08l5.02-1.69c1.04,1.64,1.77,3.41,2.21,5.32l-4.74,2.34c.44,1.14.68,2.34.71,3.63l5.26.35.3,2.86c0,.98-.05,1.94-.3,2.86l-5.26.35c-.03,1.28-.27,2.48-.71,3.63l4.74,2.34c-.44,1.91-1.17,3.68-2.21,5.32l-5.02-1.69c-.52,1.14-1.2,2.15-2.04,3.08l3.49,3.98c-1.12,1.55-2.51,2.94-4.06,4.06l-3.98-3.49c-.93.85-1.94,1.53-3.08,2.04l1.69,5.02c-1.64,1.04-3.41,1.77-5.32,2.21l-2.34-4.74c-1.14.44-2.34.68-3.63.71l-.35,5.26-2.86.3c-.98,0-1.94-.05-2.86-.3l-.35-5.26c-1.28-.03-2.48-.27-3.63-.71l-2.34,4.74c-1.91-.44-3.68-1.17-5.32-2.21l1.69-5.02c-1.14-.52-2.15-1.2-3.08-2.04l-3.98,3.49c-1.55-1.12-2.94-2.51-4.06-4.06l3.49-3.98c-.85-.93-1.53-1.94-2.04-3.08l-5.02,1.69c-1.04-1.64-1.77-3.41-2.21-5.32l4.74-2.34c-.44-1.14-.68-2.34-.71-3.63l-5.26-.35-.3-2.86c0-.98.05-1.94.3-2.86l5.26-.35c.03-1.28.27-2.48.71-3.63l-4.74-2.34c.44-1.91,1.17-3.68,2.21-5.32l5.02,1.69c.52-1.14,1.2-2.15,2.04-3.08l-3.49-3.98c1.12-1.55,2.51-2.94,4.06-4.06l3.98,3.49c.93-.85,1.94-1.53,3.08-2.04l-1.69-5.02c1.64-1.04,3.41-1.77,5.32-2.21l2.34,4.74c1.14-.44,2.34-.68,3.63-.71l.35-5.26,2.86-.3ZM31.4,12.21c-10.49,0-19.03,8.53-19.03,19.03s8.53,19.03,19.03,19.03,19.03-8.53,19.03-19.03-8.53-19.03-19.03-19.03Z"/>
        <path class="cls-3" d="M31.4,15.05c8.94,0,16.19,7.25,16.19,16.19s-7.25,16.19-16.19,16.19-16.19-7.25-16.19-16.19,7.25-16.19,16.19-16.19ZM31.4,19.11c-6.71,0-12.13,5.42-12.13,12.13s5.42,12.13,12.13,12.13,12.13-5.42,12.13-12.13-5.42-12.13-12.13-12.13Z"/>
        <path class="cls-2" d="M31.57,50.86c0-10.58,8.56-19.14,19.14-19.14s19.14,8.56,19.14,19.14-8.56,19.14-19.14,19.14-19.14-8.56-19.14-19.14Z"/>
        <path class="cls-3" d="M50.7,51.76c-.63,0-1.17-.49-1.17-1.17,0-.63.55-1.2,1.17-1.2s1.17.57,1.17,1.2c0,.68-.55,1.17-1.17,1.17ZM59.04,53.59l-5.56-3.22c-.05-.85-.55-1.61-1.17-2.1v-9.7c0-.9-.71-1.61-1.61-1.61s-1.61.71-1.61,1.61v9.7c-.68.57-1.17,1.39-1.17,2.32,0,1.53,1.25,2.78,2.78,2.78.41,0,.85-.05,1.17-.27l5.59,3.27c.19.14.46.22.76.22.55,0,1.09-.27,1.39-.85.41-.76.19-1.74-.57-2.15Z"/>
        <path class="cls-3" d="M50.86,65.15c-7.99,0-14.5-6.51-14.5-14.47s6.51-14.42,14.5-14.42,14.5,6.43,14.5,14.42-6.51,14.47-14.5,14.47ZM50.86,33.04c-9.73,0-17.66,7.9-17.66,17.64s7.93,17.69,17.66,17.69,17.66-7.99,17.66-17.69-7.93-17.64-17.66-17.64Z"/>
      </g>
    </g>
  </g>
</svg>