<svg xmlns="http://www.w3.org/2000/svg" xmlns:xlink="http://www.w3.org/1999/xlink" preserveAspectRatio="xMidYMid meet" width="800" height="1040" viewBox="0 0 800 1040" style="width:100%;height:100%"><defs><animateTransform repeatCount="indefinite" dur="1.001001s" begin="0s" xlink:href="#_R_G_L_0_G_L_5_G" fill="freeze" attributeName="transform" from="0.84229 1" to="1 1" type="scale" additive="sum" keyTimes="0;0.9666667;1" values="0.84229 1;1 1;1 1" keySplines="0.167 0.167 0.833 0.833;0 0 0 0" calcMode="spline"/><animateTransform repeatCount="indefinite" dur="1.001001s" begin="0s" xlink:href="#_R_G_L_0_G_L_5_G" fill="freeze" attributeName="transform" from="-240.222 -953.368" to="-240.222 -953.368" type="translate" additive="sum" keyTimes="0;1" values="-240.222 -953.368;-240.222 -953.368" keySplines="0 0 1 1" calcMode="spline"/><animateTransform repeatCount="indefinite" dur="1.001001s" begin="0s" xlink:href="#_R_G_L_0_G_L_4_G" fill="freeze" attributeName="transform" from="0.43301 1" to="1 1" type="scale" additive="sum" keyTimes="0;0.9666667;1" values="0.43301 1;1 1;1 1" keySplines="0.167 0.167 0.833 0.833;0 0 0 0" calcMode="spline"/><animateTransform repeatCount="indefinite" dur="1.001001s" begin="0s" xlink:href="#_R_G_L_0_G_L_4_G" fill="freeze" attributeName="transform" from="-240.222 -779.896" to="-240.222 -779.896" type="translate" additive="sum" keyTimes="0;1" values="-240.222 -779.896;-240.222 -779.896" keySplines="0 0 1 1" calcMode="spline"/><animateTransform repeatCount="indefinite" dur="1.001001s" begin="0s" xlink:href="#_R_G_L_0_G_L_3_G" fill="freeze" attributeName="transform" from="0.25748000000000004 1" to="1 1" type="scale" additive="sum" keyTimes="0;0.9666667;1" values="0.25748000000000004 1;1 1;1 1" keySplines="0.167 0.167 0.833 0.833;0 0 0 0" calcMode="spline"/><animateTransform repeatCount="indefinite" dur="1.001001s" begin="0s" xlink:href="#_R_G_L_0_G_L_3_G" fill="freeze" attributeName="transform" from="-240.222 -606.633" to="-240.222 -606.633" type="translate" additive="sum" keyTimes="0;1" values="-240.222 -606.633;-240.222 -606.633" keySplines="0 0 1 1" calcMode="spline"/><animateTransform repeatCount="indefinite" dur="1.001001s" begin="0s" xlink:href="#_R_G_L_0_G_L_2_G" fill="freeze" attributeName="transform" from="0.15219 1" to="1 1" type="scale" additive="sum" keyTimes="0;0.9666667;1" values="0.15219 1;1 1;1 1" keySplines="0.167 0.167 0.833 0.833;0 0 0 0" calcMode="spline"/><animateTransform repeatCount="indefinite" dur="1.001001s" begin="0s" xlink:href="#_R_G_L_0_G_L_2_G" fill="freeze" attributeName="transform" from="-240.222 -433.16" to="-240.222 -433.16" type="translate" additive="sum" keyTimes="0;1" values="-240.222 -433.16;-240.222 -433.16" keySplines="0 0 1 1" calcMode="spline"/><animateTransform repeatCount="indefinite" dur="1.001001s" begin="0s" xlink:href="#_R_G_L_0_G_L_1_G" fill="freeze" attributeName="transform" from="0.13541 1" to="1 1" type="scale" additive="sum" keyTimes="0;0.9666667;1" values="0.13541 1;1 1;1 1" keySplines="0.167 0.167 0.833 0.833;0 0 0 0" calcMode="spline"/><animateTransform repeatCount="indefinite" dur="1.001001s" begin="0s" xlink:href="#_R_G_L_0_G_L_1_G" fill="freeze" attributeName="transform" from="-240.222 -259.897" to="-240.222 -259.897" type="translate" additive="sum" keyTimes="0;1" values="-240.222 -259.897;-240.222 -259.897" keySplines="0 0 1 1" calcMode="spline"/><animateTransform repeatCount="indefinite" dur="1.001001s" begin="0s" xlink:href="#_R_G_L_0_G_L_0_G" fill="freeze" attributeName="transform" from="0.07203000000000001 1" to="1 1" type="scale" additive="sum" keyTimes="0;0.9666667;1" values="0.07203000000000001 1;1 1;1 1" keySplines="0.167 0.167 0.833 0.833;0 0 0 0" calcMode="spline"/><animateTransform repeatCount="indefinite" dur="1.001001s" begin="0s" xlink:href="#_R_G_L_0_G_L_0_G" fill="freeze" attributeName="transform" from="-240.222 -86.425" to="-240.222 -86.425" type="translate" additive="sum" keyTimes="0;1" values="-240.222 -86.425;-240.222 -86.425" keySplines="0 0 1 1" calcMode="spline"/><animate attributeType="XML" attributeName="opacity" dur="1s" from="0" to="1" xlink:href="#time_group"/></defs><g id="_R_G"><g id="_R_G_L_0_G"><g id="_R_G_L_0_G_L_5_G" transform=" translate(240.222, 953.368)"><path id="_R_G_L_0_G_L_5_G_D_0_P_0" fill="#a8a8a8" fill-opacity="1" fill-rule="nonzero" d=" M278.27 910.16 C278.27,910.16 240.22,910.16 240.22,910.16 C240.22,910.16 240.22,996.58 240.22,996.58 C240.22,996.58 278.27,996.58 278.27,996.58 C278.27,996.58 278.27,910.16 278.27,910.16z "/></g><g id="_R_G_L_0_G_L_4_G" transform=" translate(240.222, 779.896)"><path id="_R_G_L_0_G_L_4_G_D_0_P_0" fill="#a8a8a8" fill-opacity="1" fill-rule="nonzero" d=" M313.42 736.48 C313.42,736.48 240.22,736.48 240.22,736.48 C240.22,736.48 240.22,823.32 240.22,823.32 C240.22,823.32 313.42,823.32 313.42,823.32 C313.42,823.32 313.42,736.48 313.42,736.48z "/></g><g id="_R_G_L_0_G_L_3_G" transform=" translate(240.222, 606.633)"><path id="_R_G_L_0_G_L_3_G_D_0_P_0" fill="#a8a8a8" fill-opacity="1" fill-rule="nonzero" d=" M363.45 563.21 C363.45,563.21 240.22,563.21 240.22,563.21 C240.22,563.21 240.22,650.05 240.22,650.05 C240.22,650.05 363.45,650.05 363.45,650.05 C363.45,650.05 363.45,563.21 363.45,563.21z "/></g><g id="_R_G_L_0_G_L_2_G" transform=" translate(240.222, 433.16)"><path id="_R_G_L_0_G_L_2_G_D_0_P_0" fill="#a8a8a8" fill-opacity="1" fill-rule="nonzero" d=" M451.94 389.95 C451.94,389.95 240.22,389.95 240.22,389.95 C240.22,389.95 240.22,476.37 240.22,476.37 C240.22,476.37 451.94,476.37 451.94,476.37 C451.94,476.37 451.94,389.95 451.94,389.95z "/></g><g id="_R_G_L_0_G_L_1_G" transform=" translate(240.222, 259.897)"><path id="_R_G_L_0_G_L_1_G_D_0_P_0" fill="#a8a8a8" fill-opacity="1" fill-rule="nonzero" d=" M473.86 216.68 C473.86,216.68 240.22,216.68 240.22,216.68 C240.22,216.68 240.22,303.11 240.22,303.11 C240.22,303.11 473.86,303.11 473.86,303.11 C473.86,303.11 473.86,216.68 473.86,216.68z "/></g><g id="_R_G_L_0_G_L_0_G" transform=" translate(240.222, 86.425)"><path id="_R_G_L_0_G_L_0_G_D_0_P_0" fill="#15346e" fill-opacity="1" fill-rule="nonzero" d=" M240.22 43.01 C240.22,43.01 674.83,43.01 674.83,43.01 C674.83,43.01 674.83,129.84 674.83,129.84 C674.83,129.84 240.22,129.84 240.22,129.84 C240.22,129.84 240.22,43.01 240.22,43.01z "/></g></g></g><g id="time_group"/></svg>