<?xml version="1.0" encoding="UTF-8"?>
<svg id="_レイヤー_2" data-name="レイヤー 2" xmlns="http://www.w3.org/2000/svg" xmlns:xlink="http://www.w3.org/1999/xlink" viewBox="0 0 172.52 201.89">
  <defs>
    <style>
      .cls-1, .cls-2 {
        fill: none;
      }

      .cls-3 {
        fill: #e32f14;
      }

      .cls-4 {
        fill: #e58425;
      }

      .cls-5 {
        fill: #e66321;
      }

      .cls-6 {
        fill: #cd141c;
      }

      .cls-7 {
        fill: #fff;
      }

      .cls-2 {
        stroke: #000;
        stroke-miterlimit: 10;
        stroke-width: .5px;
      }

      .cls-8 {
        fill: #040000;
      }

      .cls-9 {
        fill: #e11c77;
      }

      .cls-10 {
        fill: #ea8888;
      }

      .cls-11 {
        clip-path: url(#clippath);
      }
    </style>
    <clipPath id="clippath">
      <rect class="cls-1" x="0" y="32.85" width="172.52" height="169.04"/>
    </clipPath>
  </defs>
  <g id="_レイヤー_1-2" data-name="レイヤー 1">
    <g>
      <g class="cls-11">
        <g>
          <path class="cls-6" d="M86.86,116.93l-52.92,65.35C-2.15,153.06-7.71,100.11,21.51,64.02c16.31-20.14,39.44-31.17,65.35-31.17v84.09Z"/>
          <path class="cls-5" d="M86.86,116.93l49.43,68.03c-31.45,22.85-72.14,21.78-102.35-2.68l52.92-65.35Z"/>
          <path class="cls-3" d="M86.86,116.93l81.22-21.76c9.16,34.18-3.17,68.99-31.8,89.79l-49.43-68.03Z"/>
          <path class="cls-4" d="M86.86,116.93l48.23-68.88c16.85,11.8,27.67,27.25,32.99,47.12l-81.22,21.76Z"/>
          <path class="cls-10" d="M86.86,116.93l17.48-82.25c11.95,2.54,20.74,6.36,30.75,13.37l-48.23,68.88Z"/>
          <path class="cls-9" d="M86.86,116.93V32.85c6.22,0,11.4.54,17.48,1.84l-17.48,82.25Z"/>
        </g>
      </g>
      <g>
        <path class="cls-7" d="M26.9,82.86h.96v2.04h1.85v.89h-1.85v1.16c0,.84-.22,2.53-1.42,3.54-1.14.96-2.68,1.22-3.45,1.35l-.38-.88c2.17-.28,4.29-.99,4.29-4v-1.17h-3.66v2.85h-.96v-2.85h-1.82v-.89h1.82v-1.99h.96v1.99h3.66v-2.04Z"/>
        <path class="cls-7" d="M36.19,91.9h-1v-5.12c-.33.22-2.01,1.3-4.15,2.08l-.57-.8c1.49-.53,5.18-2.03,7.7-5.17l.91.61c-.4.41-1.58,1.6-2.89,2.58v5.81Z"/>
        <path class="cls-7" d="M41.6,90.8c4.55-.67,5.75-3.2,6.12-6.19h-7.05v-.88h7.04c-.01-.05-.02-.1-.02-.19,0-.6.49-1.08,1.08-1.08s1.08.48,1.08,1.08c0,.57-.46,1.11-1.14,1.08-.45,3.66-2.07,6.19-6.68,7.08l-.42-.9ZM48.22,83.55c0,.3.25.55.55.55s.55-.25.55-.55-.25-.55-.55-.55-.55.24-.55.55Z"/>
        <path class="cls-7" d="M51.94,90.67c3.55-.39,5.09-2.23,6.03-5.24l.86.41c-.82,2.32-2.18,5.63-7.87,5.85v-8.63h.98v7.6Z"/>
        <path class="cls-7" d="M59.43,90.98c1.74-.69,4.77-2.68,6.19-6.64h-5.65v-.89h6.92c-.38,1.56-1.09,3.04-2.05,4.32,1.25,1,2.47,2.06,3.61,3.2l-.77.77c-.58-.65-1.34-1.47-3.4-3.26-1.17,1.39-2.6,2.56-4.28,3.27l-.57-.77Z"/>
      </g>
      <g>
        <path class="cls-7" d="M20.8,107.62c-.04,1.64-.07,3.29,3.89,3.29,2.2,0,3.83-.26,3.83-2.55,0-.9-.05-2.53-2.97-2.53h-2.08v-1.42h2.09c1.06,0,2.8,0,2.8-2.23,0-1.92-1.28-2.38-3.4-2.38-3.59,0-3.87,1.3-3.89,2.78h-1.69c.12-2.87,1.27-4.29,5.52-4.29,1.5,0,5.14,0,5.14,3.73,0,2.5-1.57,2.92-2.06,3.06.54.19,2.22.76,2.22,3.33,0,3.87-3.41,4.03-5.31,4.03-4.43,0-5.81-1.32-5.81-4.8h1.71Z"/>
        <path class="cls-7" d="M43.68,98.42v1.58l-6.98,12.28h-2.09l7.34-12.33h-9.55v-1.53h11.29Z"/>
        <path class="cls-7" d="M47.92,110.24v2.04h-1.92v-2.04h1.92Z"/>
        <path class="cls-7" d="M54.55,107.24c-1.32.23-2.43.47-2.43,3.11v.41h9.32v1.53h-11.03v-1c0-3.76.86-5.01,3.61-5.49l3.17-.54c1.64-.28,2.6-.81,2.6-2.67s-.81-2.78-3.55-2.78c-3.06,0-3.89.84-3.91,3.18h-1.69c.04-3.41,1.55-4.7,5.44-4.7,2.23,0,5.4.25,5.4,4.22,0,.67-.09,2.08-.88,2.82-.65.62-1.71,1.16-2.92,1.37l-3.13.55Z"/>
        <path class="cls-7" d="M64.38,105.8c1.09,0,1.67.2,1.67,1.79,0,1.25-.19,1.9-1.56,1.9-1.2,0-1.68-.27-1.68-1.84,0-1.25.25-1.84,1.56-1.84ZM63.8,107.67c0,.66.11.83.65.83s.61-.27.61-.9-.11-.83-.63-.83c-.59,0-.64.28-.64.9ZM68.99,105.86l-3.64,6.42h-1l3.64-6.42h1ZM68.83,108.67c1.1,0,1.68.2,1.68,1.79,0,1.25-.2,1.9-1.56,1.9-1.2,0-1.67-.27-1.67-1.84,0-1.25.24-1.84,1.56-1.84ZM68.26,110.54c0,.66.11.83.64.83s.61-.27.61-.9-.11-.83-.63-.83c-.59,0-.63.28-.63.9Z"/>
      </g>
      <g>
        <path class="cls-7" d="M78.66,158.88h.57v1.56h2.71v.53h-2.62c.39,1.67,1.13,2.6,2.71,3.25l-.36.53c-1.32-.62-2.25-1.51-2.66-3.05-.58,1.98-2.05,2.74-2.72,3.04l-.31-.55c.95-.37,2.3-1.15,2.64-3.23h-2.58v-.53h2.62v-1.56Z"/>
        <path class="cls-7" d="M87.84,160.32v2.56h-.53v-.31h-3.82c-.08,1.33-.45,1.92-.73,2.25l-.44-.41c.24-.31.39-.56.49-.98.08-.33.16-.81.16-1.08v-2.04h4.86ZM88.29,159.64h-5.9v-.52h5.9v.52ZM87.31,160.8h-3.8v1.27h3.8v-1.27Z"/>
        <path class="cls-7" d="M91.9,162.48c-.91.03-1.75.05-1.81.05l-.06-.48c.11,0,.43,0,.57,0,.04-.06.27-.36.43-.75h-1.21v.19c0,2.07-.43,2.84-.67,3.28l-.46-.39c.22-.38.6-1.04.6-2.89v-2.42h4.99v1.37h-4.45v.43h4.82v.45h-1.26c.38.36.75.74,1.06,1.16l-.42.3c-.08-.11-.1-.14-.29-.39-.29.03-.73.07-1.31.09v.58h1.93v.43h-1.93v.72h2.22v.45h-4.85v-.45h2.11v-.72h-1.8v-.43h1.8v-.55ZM93.76,159.46h-3.93v.56h3.93v-.56ZM93.38,161.29h-1.75c-.07.13-.17.31-.46.74,1.34-.01,1.56-.01,2.23-.07-.2-.23-.3-.3-.42-.41l.39-.26Z"/>
      </g>
      <g>
        <path class="cls-7" d="M72.4,174.03c-.81.14-1.49.29-1.49,1.91v.25h5.73v.94h-6.78v-.62c0-2.32.53-3.08,2.22-3.38l1.95-.33c1.01-.17,1.6-.5,1.6-1.64s-.5-1.71-2.19-1.71c-1.88,0-2.39.52-2.4,1.96h-1.04c.02-2.1.95-2.89,3.34-2.89,1.37,0,3.32.15,3.32,2.6,0,.41-.05,1.28-.54,1.73-.4.38-1.05.71-1.8.84l-1.92.34Z"/>
        <path class="cls-7" d="M81.45,168.52c2.61,0,3.48.82,3.48,4.4s-.87,4.29-3.48,4.29-3.5-.8-3.5-4.35.9-4.35,3.5-4.35ZM79,172.89c0,2.91.48,3.4,2.5,3.4s2.4-.58,2.4-3.36c0-3.03-.51-3.47-2.46-3.47s-2.45.55-2.45,3.44Z"/>
        <path class="cls-7" d="M87.54,175.88v1.25h-1.18v-1.25h1.18Z"/>
        <path class="cls-7" d="M92.46,168.52c2.61,0,3.48.82,3.48,4.4s-.87,4.29-3.48,4.29-3.5-.8-3.5-4.35.9-4.35,3.5-4.35ZM90,172.89c0,2.91.48,3.4,2.5,3.4s2.4-.58,2.4-3.36c0-3.03-.51-3.47-2.46-3.47s-2.45.55-2.45,3.44Z"/>
        <path class="cls-7" d="M97.66,173.15c.67,0,1.03.12,1.03,1.1,0,.77-.12,1.17-.96,1.17-.74,0-1.03-.17-1.03-1.13,0-.77.15-1.13.96-1.13ZM97.3,174.3c0,.41.07.51.4.51s.38-.17.38-.55-.07-.51-.39-.51c-.36,0-.39.17-.39.55ZM100.48,173.19l-2.24,3.94h-.62l2.24-3.94h.62ZM100.39,174.91c.68,0,1.03.12,1.03,1.1,0,.77-.12,1.17-.96,1.17-.74,0-1.03-.17-1.03-1.13,0-.77.15-1.13.96-1.13ZM100.04,176.06c0,.41.07.51.4.51s.38-.17.38-.55-.07-.51-.38-.51c-.36,0-.39.17-.39.55Z"/>
      </g>
      <g>
        <path class="cls-7" d="M132.36,123v5.57h-.54v-.33h-3.52v.33h-.55v-5.57h4.61ZM128.3,125.34h3.52v-1.84h-3.52v1.84ZM128.3,127.73h3.52v-1.9h-3.52v1.9Z"/>
        <path class="cls-7" d="M136.61,122.69v.45h2.67v.46h-5.9v-.46h2.68v-.45h.55ZM139.03,128.07c0,.22-.04.53-.5.53h-.91l-.09-.5h.79c.09,0,.17-.01.17-.18v-1.81h-4.32v2.49h-.54v-2.91h5.4v2.38ZM138.37,125.31h-4.08v-1.36h4.08v1.36ZM137.84,124.33h-3.02v.59h3.02v-.59ZM137.78,127.92h-2.89v-1.41h2.89v1.41ZM137.29,126.91h-1.92v.62h1.92v-.62Z"/>
        <path class="cls-7" d="M142.89,126.29c-.91.03-1.75.05-1.81.05l-.06-.48c.11,0,.43,0,.57,0,.04-.06.27-.36.43-.75h-1.21v.19c0,2.07-.43,2.84-.67,3.28l-.46-.39c.22-.38.6-1.04.6-2.89v-2.42h4.99v1.37h-4.45v.43h4.82v.45h-1.26c.38.36.75.74,1.06,1.16l-.42.3c-.08-.11-.1-.14-.29-.39-.29.03-.73.07-1.31.09v.58h1.93v.43h-1.93v.72h2.22v.45h-4.85v-.45h2.11v-.72h-1.8v-.43h1.8v-.55ZM144.75,123.27h-3.93v.56h3.93v-.56ZM144.37,125.11h-1.75c-.07.13-.17.31-.46.74,1.34-.01,1.56-.01,2.23-.07-.2-.23-.3-.3-.42-.41l.39-.26Z"/>
      </g>
      <g>
        <path class="cls-7" d="M125.3,132.42v8.53h-1.05v-7.58h-1.62v-.94h2.67Z"/>
        <path class="cls-7" d="M136.08,138.64c0,1.99-1.61,2.39-3.46,2.39-2.01,0-3.47-.49-3.47-2.4,0-.22,0-1.73,1.42-2.14-.87-.29-1.22-1.11-1.22-1.89,0-2.16,2.11-2.26,3.28-2.26s3.27.12,3.27,2.26c0,.78-.36,1.6-1.22,1.89,1.38.4,1.42,1.84,1.42,2.15ZM135.06,138.54c0-1.28-.88-1.58-2.44-1.58-1.77,0-2.46.4-2.46,1.6,0,1.14.57,1.56,2.46,1.56s2.44-.48,2.44-1.58ZM130.36,134.67c0,1.37,1.35,1.43,2.33,1.43,1.29,0,2.19-.28,2.19-1.47,0-.92-.51-1.38-2.25-1.38-1.93,0-2.26.58-2.26,1.43Z"/>
        <path class="cls-7" d="M138.7,139.69v1.25h-1.18v-1.25h1.18Z"/>
        <path class="cls-7" d="M142.78,137.84c-.81.14-1.49.29-1.49,1.91v.25h5.73v.94h-6.78v-.62c0-2.32.53-3.08,2.22-3.38l1.95-.33c1.01-.17,1.6-.5,1.6-1.64s-.5-1.71-2.19-1.71c-1.88,0-2.39.52-2.4,1.96h-1.04c.02-2.1.95-2.89,3.34-2.89,1.37,0,3.32.15,3.32,2.6,0,.41-.05,1.28-.54,1.73-.4.38-1.05.71-1.8.84l-1.92.34Z"/>
        <path class="cls-7" d="M148.82,136.97c.67,0,1.03.12,1.03,1.1,0,.77-.12,1.17-.96,1.17-.74,0-1.03-.17-1.03-1.13,0-.77.15-1.13.96-1.13ZM148.47,138.12c0,.41.07.51.4.51s.38-.17.38-.55-.07-.51-.39-.51c-.36,0-.39.17-.39.55ZM151.65,137l-2.24,3.94h-.62l2.24-3.94h.62ZM151.55,138.73c.68,0,1.03.12,1.03,1.1,0,.77-.12,1.17-.96,1.17-.74,0-1.03-.17-1.03-1.13,0-.77.15-1.13.96-1.13ZM151.2,139.88c0,.41.07.51.4.51s.38-.17.38-.55-.07-.51-.38-.51c-.36,0-.39.17-.39.55Z"/>
      </g>
      <g>
        <path class="cls-7" d="M124.46,76.93c-.11-.15-.37-.47-.62-.99v3.06h-.51v-3.19c-.31.97-.71,1.52-.89,1.78l-.24-.59c.72-.89,1.08-2.04,1.13-2.19h-.99v-.48h1v-1.22h.51v1.22h.85v.48h-.85v.4c.1.2.36.71.9,1.29l-.29.43ZM124.45,75.65c.48-.59.8-1.18,1.04-2.51l.5.08c-.14,1-.55,2.06-1.1,2.78l-.44-.35ZM127.21,76.52c.49.74.85,1.69,1.01,2.27l-.52.22c-.03-.13-.06-.26-.15-.52-.76.13-2.31.27-2.95.32l-.08-.52c.27-.01.36-.01.48-.03.29-.68.67-1.89.87-2.93l.52.1c-.18.72-.45,1.74-.88,2.79.69-.05,1.18-.1,1.87-.19-.25-.66-.51-1.11-.62-1.3l.43-.22ZM127.26,73.15c.23,1.24.6,1.95,1.04,2.53l-.39.39c-.66-.74-1.01-2-1.15-2.85l.5-.08Z"/>
        <path class="cls-7" d="M131.8,76.71c-.91.03-1.75.05-1.81.05l-.06-.48c.11,0,.43,0,.57,0,.04-.06.27-.36.43-.75h-1.21v.19c0,2.07-.43,2.84-.67,3.28l-.46-.39c.22-.38.6-1.04.6-2.89v-2.42h4.99v1.37h-4.45v.43h4.82v.45h-1.26c.38.36.75.74,1.06,1.16l-.42.3c-.08-.11-.1-.14-.29-.39-.29.03-.73.07-1.31.09v.58h1.93v.43h-1.93v.72h2.22v.45h-4.85v-.45h2.11v-.72h-1.8v-.43h1.8v-.55ZM133.66,73.69h-3.93v.56h3.93v-.56ZM133.28,75.53h-1.75c-.07.13-.17.31-.46.74,1.34-.01,1.56-.01,2.23-.07-.2-.23-.3-.3-.42-.41l.39-.26Z"/>
        <path class="cls-7" d="M140.3,73.77c-.13,1.56-.57,4.28-4.17,4.96l-.23-.54c3.24-.54,3.55-2.77,3.7-3.88h-4.32v-.54h5.02Z"/>
        <path class="cls-7" d="M146.7,75.73v.61h-5.65v-.61h5.65Z"/>
        <path class="cls-7" d="M152.38,78.77c-.64-.73-1.35-1.38-2.09-2-.73.85-1.62,1.53-2.63,2.01l-.38-.49c.87-.37,1.65-.93,2.32-1.6.95-.95,1.18-1.68,1.35-2.39h-3.31v-.54h4c-.25,1.39-.6,2.05-1,2.58.51.38,1.58,1.33,2.25,1.99l-.5.45ZM151.95,74.06c-.03-.15-.08-.43-.32-.97l.46-.09c.04.1.25.53.34.94l-.48.12ZM152.76,73.98c-.06-.31-.12-.48-.32-.95l.45-.1c.2.44.28.62.35.92l-.47.12Z"/>
      </g>
      <g>
        <path class="cls-7" d="M126.43,82.84v8.53h-1.05v-7.58h-1.62v-.94h2.67Z"/>
        <path class="cls-7" d="M133.75,82.76c2.61,0,3.48.82,3.48,4.4s-.87,4.29-3.48,4.29-3.5-.8-3.5-4.35.9-4.35,3.5-4.35ZM131.3,87.13c0,2.91.48,3.4,2.5,3.4s2.4-.58,2.4-3.36c0-3.03-.51-3.47-2.46-3.47s-2.45.55-2.45,3.44Z"/>
        <path class="cls-7" d="M139.84,90.11v1.25h-1.18v-1.25h1.18Z"/>
        <path class="cls-7" d="M147,85.16c.01-.78-.23-1.47-2.11-1.47-.58,0-1.59.03-2,.7-.38.62-.5,1.73-.49,2.65.7-1.01,2.1-1.03,2.62-1.03,1.5,0,3.15.4,3.15,2.66,0,2.51-1.79,2.78-3.32,2.78-2.63,0-3.47-.94-3.47-4.23,0-4.07,1.44-4.47,3.55-4.47.84,0,3.15,0,3.12,2.4h-1.04ZM142.48,88.81c0,1.59,1.34,1.72,2.32,1.72,1.82,0,2.35-.5,2.35-1.87,0-1.58-1.12-1.74-2.34-1.74-2.2,0-2.33,1.09-2.33,1.89Z"/>
        <path class="cls-7" d="M149.96,87.38c.67,0,1.03.12,1.03,1.1,0,.77-.12,1.17-.96,1.17-.74,0-1.03-.17-1.03-1.13,0-.77.15-1.13.96-1.13ZM149.6,88.53c0,.41.07.51.4.51s.38-.17.38-.55-.07-.51-.39-.51c-.36,0-.39.17-.39.55ZM152.78,87.42l-2.24,3.94h-.62l2.24-3.94h.62ZM152.69,89.15c.68,0,1.03.12,1.03,1.1,0,.77-.12,1.17-.96,1.17-.74,0-1.03-.17-1.03-1.13,0-.77.15-1.13.96-1.13ZM152.34,90.3c0,.41.07.51.4.51s.38-.17.38-.55-.07-.51-.38-.51c-.36,0-.39.17-.39.55Z"/>
      </g>
      <g>
        <path class="cls-8" d="M123.18,18.72c-.22-.31-.32-.46-.45-.77v2.44h-.38v-2.47c-.04.16-.23.75-.63,1.35l-.19-.5c.43-.53.68-1.27.78-1.67h-.7v-.39h.73v-.97h.38v.97h.62v.39h-.62v.33c.1.24.42.67.69.95l-.25.35ZM125.04,20.39h-.4v-1.83c-.33.6-.67.99-1.21,1.43l-.29-.36c.73-.52,1.14-1.08,1.38-1.52h-1.17v-.39h1.29v-.78h-.64c-.14.34-.25.49-.36.64l-.37-.23c.25-.31.46-.65.62-1.48l.42.05c-.03.16-.06.32-.16.64h.49v-.83h.4v.83h1.1v.38h-1.1v.78h1.22v.39h-1.08c.37.76.74,1.14,1.15,1.48l-.23.42c-.57-.5-.87-1.03-1.06-1.49v1.86Z"/>
        <path class="cls-8" d="M129.27,19.75c-.72.17-1.65.32-2.61.44l-.06-.42c.21-.01.48-.04,1.11-.13v-1.57h-1v-.39h2.39v.39h-.98v1.51c.72-.12.94-.17,1.13-.21l.02.38ZM129.66,15.74c0,.17,0,.37,0,.83h1.59v.39h-1.57c.05.93.11,1.89.64,2.65.05.08.2.28.33.28s.25-.34.28-.83l.39.17c-.06.38-.16,1.13-.62,1.13-.55,0-.97-.83-1.09-1.22-.25-.77-.28-1.17-.34-2.19h-2.65v-.39h2.63c0-.23-.01-.54-.01-.83h.43ZM130.75,16.54c-.19-.17-.39-.31-.78-.52l.23-.3c.37.19.52.29.81.51l-.25.31Z"/>
        <path class="cls-8" d="M135.26,17.5h-2.65v-.28c-.45.27-.72.39-.89.46l-.21-.41c1.49-.59,2.05-1.4,2.19-1.6h.45c.52.7,1.32,1.3,2.19,1.61l-.22.4c-.22-.1-.5-.23-.86-.47v.27ZM134.82,18.68c.54.53.84.88,1.23,1.49l-.36.24c-.08-.13-.14-.23-.25-.38-.84.12-2.88.21-3.65.21l-.04-.41h.69c.32-.54.51-1.01.62-1.3h-1.37v-.38h4.47v.38h-2.61c-.12.28-.32.71-.65,1.29.13,0,.69-.02.79-.02.61-.03,1.13-.07,1.5-.11-.05-.06-.3-.38-.69-.78l.33-.23ZM135.1,17.12c-.71-.5-1-.86-1.17-1.08-.32.44-.74.79-1.16,1.08h2.33Z"/>
        <path class="cls-8" d="M137.81,20.39h-.41v-2.03c-.32.29-.54.44-.69.53l-.17-.41c.83-.5,1.3-1.15,1.47-1.55h-1.4v-.38h.79v-.82h.41v.82h.65v.38c-.05.12-.18.43-.54.89.27.31.44.46.72.66l-.23.37c-.26-.21-.32-.28-.6-.6v2.15ZM140.03,15.73v1.45h1.1v.41h-1.1v2.2h1.22v.41h-2.92v-.41h1.28v-2.2h-1.05v-.41h1.05v-1.45h.42Z"/>
        <path class="cls-8" d="M144.1,18.3c.22-.09.5-.23.92-.53v-3.17h.5v3.23c0,1.88-.88,2.45-1.26,2.69l-.36-.42c.12-.07.15-.09.19-.12-.45.11-1.01.25-2.38.38l-.06-.5c.26-.01.51-.03,1.08-.1v-1.9h-1.06v-.46h1.06v-.66h-.65v-.43c-.12.1-.18.14-.29.21l-.21-.49c.69-.42,1.06-1.19,1.17-1.42h.57c.26.5.45.75.87,1.06l-.33.43c-.24-.2-.47-.43-.83-1.02-.12.22-.4.72-.92,1.2h1.73v.46h-.65v.66h.86v.46h-.86v1.83c.26-.04.57-.11.89-.17v.46c.44-.31.78-.72.89-1.64-.39.3-.62.43-.75.5l-.14-.52ZM141.98,19.45c0-.17-.01-.66-.13-1.17l.42-.05c.07.27.11.49.17,1.15l-.46.07ZM143.46,19.24c.11-.4.15-.6.18-1.09l.42.07c-.02.31-.09.81-.19,1.11l-.41-.09ZM144.44,16.82c-.03-.37-.17-1.03-.34-1.46l.46-.1c.06.19.27.79.34,1.45l-.46.11ZM146.88,17.27c.25.38.44.73.72,1.43l-.48.24c-.06-.23-.18-.65-.63-1.41v2.26c0,.11,0,.15.15.15h.23c.16,0,.24,0,.27-.79l.48.14c-.04,1.13-.31,1.16-.58,1.16h-.59c-.18,0-.45-.01-.45-.46v-5.4h.5v2.88l.39-.2ZM146.54,16.6c.27-.5.4-.8.57-1.38l.46.15c-.07.26-.28.9-.59,1.43l-.45-.2Z"/>
        <path class="cls-8" d="M153.47,14.81v.48c-.5.43-1.08.83-2.21,1.33v.57h2.66v.51h-2.66v2.12c0,.47-.13.67-.62.67h-1.19l-.08-.54h1.11c.17.01.23-.02.23-.23v-2.02h-2.68v-.51h2.68v-.99h.37c.49-.2,1.15-.58,1.55-.89h-4.1v-.5h4.94Z"/>
        <path class="cls-8" d="M157.55,19.29c-.21-.24-.48-.53-.97-.91-.5,1.21-1.58,1.86-1.92,2.06l-.34-.5c.31-.17,1.36-.75,1.81-1.9-.63-.43-1.03-.65-1.26-.78l.33-.43c.2.1.48.24,1.09.64.13-.64.17-1.07.18-1.38h-2v-.51h2.02v-.99h.55v.99h1.96v4.08c0,.14.03.2.17.2h.38c.17,0,.2-.18.22-.23.03-.13.06-.97.07-1.08l.52.17c-.04,1.38-.15,1.66-.61,1.66h-.81c-.32,0-.48-.1-.48-.49v-3.79h-1.44c-.03.55-.1,1.08-.25,1.72.7.53.98.81,1.17,1l-.39.47Z"/>
      </g>
      <g>
        <path class="cls-8" d="M135.22,26.64c.01-.78-.23-1.47-2.11-1.47-.58,0-1.59.03-2,.7-.38.62-.5,1.73-.49,2.65.7-1.01,2.1-1.03,2.62-1.03,1.5,0,3.15.4,3.15,2.66,0,2.51-1.79,2.78-3.32,2.78-2.63,0-3.47-.94-3.47-4.23,0-4.07,1.44-4.47,3.55-4.47.84,0,3.15,0,3.12,2.4h-1.04ZM130.7,30.29c0,1.59,1.34,1.72,2.32,1.72,1.82,0,2.35-.5,2.35-1.87,0-1.58-1.12-1.74-2.34-1.74-2.2,0-2.33,1.09-2.33,1.89Z"/>
        <path class="cls-8" d="M139.07,31.59v1.25h-1.18v-1.25h1.18Z"/>
        <path class="cls-8" d="M141.61,29.98c-.02,1.01-.04,2.02,2.39,2.02,1.35,0,2.36-.16,2.36-1.57,0-.55-.03-1.56-1.83-1.56h-1.28v-.88h1.29c.65,0,1.72,0,1.72-1.37,0-1.18-.79-1.46-2.09-1.46-2.21,0-2.38.8-2.39,1.71h-1.04c.08-1.76.78-2.64,3.4-2.64.92,0,3.16,0,3.16,2.29,0,1.54-.96,1.8-1.27,1.88.34.12,1.36.46,1.36,2.04,0,2.38-2.1,2.48-3.27,2.48-2.73,0-3.57-.81-3.57-2.95h1.05Z"/>
        <path class="cls-8" d="M149.19,28.86c.67,0,1.03.12,1.03,1.1,0,.77-.12,1.17-.96,1.17-.74,0-1.03-.17-1.03-1.13,0-.77.16-1.13.96-1.13ZM148.83,30.01c0,.41.07.51.4.51s.38-.17.38-.55-.07-.51-.39-.51c-.36,0-.39.17-.39.55ZM152.02,28.9l-2.24,3.94h-.62l2.24-3.94h.62ZM151.92,30.62c.68,0,1.03.12,1.03,1.1,0,.77-.12,1.17-.96,1.17-.74,0-1.03-.17-1.03-1.13,0-.77.15-1.13.96-1.13ZM151.57,31.77c0,.41.07.51.4.51s.38-.17.38-.55-.07-.51-.38-.51c-.36,0-.39.17-.39.55Z"/>
      </g>
      <g>
        <path class="cls-8" d="M81.61,3.98h-.49v-1.59l-1.56-2.35h.58l1.22,1.9,1.22-1.9h.58l-1.56,2.35v1.59Z"/>
        <path class="cls-8" d="M85.36,0c1.48,0,1.66.78,1.66,2.01,0,1.59-.39,2.01-1.77,2.01-1.48,0-1.66-.78-1.66-2.01,0-1.58.39-2.01,1.77-2.01ZM85.24.43c-1.13,0-1.17.58-1.17,1.58,0,1.21.12,1.58,1.29,1.58s1.17-.58,1.17-1.58c0-1.21-.12-1.58-1.29-1.58Z"/>
        <path class="cls-8" d="M90.18,1.22c0-.64-.25-.79-1.05-.79-.45,0-.98.02-.98.7,0,.38.2.53.56.57l1.09.12c.34.04,1.05.12,1.05,1.06,0,1.01-.76,1.15-1.58,1.15-1.25,0-1.61-.41-1.62-1.32h.49c0,.57.12.89,1.15.89.84,0,1.09-.2,1.09-.7,0-.46-.2-.62-.62-.66l-1.18-.12c-.77-.08-.88-.65-.88-1.01,0-1.1,1.02-1.1,1.44-1.1,1.43,0,1.53.58,1.55,1.22h-.49Z"/>
        <path class="cls-8" d="M94.33,2.17h-2.31v1.82h-.48V.04h.48v1.7h2.31V.04h.48v3.94h-.48v-1.82Z"/>
        <path class="cls-8" d="M96.1.04v3.94h-.49V.04h.49Z"/>
        <path class="cls-8" d="M97.63.04l2.07,3.48V.04h.48v3.94h-.73l-2.07-3.48v3.48h-.48V.04h.73Z"/>
        <path class="cls-8" d="M102.67,0c1.48,0,1.66.78,1.66,2.01,0,1.59-.39,2.01-1.77,2.01-1.48,0-1.66-.78-1.66-2.01,0-1.58.39-2.01,1.77-2.01ZM102.56.43c-1.13,0-1.17.58-1.17,1.58,0,1.21.12,1.58,1.29,1.58s1.17-.58,1.17-1.58c0-1.21-.12-1.58-1.29-1.58Z"/>
        <path class="cls-8" d="M106.79,3.98h-.49v-1.59l-1.56-2.35h.58l1.22,1.9,1.22-1.9h.58l-1.56,2.35v1.59Z"/>
        <path class="cls-8" d="M112.12,3.98h-.54l-.36-1.01h-1.75l-.36,1.01h-.54l1.45-3.94h.63l1.45,3.94ZM110.35.49l-.73,2.07h1.45l-.72-2.07Z"/>
        <path class="cls-8" d="M84.74,8.17h-2.31v1.82h-.48v-3.94h.48v1.7h2.31v-1.7h.48v3.94h-.48v-1.82Z"/>
        <path class="cls-8" d="M87.72,6c1.48,0,1.66.78,1.66,2.01,0,1.59-.39,2.01-1.77,2.01-1.48,0-1.66-.78-1.66-2.01,0-1.58.39-2.01,1.77-2.01ZM87.6,6.43c-1.13,0-1.17.58-1.17,1.58,0,1.21.12,1.58,1.29,1.58s1.17-.58,1.17-1.58c0-1.21-.13-1.58-1.29-1.58Z"/>
        <path class="cls-8" d="M90.59,6.04v3.51h2.14v.44h-2.62v-3.94h.48Z"/>
        <path class="cls-8" d="M94.95,6.04c.92,0,1.65.15,1.65,1.96,0,1.44-.34,1.98-1.53,1.98h-1.82v-3.94h1.7ZM93.73,6.48v3.07h1.3c.87,0,1.09-.32,1.09-1.54,0-1.36-.38-1.53-1.16-1.53h-1.22Z"/>
        <path class="cls-8" d="M97.81,6.04v3.94h-.49v-3.94h.49Z"/>
        <path class="cls-8" d="M99.34,6.04l2.07,3.48v-3.48h.48v3.94h-.73l-2.07-3.48v3.48h-.48v-3.94h.73Z"/>
        <path class="cls-8" d="M105.54,7.3c.02-.84-.68-.87-1.18-.87-1,0-1.26.29-1.26,1.64,0,1.07.12,1.52,1.21,1.52s1.27-.25,1.26-1.23h-1.28v-.41h1.76c0,.86,0,1.06-.14,1.39-.24.6-.89.69-1.55.69-1.29,0-1.75-.39-1.75-1.98,0-1.36.25-2.05,1.73-2.05.5,0,1.68,0,1.68,1.3h-.49Z"/>
        <path class="cls-8" d="M109.21,7.22c0-.64-.25-.79-1.05-.79-.45,0-.98.02-.98.7,0,.38.2.53.56.57l1.09.12c.34.04,1.05.12,1.05,1.06,0,1.01-.76,1.15-1.58,1.15-1.25,0-1.61-.41-1.62-1.32h.49c0,.57.12.89,1.15.89.84,0,1.09-.2,1.09-.7,0-.46-.2-.62-.62-.66l-1.18-.12c-.77-.08-.88-.65-.88-1.01,0-1.1,1.02-1.1,1.44-1.1,1.43,0,1.53.58,1.55,1.22h-.49Z"/>
      </g>
      <g>
        <path class="cls-8" d="M85.47,19.55c-.02,1.01-.04,2.02,2.39,2.02,1.35,0,2.36-.16,2.36-1.57,0-.55-.03-1.56-1.83-1.56h-1.28v-.88h1.29c.65,0,1.72,0,1.72-1.37,0-1.18-.79-1.46-2.09-1.46-2.21,0-2.38.8-2.39,1.71h-1.04c.08-1.76.78-2.64,3.4-2.64.92,0,3.16,0,3.16,2.29,0,1.54-.96,1.8-1.27,1.88.34.12,1.36.46,1.36,2.04,0,2.38-2.1,2.48-3.27,2.48-2.73,0-3.57-.81-3.57-2.95h1.05Z"/>
        <path class="cls-8" d="M93.94,21.16v1.25h-1.18v-1.25h1.18Z"/>
        <path class="cls-8" d="M98.02,19.31c-.81.14-1.49.29-1.49,1.91v.25h5.73v.94h-6.78v-.62c0-2.32.53-3.08,2.22-3.38l1.95-.33c1.01-.17,1.6-.5,1.6-1.64s-.5-1.71-2.19-1.71c-1.88,0-2.39.52-2.4,1.96h-1.04c.02-2.1.95-2.89,3.34-2.89,1.37,0,3.32.15,3.32,2.6,0,.41-.05,1.28-.54,1.73-.4.38-1.05.71-1.79.84l-1.93.34Z"/>
        <path class="cls-8" d="M104.06,18.43c.67,0,1.03.12,1.03,1.1,0,.77-.12,1.17-.96,1.17-.74,0-1.03-.17-1.03-1.13,0-.77.16-1.13.96-1.13ZM103.7,19.58c0,.41.07.51.4.51s.38-.17.38-.55-.07-.51-.39-.51c-.36,0-.39.17-.39.55ZM106.88,18.47l-2.24,3.94h-.62l2.24-3.94h.62ZM106.79,20.19c.68,0,1.03.12,1.03,1.1,0,.77-.12,1.17-.96,1.17-.74,0-1.03-.17-1.03-1.13,0-.77.15-1.13.96-1.13ZM106.44,21.34c0,.41.07.51.4.51s.38-.17.38-.55-.07-.51-.38-.51c-.36,0-.39.17-.39.55Z"/>
      </g>
      <line class="cls-2" x1="95.85" y1="27" x2="94.64" y2="40.3"/>
      <line class="cls-2" x1="137.25" y1="37.03" x2="119.08" y2="46.96"/>
    </g>
  </g>
</svg>