<svg id="グループ_2379" data-name="グループ 2379" xmlns="http://www.w3.org/2000/svg" xmlns:xlink="http://www.w3.org/1999/xlink" width="70" height="70" viewBox="0 0 70 70">
  <defs>
    <clipPath id="clip-path">
      <rect id="長方形_12556" data-name="長方形 12556" width="70" height="70" fill="none"/>
    </clipPath>
  </defs>
  <g id="グループ_2378" data-name="グループ 2378" clip-path="url(#clip-path)">
    <path id="パス_4185" data-name="パス 4185" d="M42.7,51.711c-4.719,0-8.277-1.994-8.277-4.638s3.558-4.639,8.277-4.639,8.277,1.994,8.277,4.639-3.558,4.638-8.277,4.638m0-7.277c-3.889,0-6.277,1.537-6.277,2.639s2.388,2.638,6.277,2.638,6.277-1.537,6.277-2.638-2.388-2.639-6.277-2.639" fill="#333"/>
    <path id="パス_4186" data-name="パス 4186" d="M42.7,58.989c-4.719,0-8.277-1.994-8.277-4.639a1,1,0,0,1,2,0c0,1.1,2.388,2.639,6.277,2.639s6.277-1.537,6.277-2.639a1,1,0,0,1,2,0c0,2.645-3.558,4.639-8.277,4.639" fill="#333"/>
    <path id="パス_4187" data-name="パス 4187" d="M42.7,66.265c-4.719,0-8.277-1.994-8.277-4.639V47.073a1,1,0,1,1,2,0V61.626c0,1.1,2.388,2.639,6.277,2.639s6.277-1.537,6.277-2.639V47.073a1,1,0,1,1,2,0V61.626c0,2.645-3.558,4.639-8.277,4.639" fill="#333"/>
    <path id="パス_4188" data-name="パス 4188" d="M57.257,44.434c-4.719,0-8.277-1.994-8.277-4.638s3.558-4.639,8.277-4.639,8.277,1.994,8.277,4.639-3.558,4.638-8.277,4.638m0-7.277c-3.889,0-6.277,1.537-6.277,2.639s2.388,2.638,6.277,2.638S63.534,40.9,63.534,39.8s-2.388-2.639-6.277-2.639" fill="#333"/>
    <path id="パス_4189" data-name="パス 4189" d="M57.257,58.989c-4.719,0-8.277-1.994-8.277-4.639a1,1,0,0,1,2,0c0,1.1,2.388,2.639,6.277,2.639s6.277-1.537,6.277-2.639a1,1,0,1,1,2,0c0,2.645-3.558,4.639-8.277,4.639" fill="#333"/>
    <path id="パス_4190" data-name="パス 4190" d="M57.257,51.711c-4.719,0-8.277-1.994-8.277-4.639a1,1,0,1,1,2,0c0,1.1,2.388,2.639,6.277,2.639s6.277-1.537,6.277-2.639a1,1,0,1,1,2,0c0,2.645-3.558,4.639-8.277,4.639" fill="#333"/>
    <path id="パス_4191" data-name="パス 4191" d="M57.257,44.434c-4.719,0-8.277-1.994-8.277-4.639a1,1,0,0,1,2,0c0,1.1,2.388,2.639,6.277,2.639s6.277-1.537,6.277-2.639a1,1,0,1,1,2,0c0,2.645-3.558,4.639-8.277,4.639" fill="#333"/>
    <path id="パス_4192" data-name="パス 4192" d="M57.257,66.265c-4.719,0-8.277-1.994-8.277-4.639V39.795a1,1,0,0,1,2,0V61.626c0,1.1,2.388,2.639,6.277,2.639s6.277-1.537,6.277-2.639V39.795a1,1,0,1,1,2,0V61.626c0,2.645-3.558,4.639-8.277,4.639" fill="#333"/>
    <path id="パス_4193" data-name="パス 4193" d="M13.594,49.285a1,1,0,0,1-1-1V32.306H7.317V48.285a1,1,0,0,1-2,0V31.306a1,1,0,0,1,1-1h7.277a1,1,0,0,1,1,1V48.285a1,1,0,0,1-1,1" fill="#333"/>
    <path id="パス_4194" data-name="パス 4194" d="M25.723,49.285a1,1,0,0,1-1-1V27.453H19.446V48.285a1,1,0,0,1-2,0V26.453a1,1,0,0,1,1-1h7.277a1,1,0,0,1,1,1V48.285a1,1,0,0,1-1,1" fill="#333"/>
    <path id="パス_4195" data-name="パス 4195" d="M30.574,49.285a1,1,0,0,1-1-1V31.306a1,1,0,0,1,1-1h7.277a1,1,0,0,1,1,1v7.277a1,1,0,0,1-2,0V32.306H31.574V48.285a1,1,0,0,1-1,1" fill="#333"/>
    <path id="パス_4196" data-name="パス 4196" d="M42.7,39.582a1,1,0,0,1-1-1V21.6a1,1,0,0,1,1-1H49.98a1,1,0,0,1,1,1v9.7a1,1,0,0,1-2,0V22.6H43.7v15.98a1,1,0,0,1-1,1" fill="#333"/>
    <path id="パス_4197" data-name="パス 4197" d="M30.574,54.137H3.891a1,1,0,1,1,0-2H30.574a1,1,0,1,1,0,2" fill="#333"/>
    <path id="パス_4198" data-name="パス 4198" d="M6.317,27.453a1,1,0,0,1-.707-1.707L20.164,11.191a1.029,1.029,0,0,1,1.414,0L33,22.613l18.7-18.7a1,1,0,1,1,1.414,1.414L33.707,24.734a1.029,1.029,0,0,1-1.414,0L20.871,13.313,7.024,27.16a1,1,0,0,1-.707.293" fill="#333"/>
    <path id="パス_4199" data-name="パス 4199" d="M52.406,12.9a1,1,0,0,1-1-1V5.625H45.129a1,1,0,0,1,0-2h7.277a1,1,0,0,1,1,1V11.9a1,1,0,0,1-1,1" fill="#333"/>
  </g>
</svg>
