<svg xmlns="http://www.w3.org/2000/svg" xmlns:xlink="http://www.w3.org/1999/xlink" width="70" height="70" viewBox="0 0 70 70">
  <defs>
    <clipPath id="clip-path">
      <rect id="長方形_30230" data-name="長方形 30230" width="70" height="70" fill="none"/>
    </clipPath>
  </defs>
  <g id="グループ_121362" data-name="グループ 121362" clip-path="url(#clip-path)">
    <path id="パス_13970" data-name="パス 13970" d="M11.364,65.757c-.592,0-1.174-.008-1.647-.02a.9.9,0,0,1-.126-.012c-.028,0-.114-.022-.143-.029a1.025,1.025,0,0,1-.772-.852A8.2,8.2,0,0,1,8.637,63.7l0-.352a1.018,1.018,0,0,1,.045-.3,1.065,1.065,0,0,0,.04-.452,7.045,7.045,0,0,0-1.985.054.982.982,0,0,1-.393-.008c-.072-.015-.143-.035-.214-.055a1.007,1.007,0,0,1-.74-.932c-.031-.917-.021-1.836-.011-2.755.012-1.022.024-2.077-.027-3.1a4.953,4.953,0,0,0-.545,0c-.158.005-.312.007-.45,0a1,1,0,0,1-.971-1q0-1.554-.008-3.107c-.005-1.6-.011-3.2,0-4.794a.825.825,0,0,1,0-.086,1.075,1.075,0,0,1,1-.992q2.331-.01,4.665,0,1.8,0,3.6,0c.135,0,.275,0,.412.008a1,1,0,0,1,.94,1q.009,7.941,0,15.883l0,1.9a.766.766,0,0,1,0,.1,1.086,1.086,0,0,1-.962,1.022c-.5.022-1.084.029-1.658.029m-.727-2c.437,0,.9.006,1.352,0V62.706q.008-7.443.005-14.886c-.985,0-1.969,0-2.953,0q-1.833,0-3.667,0c0,1.289,0,2.578.006,3.868q0,1.059.007,2.117a1.876,1.876,0,0,1,1.931,1.489.969.969,0,0,1,.019.142c.07,1.172.057,2.351.044,3.491-.006.549-.012,1.1-.009,1.645a9.676,9.676,0,0,1,1.791.072,1.844,1.844,0,0,1,1.269.879,2.659,2.659,0,0,1,.206,1.966l0,.243v.023m2.014-16.935h0Z" fill="#333"/>
    <path id="パス_13971" data-name="パス 13971" d="M22.519,61.437c-1.345,0-2.69,0-4.038,0l-1.356,0h0a1.853,1.853,0,0,1-.307-.038A.913.913,0,0,1,16,60.408c.005-.664,0-1.33-.009-2-.011-1.019-.022-2.072.011-3.111a1,1,0,0,1,1-.968l1.546,0q3.628,0,7.261,0a1,1,0,0,1,1,.974c.034,1.294.023,2.632.011,3.926l-.009,1.2a1,1,0,0,1-.993.994q-1.649.014-3.3.011m-4.039-2c1.346,0,2.694,0,4.042,0q1.148,0,2.3-.005l0-.219c.009-.951.017-1.926.007-2.883q-3.133,0-6.274,0h-.567c-.006.685,0,1.372.009,2.058,0,.348.007.695.009,1.044h.476" fill="#333"/>
    <path id="パス_13972" data-name="パス 13972" d="M47.081,21.617a1.942,1.942,0,0,1-.307-.034,1.041,1.041,0,0,1-.847-.993c0-.625,0-1.253-.01-1.881-.011-1.03-.022-2.06.008-3.083,0-.025.008-.11.01-.134a1,1,0,0,1,.983-.9l.328,0c.479-.006.953-.013,1.432,0a.981.981,0,0,1,.109.008.879.879,0,0,0,.269,0c.094-1.532.072-3.119.051-4.656-.018-1.27-.036-2.584.009-3.882a1,1,0,0,1,.995-.965c5.6-.027,11.213-.015,16.818,0a1,1,0,0,1,1,.988c.029,2.315.021,4.631.014,6.947q-.008,2.2-.005,4.406a1,1,0,0,1-.987,1c-2.109.027-4.223.018-6.337.008-2.5-.015-5.082-.025-7.614.028a3.907,3.907,0,0,0-.011,1.007,5.259,5.259,0,0,1-.019,1.3,1,1,0,0,1-.967.815c-1.638.027-3.28.013-4.919.025m.844-2.006c.367,0,.739,0,1.111,0q.978,0,1.954-.006c-.061-.917-.169-2.61,1.464-3.086a1.028,1.028,0,0,1,.258-.04c2.635-.058,5.314-.048,7.908-.034,1.772.009,3.543.018,5.313,0q0-1.713.007-3.425c.006-1.977.013-3.955,0-5.931-4.947-.012-9.9-.023-14.845,0-.012.941,0,1.894.014,2.823.024,1.669.047,3.394-.073,5.1a.983.983,0,0,1-.027.171,2.064,2.064,0,0,1-2.421,1.409c-.226,0-.451-.006-.677,0-.006.7,0,1.4.009,2.1,0,.308.006.615.008.923" fill="#333"/>
    <path id="パス_13973" data-name="パス 13973" d="M35.789,47.744h0l-7.14,0a1,1,0,0,1,0-2l7.139,0a1,1,0,1,1,0,2" fill="#333"/>
    <path id="パス_13974" data-name="パス 13974" d="M46.876,35.156h-.007a1,1,0,0,1-.993-1.007c.009-1.3-.005-2.606-.02-3.908-.02-1.739-.04-3.538,0-5.315a.908.908,0,0,1,.016-.157,1.07,1.07,0,0,1,.95-.9c.757-.033,1.515-.023,2.273-.015.513.007,1.028.016,1.537.006a1.019,1.019,0,0,1,.9.53.988.988,0,0,1,.106.314,4.9,4.9,0,0,1,.019,1.046,2.074,2.074,0,0,0,.053.872c0-.031.168-.042.279-.05s.2-.013.306-.016a3.213,3.213,0,0,0,.446-.01c.214-.009.426-.017.638-.012.09-.028.088-.2.087-.307l0-.793c0-.713-.007-1.428.008-2.141a1,1,0,0,1,1-.979h0l.9,0c.628,0,1.255,0,1.882.012a1,1,0,0,1,.952.8,1.488,1.488,0,0,1,.028.2c.048,1.213.039,5.05.03,6.311a1,1,0,0,1-1,.993h-.007a1,1,0,0,1-.993-1.007c.007-.972.014-3.69-.008-5.305q-.4,0-.8,0c0,.37,0,.742,0,1.112l0,.766a2.385,2.385,0,0,1-.369,1.5,2.036,2.036,0,0,1-1.779.845c-.161-.005-.328,0-.494.011s-.346.014-.513.012l-.189.012a2.205,2.205,0,0,1-1.875-.584,2.833,2.833,0,0,1-.6-2.123l-.578-.007c-.409,0-.819-.009-1.228-.008-.017,1.462,0,2.939.016,4.376.015,1.313.029,2.627.02,3.944a1,1,0,0,1-1,.993" fill="#333"/>
    <path id="パス_13975" data-name="パス 13975" d="M30.646,63.609a1,1,0,0,1-.2-.02l-.14-.033a1.03,1.03,0,0,1-.765-.967c-.011-1.851-.011-3.7-.011-5.553V54.853a5.986,5.986,0,0,1,.014-1.1,3.3,3.3,0,0,0-.013-.978c-1.283.06-2.637.052-3.989.045-2.586-.016-5.26-.033-7.851.073a.967.967,0,0,1-.343-.046l-.144-.046a1,1,0,0,1-.673-.947l0-1.732c0-1.13-.006-2.26.012-3.39a.939.939,0,0,1,.019-.176l.006-.04a1,1,0,0,1,1.244-.769c1.14,0,4.829-.008,4.829-.008l0,2s-2.608,0-4.112.006c-.006.79,0,1.581,0,2.372v.745c2.343-.072,4.717-.056,7.024-.042,1.346.008,2.692.015,4.028.007,2.168.178,2.019,2.206,1.956,3.072a4.417,4.417,0,0,0-.018.743.955.955,0,0,1,.01.141v2.248q0,2.253.006,4.508c.9-.038,1.8-.023,2.678-.007.468.009.937.018,1.4.018h.01c.147-.351.3-.695.456-1.031.171-.377.343-.754.5-1.136l.081-.2a2.761,2.761,0,0,1,.973-1.378,2.725,2.725,0,0,1,1.635-.394q2.97.01,5.94.008l3.344,0c.23-.009.512,0,.8,0,.312.007.611.015.877,0,1.255-1.4,2.517-2.776,3.789-4.146a1.606,1.606,0,0,1,1.785-.395,1.656,1.656,0,0,1,1.073,1.541c.032.641.01,1.32-.01,1.978-.01.318-.02.628-.024.932.556,0,1.113,0,1.668-.005h.227q.006-3.76,0-7.523a1,1,0,0,1,2,0q0,4.261-.006,8.521a1,1,0,0,1-1,1l-1.214,0c-.9.006-1.791.011-2.684-.005a1,1,0,0,1-.98-.952c-.034-.691-.012-1.374.009-2.034.011-.363.022-.715.025-1.061q-1.64,1.773-3.251,3.569a1.65,1.65,0,0,1-.739.5,1.041,1.041,0,0,1-.165.039,8.7,8.7,0,0,1-1.431.047c-.245-.007-.487-.013-.715,0h-3.38q-2.971,0-5.945-.008a1.407,1.407,0,0,0-.506.049,1.5,1.5,0,0,0-.24.468l-.091.222c-.158.39-.341.793-.523,1.194-.23.5-.46,1.009-.649,1.526a1.04,1.04,0,0,1-.937.671c-.712.016-1.426,0-2.142-.01a29.743,29.743,0,0,0-3.437.066c-.033,0-.065.005-.1.005M54.88,54.475v0" fill="#333"/>
    <path id="パス_13976" data-name="パス 13976" d="M23.923,50.073a1,1,0,0,1-.93-.633,23.981,23.981,0,0,0-3.7-5.417,19.065,19.065,0,0,1-2.13-2.892,7.477,7.477,0,0,1-.8-3.379,7.558,7.558,0,1,1,15.116,0,7.487,7.487,0,0,1-.8,3.379,14.788,14.788,0,0,1-2.057,2.637C27.154,45.431,25.321,47.5,24.9,49.3a1,1,0,0,1-.9.768l-.072,0m0-17.88a5.562,5.562,0,0,0-4.974,8.043,19.094,19.094,0,0,0,1.889,2.52,40.1,40.1,0,0,1,2.986,3.971,27.193,27.193,0,0,1,3.306-4.285A15.086,15.086,0,0,0,28.9,40.236a5.56,5.56,0,0,0-4.974-8.043" fill="#333"/>
    <path id="パス_13977" data-name="パス 13977" d="M23.923,41.341a3.664,3.664,0,1,1,3.516-3.661,3.6,3.6,0,0,1-3.516,3.661m0-5.322a1.668,1.668,0,1,0,1.516,1.661,1.6,1.6,0,0,0-1.516-1.661" fill="#333"/>
    <path id="パス_13978" data-name="パス 13978" d="M41.558,55.331a1,1,0,0,1-.93-.633,23.98,23.98,0,0,0-3.7-5.417,19.065,19.065,0,0,1-2.13-2.892A7.477,7.477,0,0,1,34,43.01a7.558,7.558,0,1,1,15.116,0,7.487,7.487,0,0,1-.8,3.379,14.788,14.788,0,0,1-2.057,2.637c-1.474,1.663-3.307,3.734-3.732,5.534a1,1,0,0,1-.9.768c-.024,0-.049,0-.072,0m0-17.88a5.562,5.562,0,0,0-4.974,8.043,19.094,19.094,0,0,0,1.889,2.52,40.1,40.1,0,0,1,2.986,3.971A27.193,27.193,0,0,1,44.765,47.7a15.086,15.086,0,0,0,1.767-2.206,5.56,5.56,0,0,0-4.974-8.043" fill="#333"/>
    <path id="パス_13979" data-name="パス 13979" d="M41.558,46.6a3.665,3.665,0,1,1,3.516-3.661A3.6,3.6,0,0,1,41.558,46.6m0-5.323a1.668,1.668,0,1,0,1.516,1.662,1.6,1.6,0,0,0-1.516-1.662" fill="#333"/>
    <path id="パス_13980" data-name="パス 13980" d="M56.926,48.94a1,1,0,0,1-.93-.633,23.98,23.98,0,0,0-3.7-5.417A19.065,19.065,0,0,1,50.164,40a7.478,7.478,0,0,1-.8-3.38,7.558,7.558,0,0,1,15.116,0,7.488,7.488,0,0,1-.8,3.38,14.824,14.824,0,0,1-2.057,2.637c-1.474,1.663-3.307,3.733-3.732,5.534a1,1,0,0,1-.9.768l-.072,0m0-17.879A5.561,5.561,0,0,0,51.952,39.1a19.094,19.094,0,0,0,1.889,2.52,40.1,40.1,0,0,1,2.986,3.971,27.193,27.193,0,0,1,3.306-4.285A15.086,15.086,0,0,0,61.9,39.1a5.559,5.559,0,0,0-4.974-8.042" fill="#333"/>
    <path id="パス_13981" data-name="パス 13981" d="M56.926,40.207a3.664,3.664,0,1,1,3.516-3.661,3.6,3.6,0,0,1-3.516,3.661m0-5.322a1.668,1.668,0,1,0,1.516,1.661,1.6,1.6,0,0,0-1.516-1.661" fill="#333"/>
  </g>
</svg>
