<?xml version="1.0" encoding="UTF-8"?>
<svg id="_レイヤー_1" data-name="レイヤー_1" xmlns="http://www.w3.org/2000/svg" version="1.1" viewBox="0 0 15 20">
  <!-- Generator: Adobe Illustrator 29.6.1, SVG Export Plug-In . SVG Version: 2.1.1 Build 9)  -->
  <defs>
    <style>
      .st0 {
        fill: #113c8c;
      }
    </style>
  </defs>
  <path class="st0" d="M14.4,3.8l-3.3-3.3C10.8.2,10.3,0,9.8,0H1.8C.8,0,0,.8,0,1.9v16.2c0,1,.8,1.9,1.9,1.9h11.2c1,0,1.9-.8,1.9-1.9V5.1c0-.4-.2-.9-.6-1.3ZM13.6,4.7c.1,0,.1.2.2.3h-3.8V1.3c.1,0,.2.1.3.2l3.3,3.2ZM13.1,18.8H1.9c-.3,0-.6-.3-.6-.6V1.9c0-.3.3-.6.6-.6h6.9v4.1c0,.5.4.9.9.9h4.1v11.9c0,.3-.3.5-.7.6ZM12.3,12.1c-.5-.5-2.1-.4-2.9-.3-.8-.5-1.5-1.3-1.8-2.2.3-.8.4-1.7.3-2.5,0-.5-.5-.9-1-.8-.3,0-.6.2-.7.5,0,1,0,2.1.3,3-.5,1.2-1,2.3-1.6,3.5-.8.4-2.1,1.1-2.3,2,0,.7.9,1.5,2.1.2.5-.5.9-1.1,1.2-1.8,1-.4,2.1-.7,3.2-.9.8.4,1.6.7,2.5.8.5,0,1-.4,1-.9-.1-.2-.2-.5-.3-.6h0ZM3.3,15.5c.4-.6.8-1.2,1.4-1.6-.9,1.4-1.4,1.7-1.4,1.6ZM7,6.9c.3,0,.3,1.5,0,1.9-.2-.7-.2-1.3,0-1.9ZM5.9,13.1c.4-.8.8-1.6,1.1-2.5.3.6.8,1.2,1.4,1.6-.8.2-1.7.5-2.5.9ZM11.9,12.8s-.2.3-1.7-.4c1.6,0,1.9.3,1.7.4Z"/>
</svg>