<svg xmlns="http://www.w3.org/2000/svg" width="428.18" height="193.147" viewBox="0 0 428.18 193.147"><g transform="translate(1957.37 -474)"><path d="M429.8,17.18H412.9V99.4H395.58V17.18H378.54V1.42H429.8Z" transform="translate(-1958.99 474)" fill="#fff"/><path d="M324.33,93.44c-4.97-4.83-7.38-11.79-7.38-21.02V28.26c0-9.23,2.56-16.19,7.81-21.02C329.87,2.41,336.83,0,345.35,0s14.63,2.41,19.74,7.1c4.97,4.83,7.53,11.93,7.53,21.58v2.98H355.15V28.82c0-4.4-.99-7.67-2.84-9.8a9.278,9.278,0,0,0-7.38-3.27q-5.535,0-8.09,3.83c-1.7,2.55-2.41,6.39-2.41,11.5V70.41c0,9.66,3.41,14.34,10.51,14.34a8.828,8.828,0,0,0,7.38-3.27c1.85-2.13,2.84-5.4,2.84-9.66V69.26h17.32v2.7c0,9.51-2.7,16.61-7.95,21.44s-11.93,7.1-20.16,7.1-15.19-2.27-20.02-7.1Z" transform="translate(-1958.99 474)" fill="#fff"/><path d="M289.32,80.37H266.46L262.48,99.4H244.3L269.44,1.42h17.04L311.47,99.4H293.29l-3.98-19.03ZM286.2,64.75l-8.24-39.76-8.24,39.76h16.47Z" transform="translate(-1958.99 474)" fill="#fff"/><path d="M248.97,17.18h-16.9V99.4H214.75V17.18H197.71V1.42h51.26V17.18Z" transform="translate(-1958.99 474)" fill="#fff"/><path d="M191.23,1.42V99.4H173.76L153.31,47.14V99.4H135.84V1.42h17.47l20.45,54.53V1.42Z" transform="translate(-1958.99 474)" fill="#fff"/><path d="M76.24,93.44c-4.97-4.83-7.38-11.79-7.38-21.02V28.26c0-9.23,2.56-16.19,7.81-21.02C81.78,2.41,88.74,0,97.26,0S112.03,2.41,117,7.24s7.53,11.79,7.53,21.02V72.42c0,9.09-2.7,16.05-7.95,20.87s-12.07,7.24-20.31,7.24-15.19-2.27-20.02-7.1Zm28.12-12.36c1.7-2.56,2.7-6.11,2.7-10.65V31.1c0-4.97-.85-8.8-2.56-11.36a8.586,8.586,0,0,0-7.67-3.83q-5.535,0-8.09,3.83c-1.7,2.56-2.41,6.39-2.41,11.5V70.57c0,9.51,3.41,14.34,10.51,14.34a8.539,8.539,0,0,0,7.53-3.83Z" transform="translate(-1958.99 474)" fill="#fff"/><path d="M9.82,93.44C4.85,88.61,2.44,81.65,2.44,72.42V28.26c0-9.23,2.56-16.19,7.81-21.02C15.35,2.41,22.31,0,30.83,0S45.46,2.41,50.57,7.1c4.97,4.83,7.53,11.93,7.53,21.58v2.98H40.63V28.82c0-4.4-.99-7.67-2.84-9.8a9.278,9.278,0,0,0-7.38-3.27q-5.535,0-8.09,3.83c-1.7,2.55-2.41,6.39-2.41,11.5V70.41c0,9.66,3.41,14.34,10.51,14.34a8.828,8.828,0,0,0,7.38-3.27c1.85-2.13,2.84-5.4,2.84-9.66V69.26H57.96v2.7c0,9.51-2.7,16.61-7.95,21.44s-11.93,7.1-20.16,7.1S14.66,98.23,9.83,93.4Z" transform="translate(-1958.99 474)" fill="#fff"/><path d="M377.03,157.6c-1.66-1.82-2.55-4.42-2.55-7.85h6.03a6.866,6.866,0,0,0,1.04,3.9,3.289,3.289,0,0,0,2.81,1.25,3.378,3.378,0,0,0,2.76-1.14,6.2,6.2,0,0,0,.83-3.64,5.353,5.353,0,0,0-.94-3.33,8.2,8.2,0,0,0-3.22-2.24l-2.44-1.09a11.664,11.664,0,0,1-5.04-3.85,10.851,10.851,0,0,1-1.56-6.14,9.814,9.814,0,0,1,2.65-7.23,9.366,9.366,0,0,1,7.07-2.7,8.8,8.8,0,0,1,6.86,2.65c1.61,1.77,2.44,4.37,2.55,7.75H388a6.919,6.919,0,0,0-.83-3.69,2.95,2.95,0,0,0-2.7-1.2c-2.29,0-3.48,1.35-3.48,4.11a4.658,4.658,0,0,0,.88,2.96,7.117,7.117,0,0,0,2.86,1.98l2.34,1.04a12.834,12.834,0,0,1,5.46,4.16,11.62,11.62,0,0,1,1.66,6.66c0,3.33-.83,5.93-2.6,7.7-1.72,1.82-4.16,2.7-7.33,2.7s-5.56-.88-7.23-2.76Z" transform="translate(-1958.99 474)" fill="#fff"/><path d="M353.85,157.76c-1.82-1.77-2.7-4.32-2.7-7.7V133.89c0-3.38.94-5.93,2.86-7.7a10.577,10.577,0,0,1,7.54-2.65,9.972,9.972,0,0,1,7.18,2.55c1.87,1.72,2.76,4.21,2.76,7.54v1.09h-6.4v-1.09a4.324,4.324,0,0,0-1.04-3.17,3.486,3.486,0,0,0-2.65-1.14,3.307,3.307,0,0,0-2.96,1.4,7.723,7.723,0,0,0-.88,4.21v14.4c0,3.54,1.25,5.25,3.85,5.25a3.3,3.3,0,0,0,2.81-1.25,6.159,6.159,0,0,0,.94-3.69v-3.8h-3.8V140.8h10.19v9.26c0,3.33-.99,5.88-2.91,7.64a10.62,10.62,0,0,1-7.44,2.65,10.028,10.028,0,0,1-7.33-2.6Z" transform="translate(-1958.99 474)" fill="#fff"/><path d="M347,124.06v35.88h-6.4l-7.49-19.14v19.14h-6.4V124.06h6.4l7.49,19.97V124.06Z" transform="translate(-1958.99 474)" fill="#fff"/><path d="M315.81,124.06h6.34v35.88h-6.34Z" transform="translate(-1958.99 474)" fill="#fff"/><path d="M291.53,124.06h9.93a10.073,10.073,0,0,1,7.23,2.6c1.82,1.77,2.76,4.32,2.76,7.7v15.29c0,3.38-.99,5.93-2.86,7.7a10.544,10.544,0,0,1-7.44,2.6h-9.62V124.07Zm9.78,30.16a3.139,3.139,0,0,0,2.76-1.4,7.013,7.013,0,0,0,.99-3.9V135.45a7.536,7.536,0,0,0-.94-4.16,3.181,3.181,0,0,0-2.81-1.46h-3.43v24.39Z" transform="translate(-1958.99 474)" fill="#fff"/><path d="M272.44,124.06h6.4v30.16h9.62v5.72H272.44Z" transform="translate(-1958.99 474)" fill="#fff"/><path d="M250.61,157.76c-1.82-1.77-2.7-4.32-2.7-7.7V133.89c0-3.38.94-5.93,2.86-7.7a10.577,10.577,0,0,1,7.54-2.65,9.736,9.736,0,0,1,7.23,2.65c1.82,1.77,2.76,4.32,2.76,7.7v16.17c0,3.33-.99,5.88-2.91,7.64a10.575,10.575,0,0,1-7.44,2.65,10.028,10.028,0,0,1-7.33-2.6Zm10.3-4.53a7.013,7.013,0,0,0,.99-3.9v-14.4a7.536,7.536,0,0,0-.94-4.16,3.146,3.146,0,0,0-2.81-1.4,3.307,3.307,0,0,0-2.96,1.4,7.746,7.746,0,0,0-.88,4.21v14.4c0,3.48,1.25,5.25,3.85,5.25a3.139,3.139,0,0,0,2.76-1.4Z" transform="translate(-1958.99 474)" fill="#fff"/><path d="M243.75,124.06v35.88h-6.4V144.55h-6.76v15.39h-6.4V124.06h6.4v14.77h6.76V124.06Z" transform="translate(-1958.99 474)" fill="#fff"/><path d="M194.32,157.6c-1.66-1.82-2.55-4.42-2.55-7.85h6.03a6.866,6.866,0,0,0,1.04,3.9,3.289,3.289,0,0,0,2.81,1.25,3.378,3.378,0,0,0,2.76-1.14,6.2,6.2,0,0,0,.83-3.64,5.353,5.353,0,0,0-.94-3.33,8.2,8.2,0,0,0-3.22-2.24l-2.44-1.09a11.663,11.663,0,0,1-5.04-3.85,10.851,10.851,0,0,1-1.56-6.14,9.814,9.814,0,0,1,2.65-7.23,9.366,9.366,0,0,1,7.07-2.7,8.8,8.8,0,0,1,6.86,2.65c1.61,1.77,2.44,4.37,2.55,7.75h-5.88a6.919,6.919,0,0,0-.83-3.69,2.95,2.95,0,0,0-2.7-1.2c-2.29,0-3.48,1.35-3.48,4.11a4.658,4.658,0,0,0,.88,2.96,7.117,7.117,0,0,0,2.86,1.98l2.34,1.04a12.834,12.834,0,0,1,5.46,4.16,11.62,11.62,0,0,1,1.66,6.66c0,3.33-.83,5.93-2.6,7.7-1.72,1.82-4.16,2.7-7.33,2.7s-5.56-.88-7.23-2.76Z" transform="translate(-1958.99 474)" fill="#fff"/><path d="M172.18,157.6c-1.66-1.82-2.55-4.42-2.55-7.85h6.03a6.866,6.866,0,0,0,1.04,3.9,3.289,3.289,0,0,0,2.81,1.25,3.378,3.378,0,0,0,2.76-1.14,6.2,6.2,0,0,0,.83-3.64,5.353,5.353,0,0,0-.94-3.33,8.273,8.273,0,0,0-3.22-2.24l-2.44-1.09a11.663,11.663,0,0,1-5.04-3.85,10.851,10.851,0,0,1-1.56-6.14,9.814,9.814,0,0,1,2.65-7.23,9.366,9.366,0,0,1,7.07-2.7,8.8,8.8,0,0,1,6.86,2.65c1.61,1.77,2.44,4.37,2.55,7.75h-5.88a6.919,6.919,0,0,0-.83-3.69,2.95,2.95,0,0,0-2.7-1.2c-2.29,0-3.48,1.35-3.48,4.11a4.658,4.658,0,0,0,.88,2.96,7.117,7.117,0,0,0,2.86,1.98l2.34,1.04a12.834,12.834,0,0,1,5.46,4.16,11.62,11.62,0,0,1,1.66,6.66c0,3.33-.83,5.93-2.6,7.7-1.72,1.82-4.16,2.7-7.33,2.7s-5.56-.88-7.23-2.76Z" transform="translate(-1958.99 474)" fill="#fff"/><path d="M157.67,129.83v9h8.32v5.72h-8.32v9.67h9.67v5.72H151.32V124.06h16.02v5.77h-9.67Z" transform="translate(-1958.99 474)" fill="#fff"/><path d="M136.87,145.54H133.8v14.4h-6.4V124.06h9.78c3.54,0,6.03.88,7.49,2.55,1.46,1.72,2.24,4.42,2.24,8.16a16.193,16.193,0,0,1-.99,5.98,7.086,7.086,0,0,1-3.22,3.59l5.36,15.6H141.4l-4.52-14.4Zm-3.07-5.72h3.33a2.879,2.879,0,0,0,2.65-1.25,8.007,8.007,0,0,0,.73-3.8,7.738,7.738,0,0,0-.73-3.74,2.775,2.775,0,0,0-2.65-1.25H133.8v10.04Z" transform="translate(-1958.99 474)" fill="#fff"/><path d="M122.07,126.87c1.51,1.87,2.29,4.73,2.29,8.48s-.78,6.66-2.34,8.53-4.06,2.81-7.49,2.81H111.2v13.26h-6.34V124.07h9.67c3.54,0,6.03.94,7.54,2.81Zm-4.94,12.69a8.546,8.546,0,0,0,.83-4.21,8.682,8.682,0,0,0-.83-4.21,3.008,3.008,0,0,0-2.81-1.35H111.2v11.13h3.12a2.914,2.914,0,0,0,2.81-1.35Z" transform="translate(-1958.99 474)" fill="#fff"/><path d="M95.08,145.95v13.99h-6.4V145.85L81.4,124.06h7.02l3.43,13.73,3.43-13.73h7.07l-7.28,21.89Z" transform="translate(-1958.99 474)" fill="#fff"/><path d="M61.45,157.76c-1.82-1.77-2.7-4.32-2.7-7.7V133.89c0-3.38.94-5.93,2.86-7.7a10.577,10.577,0,0,1,7.54-2.65,9.992,9.992,0,0,1,7.23,2.6c1.82,1.77,2.76,4.37,2.76,7.9v1.09h-6.4v-1.04a5.359,5.359,0,0,0-1.04-3.59,3.4,3.4,0,0,0-2.7-1.2,3.307,3.307,0,0,0-2.96,1.4,7.746,7.746,0,0,0-.88,4.21v14.4c0,3.54,1.25,5.25,3.85,5.25a3.214,3.214,0,0,0,2.7-1.2,5.3,5.3,0,0,0,1.04-3.54v-.94h6.34v.99c0,3.48-.99,6.08-2.91,7.85a10.41,10.41,0,0,1-7.38,2.6,10.044,10.044,0,0,1-7.33-2.6Z" transform="translate(-1958.99 474)" fill="#fff"/><path d="M30.51,158.02c-1.51-1.56-2.24-4.06-2.24-7.59v-8.42c0-3.48.73-6.03,2.24-7.59,1.46-1.56,3.64-2.34,6.5-2.34s4.99.78,6.45,2.34,2.24,4.11,2.24,7.59v8.42c0,3.54-.78,6.03-2.24,7.59s-3.64,2.34-6.45,2.34-5.04-.78-6.5-2.34Zm8.48-4.11a7.046,7.046,0,0,0,.68-3.43v-8.53a6.825,6.825,0,0,0-.68-3.38,2.26,2.26,0,0,0-2.03-1.09,2.128,2.128,0,0,0-1.98,1.09,6.312,6.312,0,0,0-.68,3.38v8.53a6.513,6.513,0,0,0,.68,3.43,2.089,2.089,0,0,0,1.98,1.04A2.219,2.219,0,0,0,38.99,153.91Z" transform="translate(-1958.99 474)" fill="#fff"/><path d="M21.61,136.7v14.35c0,2.34,1.14,3.48,3.48,3.48h.21v5.41h-.21c-3.12,0-5.51-.68-7.12-2.03s-2.39-3.54-2.39-6.5V136.69H12.51v-4.21h3.07v-4.84l6.03-2.44v7.28h4.37v4.21H21.61Z" transform="translate(-1958.99 474)" fill="#fff"/><path d="M62.936,179.673l.164,2.251c-.962.082-2.292.246-3.7.45a19.109,19.109,0,0,1-.246,3.745,2.394,2.394,0,0,1-2.5,1.924,5.867,5.867,0,0,1-2.681-.737,11.719,11.719,0,0,0,.246-1.883,4.684,4.684,0,0,0,1.944.634.852.852,0,0,0,.839-.675,22,22,0,0,0,.123-2.661c-1.74.287-3.438.573-4.789.819,0,1.658.061,3.275.1,4.093.143,1.7.839,2.251,2.661,2.313h1a31.769,31.769,0,0,0,4.83-.348l.061,2.149a44.388,44.388,0,0,1-4.646.225c-3.049,0-5.812-.164-6.16-4.216-.1-.839-.123-2.292-.164-3.827-1.064.225-2.538.491-3.234.655l-.348-2.169c.839-.123,2.292-.368,3.582-.594,0-1.576-.041-3.356-.041-4.564l2.947.225c0,.225-.164.348-.512.43-.061.9-.041,2.292-.061,3.52,1.371-.246,3.07-.512,4.707-.8-.061-1.515-.123-3.3-.246-4.585l2.824.1c0,.184-.1.307-.409.43.082,1.064.082,2.476.123,3.684,1.289-.2,2.62-.43,3.582-.553Z" transform="translate(-1912.08 474.335)" fill="#fff"/><path d="M37.964,181.609l-.1-2.21a22.352,22.352,0,0,0,3.541-.266c0-.389.082-2.824.082-3.172l2.906.225c-.061.2-.184.348-.532.389-.082.86-.1,1.494-.164,2.251l.921.43a12.353,12.353,0,0,0-1.146,2.763,9.659,9.659,0,0,1,5.321-1.9c3.07,0,5.137,2.088,5.137,5.444,0,4.032-3.07,5.792-7.8,6.222a12.963,12.963,0,0,0-.86-2.067c4.134-.45,6.324-1.494,6.324-4.114,0-1.822-.962-3.377-3.009-3.377a8.527,8.527,0,0,0-5.158,2.169v3.254c0,1.74,0,3.5.041,4.625H41.218v-6.2a14.187,14.187,0,0,1-2.8,3.152L37.35,187.2a21.067,21.067,0,0,0,2.845-2.968,14.8,14.8,0,0,0,1.044-1.719l.061-1.289a27.939,27.939,0,0,1-3.356.348Z" transform="translate(-1921.594 474.241)" fill="#fff"/><path d="M32.427,183.671v-1.33a28.439,28.439,0,0,1-2.886,1.822,8.518,8.518,0,0,0-1.371-1.76,19.717,19.717,0,0,0,7.614-6.672l2.968.164a.54.54,0,0,1-.491.368A19.9,19.9,0,0,0,46,182.116a10.661,10.661,0,0,0-1.433,1.985,23.836,23.836,0,0,1-2.845-1.76v1.31H32.427Zm.819-1.944h7.573a19.335,19.335,0,0,1-3.848-3.786,18.419,18.419,0,0,1-3.725,3.786Zm.143,11.42H31.219v-7.634H43.008v7.634H40.736v-.675H33.389v.675Zm7.347-2.64v-3.029H33.389v3.029Z" transform="translate(-1931.202 474)" fill="#fff"/><path d="M20.037,176.73l3.029.553a.567.567,0,0,1-.471.307,29.936,29.936,0,0,0-.471,5.076c0,4.052,1.187,5.505,2.21,5.505.634,0,1.392-1.842,1.8-3.377a11.7,11.7,0,0,0,1.883,1.474c-.88,3.029-2.088,4.421-3.766,4.421-2.865,0-4.257-3.561-4.441-6.549-.041-.655-.082-1.392-.082-2.128a41.95,41.95,0,0,1,.327-5.26ZM35.8,185.367l-2.436.819a8.816,8.816,0,0,0-4.339-6.631l1.453-1.74a10.238,10.238,0,0,1,5.321,7.552Z" transform="translate(-1940.035 475.047)" fill="#fff"/><path d="M17.812,176.08V183H12.9v9.742H10.71V176.08h7.1Zm6.3,2.7v-1H21.168v1Zm-5.035-2.7h7.266V190.1c0,2.272-.86,2.661-4.666,2.661a7.817,7.817,0,0,0-.757-2.272c.614.041,1.248.061,1.781.061,1.33,0,1.392,0,1.392-.471v-7.04H19.04V176.1Zm2.088,4.2v1.085h2.947v-1.085Zm-5.424-1.494v-1H12.9v1Zm-2.865,1.494v1.064h2.845v-1.064Zm9.128,4.011v5.833H16.87v1.044H14.8v-6.9h7.2Zm-2.067,4.032v-2.21H16.87v2.21Z" transform="translate(-1949.476 474.366)" fill="#fff"/><path d="M11.3,178.18l.287,2.292a19.546,19.546,0,0,1-3.193.634v2.517a13.558,13.558,0,0,1,3.52-.614c3.029,0,5.342,1.535,5.342,4.5,0,2.661-1.515,4.625-4.666,4.625A4.321,4.321,0,0,1,9.152,190.5a11.838,11.838,0,0,0,1.146-1.76,3.022,3.022,0,0,0,2.313,1.248,2.222,2.222,0,0,0,2.292-2.476c0-1.433-1.064-2.517-3.049-2.517a11.834,11.834,0,0,0-3.459.634v3.643a3.072,3.072,0,0,1-3.356,3.193,3.14,3.14,0,0,1-3.418-3.152,4.736,4.736,0,0,1,2.231-3.561,12.618,12.618,0,0,1,2.333-1.31v-3.152c-1.208.082-2.579.1-4.073.1l-.041-2.21c1.535,0,2.886,0,4.114-.082V175.97l2.906.082c0,.225-.184.389-.471.43-.061.716-.082,1.576-.123,2.415a13.93,13.93,0,0,0,2.824-.675Zm6.549,2.088-1.31,1.965a14.487,14.487,0,0,0-4.155-2.456l1.126-1.924a14.035,14.035,0,0,1,4.318,2.395ZM6.184,189.15v-2.64c-1.064.655-2.476,1.474-2.476,2.7a1.136,1.136,0,0,0,1.248,1.228,1.146,1.146,0,0,0,1.228-1.31Z" transform="translate(-1958.99 474.251)" fill="#fff"/></g></svg>