<svg id="グループ_2377" data-name="グループ 2377" xmlns="http://www.w3.org/2000/svg" xmlns:xlink="http://www.w3.org/1999/xlink" width="70" height="70" viewBox="0 0 70 70">
  <defs>
    <clipPath id="clip-path">
      <rect id="長方形_12555" data-name="長方形 12555" width="70" height="70" fill="none"/>
    </clipPath>
  </defs>
  <g id="グループ_2376" data-name="グループ 2376" clip-path="url(#clip-path)">
    <path id="パス_4172" data-name="パス 4172" d="M8.843,67.2a1,1,0,0,1-1-1V32.67a1,1,0,0,1,2,0V66.2a1,1,0,0,1-1,1" fill="#333"/>
    <path id="パス_4173" data-name="パス 4173" d="M15.814,67.2a1,1,0,0,1-1-1V47.471a1,1,0,1,1,2,0V66.2a1,1,0,0,1-1,1" fill="#333"/>
    <path id="パス_4174" data-name="パス 4174" d="M22.785,67.2a1,1,0,0,1-1-1V32.67a1,1,0,0,1,2,0V66.2a1,1,0,0,1-1,1" fill="#333"/>
    <path id="パス_4175" data-name="パス 4175" d="M27.4,45.562a1,1,0,0,1-1-1V30.275a3.352,3.352,0,0,0-3.616-3.507h-3L16.622,31.09a1.038,1.038,0,0,1-1.615,0l-3.163-4.322h-3a3.351,3.351,0,0,0-3.615,3.507V44.562a1,1,0,0,1-2,0V30.275a5.322,5.322,0,0,1,5.615-5.507h3.509a1,1,0,0,1,.807.409l2.656,3.629,2.655-3.629a1,1,0,0,1,.807-.409h3.508A5.322,5.322,0,0,1,28.4,30.275V44.562a1,1,0,0,1-1,1" fill="#333"/>
    <path id="パス_4176" data-name="パス 4176" d="M15.814,21.728a5.636,5.636,0,1,1,5.637-5.635,5.642,5.642,0,0,1-5.637,5.635m0-9.272a3.636,3.636,0,1,0,3.637,3.637,3.64,3.64,0,0,0-3.637-3.637" fill="#333"/>
    <path id="パス_4177" data-name="パス 4177" d="M34.372,63.536a1,1,0,0,1-1-1V43.808a1,1,0,0,1,2,0V62.536a1,1,0,0,1-1,1" fill="#333"/>
    <path id="パス_4178" data-name="パス 4178" d="M41.343,63.536a1,1,0,0,1-1-1V29.007a1,1,0,0,1,2,0V62.536a1,1,0,0,1-1,1" fill="#333"/>
    <path id="パス_4179" data-name="パス 4179" d="M45.958,41.9a1,1,0,0,1-1-1V26.612A3.352,3.352,0,0,0,41.342,23.1h-3L35.18,27.427a1.04,1.04,0,0,1-1.616,0L30.4,23.1h-3a1,1,0,0,1,0-2h3.51a1,1,0,0,1,.806.409l2.656,3.629,2.656-3.629a1,1,0,0,1,.806-.409h3.508a5.322,5.322,0,0,1,5.616,5.507V40.9a1,1,0,0,1-1,1" fill="#333"/>
    <path id="パス_4180" data-name="パス 4180" d="M34.372,18.065a5.636,5.636,0,1,1,5.636-5.635,5.642,5.642,0,0,1-5.636,5.635m0-9.272a3.636,3.636,0,1,0,3.636,3.637,3.641,3.641,0,0,0-3.636-3.637" fill="#333"/>
    <path id="パス_4181" data-name="パス 4181" d="M54.186,59.886a1,1,0,0,1-1-1V40.158a1,1,0,0,1,2,0V58.886a1,1,0,0,1-1,1" fill="#333"/>
    <path id="パス_4182" data-name="パス 4182" d="M61.157,59.886a1,1,0,0,1-1-1V25.357a1,1,0,0,1,2,0V58.886a1,1,0,0,1-1,1" fill="#333"/>
    <path id="パス_4183" data-name="パス 4183" d="M65.772,38.249a1,1,0,0,1-1-1V22.962a3.352,3.352,0,0,0-3.616-3.507h-3l-3.162,4.321a1.038,1.038,0,0,1-1.615,0l-3.163-4.321h-3a1,1,0,0,1,0-2h3.507a1,1,0,0,1,.807.409l2.657,3.628,2.655-3.628a1,1,0,0,1,.807-.409h3.508a5.321,5.321,0,0,1,5.616,5.507V37.249a1,1,0,0,1-1,1" fill="#333"/>
    <path id="パス_4184" data-name="パス 4184" d="M54.186,14.416A5.636,5.636,0,1,1,59.822,8.78a5.642,5.642,0,0,1-5.636,5.636m0-9.272A3.636,3.636,0,1,0,57.822,8.78a3.641,3.641,0,0,0-3.636-3.636" fill="#333"/>
  </g>
</svg>
