<svg xmlns="http://www.w3.org/2000/svg" width="98.186" height="110" viewBox="0 0 98.186 110">
  <g transform="translate(49.093 55)">
    <g transform="translate(-49.093 -55)">
      <g>
        <path d="M91.12,21.319c-5.721,6.414-14.228,8.26-19,4.12s-4-12.7,1.721-19.109,14.227-8.259,19-4.12,4,12.694-1.721,19.109" transform="translate(-32.835 0)" fill="#dc000c"/>
        <path d="M126.855,78.133c-5.721,6.416-14.228,8.26-19,4.12s-4-12.693,1.721-19.109,14.23-8.26,19-4.12,4,12.7-1.721,19.109" transform="translate(-49.843 -27.039)" fill="#dc000c"/>
        <path d="M57.146,77.077c-5.721,6.414-14.227,8.26-19,4.12s-4-12.7,1.721-19.109,14.227-8.26,19-4.12,4,12.693-1.721,19.109" transform="translate(-16.665 -26.537)" fill="#dc000c"/>
        <path d="M158,134.878c-5.721,6.416-14.228,8.26-19,4.12s-4-12.693,1.721-19.109,14.229-8.26,19-4.12,4,12.7-1.721,19.109" transform="translate(-64.667 -54.046)" fill="#dc000c"/>
        <path d="M88.09,133.819c-5.721,6.414-14.228,8.258-19,4.12s-4-12.7,1.721-19.109,14.227-8.26,19-4.12,4,12.693-1.721,19.109" transform="translate(-31.393 -53.542)" fill="#dc000c"/>
        <path d="M22.128,132.818c-5.721,6.416-14.228,8.26-19,4.12s-4-12.693,1.721-19.109,14.23-8.258,19-4.12,4,12.7-1.721,19.109" transform="translate(0 -53.066)" fill="#dc000c"/>
      </g>
      <g transform="translate(2.7 93.066)">
        <path d="M18.884,182.006c.021.178,0,.245-.189.311-.21.067-.274,0-.357-.178a7.508,7.508,0,0,0-1.851-2.689,4.526,4.526,0,0,0-3.029-1.111c-3.07,0-5.468,3.267-5.468,7.667,0,4.489,2.335,7.711,5.763,7.711a4.519,4.519,0,0,0,3.218-1.311,10.621,10.621,0,0,0,.105-1.534c0-2.244.021-2.489-.232-3-.21-.444-.715-.466-1.6-.556-.147-.022-.19-.045-.19-.289s.042-.267.19-.267c.967.045,2.019.089,2.944.089.967,0,1.746-.045,2.713-.089.147,0,.168.023.168.267,0,.223-.021.267-.168.289-.778.089-1.052.089-1.3.556a8.851,8.851,0,0,0-.232,2.689,27.442,27.442,0,0,0,.126,3.289c0,.089-.084.155-.231.155a8.234,8.234,0,0,0-1.3-.089c-1.051,0-2.355.6-4.564.6-5.026,0-8.244-3.422-8.244-8.467a8.059,8.059,0,0,1,8.307-8.467,10,10,0,0,1,2.713.422,5.6,5.6,0,0,0,2.377.178C18.59,179.339,18.737,180.85,18.884,182.006Z" transform="translate(-5.151 -177.583)" fill="#1a1311"/>
        <path d="M41.174,205.575a1.421,1.421,0,1,1-1.409-1.489A1.47,1.47,0,0,1,41.174,205.575Z" transform="translate(-20.944 -190.197)" fill="#1a1311"/>
        <path d="M65.923,190.374c0,2.222.021,2.511.252,2.955.274.467.694.489,1.536.578.168.022.21.067.21.288s-.042.267-.21.267c-.989-.044-2.061-.067-3.008-.067-.967,0-2.019.023-2.881.067-.168,0-.231-.044-.231-.267s.042-.266.189-.288c.778-.089,1.22-.089,1.451-.578a8.264,8.264,0,0,0,.252-2.955v-8.067c0-2.133,0-2.4-.231-2.889-.21-.444-.715-.466-1.577-.556-.126-.022-.147-.045-.147-.289,0-.267.042-.311.19-.311.925.045,2.04.089,2.986.089s1.977-.045,2.881-.089c.189,0,.231.045.231.289,0,.267-.042.289-.252.311-.8.089-1.073.111-1.325.556a7.547,7.547,0,0,0-.315,2.889v3.444a18.627,18.627,0,0,0,1.577-1.6l2.356-2.6c1.325-1.444,1.43-1.845,1.325-2.289-.084-.289-.547-.333-.946-.377-.148-.023-.19-.023-.19-.311,0-.222.042-.267.19-.267.778.045,1.661.045,2.439.045.736,0,1.746-.045,2.545-.089.147,0,.169.045.169.289,0,.267-.042.289-.169.311a4.463,4.463,0,0,0-1.83.756,12.5,12.5,0,0,0-2.608,2.2l-2,2.112c-.337.355-.463.488-.842.866,1.262,1.645,2.881,3.8,5.026,6.6a8.161,8.161,0,0,0,1.935,2.111,2.726,2.726,0,0,0,1.367.4c.126.022.147.067.147.288s-.021.267-.168.267c-.8-.044-1.388-.067-2.04-.067-.715,0-1.619,0-2.25.023-.526-.822-1.009-1.533-1.661-2.422-1.556-2.133-3.071-4.244-4.374-6Z" transform="translate(-31.982 -177.906)" fill="#1a1311"/>
        <path d="M94.541,205.575a1.421,1.421,0,1,1-1.409-1.489A1.47,1.47,0,0,1,94.541,205.575Z" transform="translate(-46.343 -190.197)" fill="#1a1311"/>
        <path d="M122.73,185.911c3.281.333,5.089,1.734,5.089,4.022,0,2.245-1.409,4.556-6.435,4.556-1.22,0-2.608-.111-3.639-.111-.9,0-1.914.022-2.8.044-.147,0-.168-.044-.168-.267s.021-.266.168-.288c.8-.089,1.241-.089,1.514-.578a7.66,7.66,0,0,0,.273-2.955v-8.067c0-2.133,0-2.422-.273-2.912-.252-.422-.715-.444-1.619-.533-.147-.022-.189-.045-.189-.289,0-.267.042-.311.21-.311q1.42.067,2.839.067c.988,0,2.271-.111,3.428-.111,4.374,0,5.721,1.489,5.721,3.689,0,1.622-.926,3.045-4.122,3.911Zm-3.575-.378c.315.022.442.022.715.022,3.491,0,4.353-1.6,4.353-3.511,0-2.022-1.22-3.111-3.344-3.111-.673,0-1.219.023-1.493.489a7.9,7.9,0,0,0-.231,2.845Zm0,4.8a6.654,6.654,0,0,0,.295,2.778c.315.578.946.645,1.83.645a3.465,3.465,0,0,0,3.807-3.8c0-1.422-.358-3.622-4.963-3.622-.274,0-.442,0-.967.022Z" transform="translate(-57.267 -177.866)" fill="#1a1311"/>
        <path d="M146.9,205.575a1.421,1.421,0,1,1-1.409-1.489A1.47,1.47,0,0,1,146.9,205.575Z" transform="translate(-71.264 -190.197)" fill="#1a1311"/>
        <path d="M171.064,186.3c-2.5-1.334-3.344-2.445-3.344-4.712s1.892-4,4.711-4a7.522,7.522,0,0,1,2.124.311,5.042,5.042,0,0,0,2.082.067c0,1.134.147,2.578.232,3.756,0,.111,0,.178-.211.222-.231.045-.274-.023-.315-.134-.82-2.044-2.124-3.511-3.807-3.511a2.553,2.553,0,0,0-2.523,2.8c0,1,.568,1.933,2.334,2.844l1.136.578c2.986,1.533,4.038,2.533,4.038,5.178,0,3-2.083,4.8-5.615,4.8a11.531,11.531,0,0,1-4.038-.778,34.168,34.168,0,0,1-.736-3.711c-.021-.156-.021-.311.231-.356.232-.045.316.023.358.134.946,2.244,2.586,4,4.416,4a3.006,3.006,0,0,0,3.05-3.2c0-1.689-.946-2.556-3.071-3.711Z" transform="translate(-82.238 -177.583)" fill="#1a1311"/>
      </g>
    </g>
  </g>
</svg>
