<svg xmlns="http://www.w3.org/2000/svg" width="115.772" height="67.824" viewBox="0 0 115.772 67.824"><g transform="translate(-1025 -1112.328)"><g transform="translate(185.965 802.828)"><ellipse cx="57.886" cy="26.447" rx="57.886" ry="26.447" transform="translate(839.035 309.5)" fill="#00327a"/><path d="M976.75,337.255c-1.036,11.322-23.274,18.542-49.668,16.124s-46.954-13.55-45.917-24.875,23.274-18.541,49.671-16.125S977.787,325.933,976.75,337.255Z" transform="translate(-22.389 -1.283)" fill="#fff"/><path d="M929.454,351.109c-.1-2.5-1.055-4.312-2.677-5.1a4.225,4.225,0,0,0-2.67-.317h-6.8l-.014.039h-6.107l-4.367,8.393v-8.433h-5.5v17.142l-9,9.657h7.494l16.659-24.351c-.914,2.673-2.606,7.653-3.3,9.874-.949,3.039-5.151,12.978-5.193,13.082l-.588,1.389,1.507-.007h5.456l.084-.9a46.82,46.82,0,0,1,1.422-7.152,4.027,4.027,0,0,0,1.431,1.173c1.621.787,3.632.41,5.66-1.059a17.47,17.47,0,0,0,6.508-13.432Zm-10.51,9.261c-.45-.218-.73-.876-.769-1.805a8.543,8.543,0,0,1,.934-3.888c1.133-2.336,2.861-3.747,3.942-3.747a.974.974,0,0,1,.427.093c.449.217.729.876.769,1.805a8.552,8.552,0,0,1-.935,3.89h0c-1.3,2.673-3.378,4.133-4.369,3.654Z" transform="translate(-28.339 -19.207)" fill="#fff"/><g transform="translate(866.266 327.273)"><path d="M974.535,347.667h-3.819c0,1.561-1.641,6.167-2.733,9.284s-4.447,10.466-4.447,10.466h5.3s1.326-5.7,2.418-8.823,1.638-5.07,2.73-5.929a3.644,3.644,0,0,1,2.441-1.093c1.4,0,1.589.778,1.589.778l2.71-4.56c-2.651,0-4.152.2-5.233.917a12.136,12.136,0,0,0-1.691,1.385Z" transform="translate(-932.49 -347.574)" fill="#00327a"/><path d="M1006.123,351.14a4.1,4.1,0,0,0-1.56-2.75,3.025,3.025,0,0,0-1.8-.644,3.192,3.192,0,0,0-1.011.139,8.223,8.223,0,0,0-3.4,1.86c-.069.057-.136.112-.2.166l-.006,0a17.658,17.658,0,0,0-3.891,5.176,8.674,8.674,0,0,0-.409.817c-.04.093-.078.187-.108.28-2.105,4.84-1.822,9.736.777,10.942,2.3,1.069,5.7-1.153,8.3-4.808-1.682,1.9-3.506,3.052-5,2.359-1.682-.783-2.356-3.6-1.472-6.425h.254c.835.036,2.355.051,3.177.007a8.635,8.635,0,0,0,2.6-.314,6.019,6.019,0,0,0,1.962-1.19,5.784,5.784,0,0,0,1.456-2.056,7.4,7.4,0,0,0,.341-3.563Zm-2.537,2.746a4.471,4.471,0,0,1-.636,1.156,3.943,3.943,0,0,1-.483.389,2.149,2.149,0,0,1-1.162.2h-3.738a6.094,6.094,0,0,1,.413-1.142,11.055,11.055,0,0,1,.62-1.127,9.838,9.838,0,0,1,1.564-1.914,3.215,3.215,0,0,1,1.95-1.028,1.149,1.149,0,0,1,.859.26,2.078,2.078,0,0,1,.791,1.394,3.738,3.738,0,0,1-.177,1.808Z" transform="translate(-947.81 -347.615)" fill="#00327a"/><path d="M1025.521,350.813a3.232,3.232,0,0,1,3.617,1.645l1.573-2.72a3.551,3.551,0,0,0-3.5-2.254,6.55,6.55,0,0,0-2.99.572,6.022,6.022,0,0,0-3.3,3.4,6.455,6.455,0,0,0-.514,2.982,8.024,8.024,0,0,0,1.251,3.478,6.168,6.168,0,0,1,.851,2.591,3.052,3.052,0,0,1-2.4,3.544,2.785,2.785,0,0,1-3.059-2.184l-2.024,3.5a4.875,4.875,0,0,0,4.235,1.962,6.94,6.94,0,0,0,3.84-.867c1.726-.848,2.345-2.469,2.589-4.732a9.972,9.972,0,0,0-.485-3.631,9.775,9.775,0,0,0-.443-1.1,17.823,17.823,0,0,1-.764-1.8C1023.267,353.134,1023.95,351.367,1025.521,350.813Z" transform="translate(-959.878 -347.477)" fill="#00327a"/><path d="M1049.551,350.813a3.232,3.232,0,0,1,3.617,1.645l1.574-2.72a3.551,3.551,0,0,0-3.5-2.254,6.547,6.547,0,0,0-2.99.572,6.025,6.025,0,0,0-3.3,3.4,6.467,6.467,0,0,0-.514,2.982,8.028,8.028,0,0,0,1.251,3.478,6.154,6.154,0,0,1,.851,2.591,3.052,3.052,0,0,1-2.4,3.544,2.786,2.786,0,0,1-3.06-2.184l-2.023,3.5a4.875,4.875,0,0,0,4.235,1.962,6.94,6.94,0,0,0,3.841-.867c1.726-.848,2.345-2.469,2.588-4.732a9.967,9.967,0,0,0-.485-3.631,9.717,9.717,0,0,0-.443-1.1,17.882,17.882,0,0,1-.765-1.8C1047.3,353.134,1047.98,351.367,1049.551,350.813Z" transform="translate(-972.66 -347.477)" fill="#00327a"/><path d="M914.394,347.956l-5.966,11.468V347.917h-3.513v16.54l-7.71,8.27h4.681l16.946-24.77Z" transform="translate(-897.206 -347.707)" fill="#00327a"/><g transform="translate(14.279 0.129)"><path d="M945.176,348.043c-1.385-.671-3.162-.171-4.883,1.158.541-.841.905-1.375.905-1.375h-4.349s-2.926,8.5-3.9,11.624-5.227,13.169-5.227,13.169h4.554a60.966,60.966,0,0,1,2.243-10.159,4.168,4.168,0,0,0,2.034,3.38c2.64,1.279,6.71-1.668,9.091-6.582S947.819,349.322,945.176,348.043Zm-2.134,10.242c-1.5,3.076-4.042,4.921-5.7,4.118s-1.789-3.946-.3-7.023,4.042-4.92,5.7-4.118,1.792,3.947.3,7.023Z" transform="translate(-927.721 -347.746)" fill="#00327a"/></g></g></g><g transform="translate(1080.19 1171.565)"><path d="M35.774,13.236a4.384,4.384,0,0,1-1.622-.313,4.233,4.233,0,0,1-1.4-.894l.95-1.14a3.657,3.657,0,0,0,.995.671,2.787,2.787,0,0,0,1.107.246,1.6,1.6,0,0,0,.984-.257.828.828,0,0,0,.335-.693.691.691,0,0,0-.167-.492,1.382,1.382,0,0,0-.436-.335,6.87,6.87,0,0,0-.649-.291l-1.1-.481a3.92,3.92,0,0,1-.805-.447,2.509,2.509,0,0,1-.637-.727,2.086,2.086,0,0,1-.246-1.04,2.1,2.1,0,0,1,.369-1.219,2.545,2.545,0,0,1,1.017-.85,3.256,3.256,0,0,1,1.476-.324,3.711,3.711,0,0,1,1.42.28,3.489,3.489,0,0,1,1.185.794l-.839,1.029a3.261,3.261,0,0,0-.816-.5,2.425,2.425,0,0,0-.95-.179,1.437,1.437,0,0,0-.861.235.736.736,0,0,0-.313.637.674.674,0,0,0,.179.481,1.647,1.647,0,0,0,.469.335q.291.134.637.28l1.085.436a3.3,3.3,0,0,1,.872.5A2.027,2.027,0,0,1,38.6,9.7a2.276,2.276,0,0,1,.212,1.029,2.241,2.241,0,0,1-.369,1.241,2.56,2.56,0,0,1-1.04.917A3.521,3.521,0,0,1,35.774,13.236Z" transform="translate(21.767 -4.649)" fill="#fff"/><path d="M34.918,13.236a4.17,4.17,0,0,1-2.024-.492,3.578,3.578,0,0,1-1.42-1.442,4.748,4.748,0,0,1-.526-2.326,5.1,5.1,0,0,1,.3-1.822,3.986,3.986,0,0,1,.861-1.364,3.709,3.709,0,0,1,1.263-.85,4.062,4.062,0,0,1,1.543-.291,3.181,3.181,0,0,1,1.52.335,4.049,4.049,0,0,1,1.04.727L36.6,6.762A3.241,3.241,0,0,0,35.9,6.27a1.92,1.92,0,0,0-.928-.2,2.162,2.162,0,0,0-1.219.347,2.2,2.2,0,0,0-.816.973,3.67,3.67,0,0,0-.291,1.532,4.054,4.054,0,0,0,.269,1.554,2.153,2.153,0,0,0,.827.984A2.482,2.482,0,0,0,35.1,11.8a2.144,2.144,0,0,0,.581-.078,1.261,1.261,0,0,0,.447-.235V9.859H34.661V8.506h2.952V12.24a3.532,3.532,0,0,1-1.129.7A4.068,4.068,0,0,1,34.918,13.236Z" transform="translate(15.195 -4.649)" fill="#fff"/><path d="M29.126,12.965V4.68h1.688l2.4,4.416.839,1.789h.056q-.067-.648-.145-1.42a14.574,14.574,0,0,1-.078-1.476V4.68h1.565v8.285H33.766L31.384,8.537,30.545,6.76H30.49q.056.671.134,1.42A14.03,14.03,0,0,1,30.7,9.644v3.321Z" transform="translate(8.562 -4.535)" fill="#fff"/><path d="M28.223,12.965V4.68h1.654v8.285Z" transform="translate(5.278 -4.535)" fill="#fff"/><path d="M26.395,12.965V4.68h2.27a4.882,4.882,0,0,1,2.18.447A3.131,3.131,0,0,1,32.253,6.48a4.706,4.706,0,0,1,.5,2.3,4.93,4.93,0,0,1-.492,2.326,3.258,3.258,0,0,1-1.386,1.4,4.6,4.6,0,0,1-2.124.458Zm1.655-1.342h.5a2.973,2.973,0,0,0,1.342-.279,1.935,1.935,0,0,0,.872-.917,3.853,3.853,0,0,0,.3-1.644,3.625,3.625,0,0,0-.3-1.61,1.828,1.828,0,0,0-.872-.883,2.973,2.973,0,0,0-1.342-.279h-.5Z" transform="translate(-1.374 -4.535)" fill="#fff"/><path d="M24.894,12.965V4.68h1.654v6.9h3.365v1.386Z" transform="translate(-6.834 -4.535)" fill="#fff"/><path d="M26.543,13.236a3.623,3.623,0,0,1-1.934-.514,3.552,3.552,0,0,1-1.3-1.5A5.3,5.3,0,0,1,22.842,8.9a5.13,5.13,0,0,1,.469-2.292,3.427,3.427,0,0,1,1.3-1.454,3.685,3.685,0,0,1,1.934-.5,3.587,3.587,0,0,1,1.934.514,3.427,3.427,0,0,1,1.3,1.454A5.058,5.058,0,0,1,30.244,8.9a5.3,5.3,0,0,1-.469,2.326,3.385,3.385,0,0,1-3.231,2.013Zm0-1.431a1.648,1.648,0,0,0,1.062-.358,2.253,2.253,0,0,0,.7-1.006A4.415,4.415,0,0,0,28.556,8.9a4.137,4.137,0,0,0-.246-1.509,2.106,2.106,0,0,0-.7-.973,1.683,1.683,0,0,0-1.062-.347,1.73,1.73,0,0,0-1.073.347,2.141,2.141,0,0,0-.693.973A4.315,4.315,0,0,0,24.542,8.9a4.605,4.605,0,0,0,.235,1.543,2.3,2.3,0,0,0,.693,1.006A1.694,1.694,0,0,0,26.543,11.8Z" transform="translate(-14.297 -4.649)" fill="#fff"/><path d="M21,12.965V4.68h1.655V7.956h3.13V4.68h1.644v8.285H25.785V9.387h-3.13v3.578Z" transform="translate(-21 -4.535)" fill="#fff"/></g><g transform="translate(1025 1171.565)"><path d="M33.741,11.087a4.383,4.383,0,0,1-1.621-.313,4.233,4.233,0,0,1-1.4-.894l.95-1.14a3.65,3.65,0,0,0,.995.671,2.787,2.787,0,0,0,1.107.246,1.6,1.6,0,0,0,.984-.257.828.828,0,0,0,.335-.693.691.691,0,0,0-.167-.492,1.379,1.379,0,0,0-.436-.335,6.818,6.818,0,0,0-.648-.291l-1.1-.481a3.92,3.92,0,0,1-.805-.447,2.509,2.509,0,0,1-.637-.727,2.086,2.086,0,0,1-.246-1.04,2.1,2.1,0,0,1,.369-1.219,2.55,2.55,0,0,1,1.018-.85A3.256,3.256,0,0,1,33.92,2.5a3.711,3.711,0,0,1,1.42.28,3.489,3.489,0,0,1,1.185.794L35.686,4.6a3.269,3.269,0,0,0-.816-.5,2.428,2.428,0,0,0-.95-.179,1.437,1.437,0,0,0-.861.235.736.736,0,0,0-.313.637.672.672,0,0,0,.179.481,1.647,1.647,0,0,0,.469.335q.291.134.637.28l1.084.436a3.3,3.3,0,0,1,.872.5,2.027,2.027,0,0,1,.581.727,2.277,2.277,0,0,1,.212,1.029,2.241,2.241,0,0,1-.369,1.241,2.563,2.563,0,0,1-1.04.917A3.523,3.523,0,0,1,33.741,11.087Z" transform="translate(14.371 -2.5)" fill="#fff"/><path d="M32.188,11.087a4.383,4.383,0,0,1-1.621-.313,4.235,4.235,0,0,1-1.4-.894l.95-1.14a3.652,3.652,0,0,0,1,.671,2.785,2.785,0,0,0,1.107.246,1.6,1.6,0,0,0,.984-.257.828.828,0,0,0,.335-.693.691.691,0,0,0-.168-.492,1.377,1.377,0,0,0-.436-.335,6.92,6.92,0,0,0-.648-.291l-1.1-.481a3.908,3.908,0,0,1-.805-.447,2.5,2.5,0,0,1-.637-.727,2.081,2.081,0,0,1-.246-1.04,2.1,2.1,0,0,1,.369-1.219,2.547,2.547,0,0,1,1.018-.85A3.254,3.254,0,0,1,32.367,2.5a3.709,3.709,0,0,1,1.42.28,3.485,3.485,0,0,1,1.185.794L34.134,4.6a3.278,3.278,0,0,0-.816-.5,2.428,2.428,0,0,0-.95-.179,1.436,1.436,0,0,0-.861.235.736.736,0,0,0-.313.637.674.674,0,0,0,.179.481,1.649,1.649,0,0,0,.47.335q.291.134.637.28l1.084.436a3.3,3.3,0,0,1,.872.5,2.023,2.023,0,0,1,.582.727,2.283,2.283,0,0,1,.212,1.029,2.238,2.238,0,0,1-.369,1.241,2.558,2.558,0,0,1-1.039.917A3.524,3.524,0,0,1,32.188,11.087Z" transform="translate(8.722 -2.5)" fill="#fff"/><path d="M27.7,10.816V2.531h5.076V3.918H29.352V5.83h2.9V7.216h-2.9V9.43H32.9v1.386Z" transform="translate(3.366 -2.386)" fill="#fff"/><path d="M25.947,10.816V2.531H28.82a5,5,0,0,1,1.588.235,2.164,2.164,0,0,1,1.118.783,2.435,2.435,0,0,1,.414,1.5,2.579,2.579,0,0,1-.414,1.509,2.442,2.442,0,0,1-1.118.861,4.431,4.431,0,0,1-1.588.268H27.6v3.131ZM27.6,6.378h1.073a1.9,1.9,0,0,0,1.218-.335,1.191,1.191,0,0,0,.425-1,.994.994,0,0,0-.425-.928,2.254,2.254,0,0,0-1.218-.268H27.6Zm2.84,4.439L28.518,7.261l1.163-1.029L32.3,10.816Z" transform="translate(-3.003 -2.386)" fill="#fff"/><path d="M24.232,10.816V2.531h2.717a5.113,5.113,0,0,1,1.644.246,2.323,2.323,0,0,1,1.163.816,2.45,2.45,0,0,1,.436,1.543,2.621,2.621,0,0,1-.436,1.554,2.514,2.514,0,0,1-1.152.894,4.245,4.245,0,0,1-1.61.291H25.887v2.941Zm1.655-4.249h1a1.894,1.894,0,0,0,1.263-.358,1.325,1.325,0,0,0,.425-1.073,1.079,1.079,0,0,0-.448-1,2.353,2.353,0,0,0-1.3-.291h-.939Z" transform="translate(-9.242 -2.386)" fill="#fff"/><path d="M24.986,10.816V7.786L22.493,2.531h1.755l.827,2.024q.179.47.347.917t.369.917h.045q.19-.481.369-.917t.369-.917L27.4,2.531h1.722L26.63,7.786v3.03Z" transform="translate(-15.569 -2.386)" fill="#fff"/><path d="M24.779,11.087a3.964,3.964,0,0,1-1.465-.268,3.5,3.5,0,0,1-1.207-.827,4.017,4.017,0,0,1-.816-1.342A5.281,5.281,0,0,1,21,6.827,5.1,5.1,0,0,1,21.3,5a4.025,4.025,0,0,1,.827-1.364,3.644,3.644,0,0,1,1.23-.85A3.862,3.862,0,0,1,24.846,2.5a2.974,2.974,0,0,1,1.409.324,3.483,3.483,0,0,1,1.018.738l-.861,1.051a2.659,2.659,0,0,0-.693-.5,1.8,1.8,0,0,0-.839-.19,1.945,1.945,0,0,0-1.129.347,2.218,2.218,0,0,0-.771.973,3.8,3.8,0,0,0-.28,1.532,4.211,4.211,0,0,0,.257,1.554,2.253,2.253,0,0,0,.749.984,1.929,1.929,0,0,0,1.141.347,1.968,1.968,0,0,0,.95-.224,2.9,2.9,0,0,0,.749-.593l.883,1.029a3.276,3.276,0,0,1-2.65,1.219Z" transform="translate(-21 -2.5)" fill="#fff"/></g></g></svg>